<svg width="802" height="598" viewBox="0 0 802 598" fill="none" xmlns="http://www.w3.org/2000/svg">
<g clip-path="url(#clip0_125_104)">
<path d="M436.314 60.934C446.771 60.934 455.248 52.457 455.248 42C455.248 31.543 446.771 23.0659 436.314 23.0659C425.857 23.0659 417.38 31.543 417.38 42C417.38 52.457 425.857 60.934 436.314 60.934Z" fill="#6C63FF"/>
<path d="M434.437 49.2227C434.011 49.2234 433.597 49.0856 433.256 48.8301L433.235 48.8142L428.785 45.4103C427.918 44.7458 427.754 43.5045 428.419 42.6378C429.083 41.7711 430.325 41.6071 431.191 42.2716L434.074 44.4818L440.884 35.5964C441.549 34.73 442.789 34.5661 443.656 35.2303L443.656 35.2303L443.656 35.2308L443.614 35.2894L443.657 35.2308C444.523 35.8958 444.686 37.1359 444.023 38.0026L436.012 48.4491C435.636 48.937 435.055 49.2221 434.439 49.2203L434.437 49.2227V49.2227Z" fill="white"/>
<path d="M436.314 188.934C446.771 188.934 455.248 180.457 455.248 170C455.248 159.543 446.771 151.066 436.314 151.066C425.857 151.066 417.38 159.543 417.38 170C417.38 180.457 425.857 188.934 436.314 188.934Z" fill="#6C63FF"/>
<path d="M434.437 177.223C434.011 177.224 433.597 177.086 433.256 176.83L433.235 176.814L428.785 173.41C427.918 172.746 427.754 171.505 428.419 170.638C429.083 169.771 430.325 169.607 431.191 170.272L434.074 172.482L440.884 163.597C441.549 162.73 442.789 162.566 443.656 163.231L443.656 163.231L443.656 163.231L443.614 163.29L443.657 163.231C444.523 163.896 444.686 165.136 444.023 166.003L436.012 176.449C435.636 176.937 435.055 177.222 434.439 177.221L434.437 177.223V177.223Z" fill="white"/>
<path d="M483.864 368.959C483.632 363.029 488.251 358.033 494.181 357.801C494.813 357.776 495.446 357.807 496.073 357.894L513.414 323.872L523.212 341.128L505.243 370.79C504.037 376.634 498.322 380.393 492.478 379.187C487.588 378.178 484.027 373.949 483.864 368.959L483.864 368.959V368.959Z" fill="#FFB7B7"/>
<path d="M564.71 583.194L551.101 583.193L544.627 530.702L564.712 530.703L564.71 583.194Z" fill="#FFB7B7"/>
<path d="M568.18 596.385L524.3 596.384V595.829C524.3 586.396 531.947 578.75 541.379 578.75H541.38L568.181 578.751L568.18 596.385V596.385Z" fill="#2F2E41"/>
<path d="M638.483 583.194L624.874 583.193L618.4 530.702L638.485 530.703L638.483 583.194Z" fill="#FFB7B7"/>
<path d="M641.954 596.385L598.073 596.384V595.829C598.074 586.396 605.72 578.75 615.153 578.75H615.154L641.955 578.751L641.954 596.385V596.385Z" fill="#2F2E41"/>
<path d="M504.767 339.349L498.826 349.25C498.826 349.25 508.728 349.25 510.708 364.102L518.629 354.201L504.767 339.349V339.349Z" fill="#E5E5E5"/>
<path d="M608.733 318.556C608.733 318.556 624.575 360.142 627.545 385.886C630.516 411.63 635.467 479.95 635.467 479.95L645.368 568.073L617.644 572.034L605.762 482.92L579.028 394.797L573.087 482.92L568.136 563.122L542.393 564.113L540.412 480.94L529.521 374.994L535.461 324.496L608.733 318.556V318.556Z" fill="#00007B"/>
<path d="M589.424 192.312L599.326 199.242L612.198 328.952L531.996 330.932L542.888 240.829L552.789 215.085L559.936 205.636L589.424 192.312Z" fill="#E5E5E5"/>
<path d="M591.405 285.386L594.435 195.819C594.435 195.819 600.317 196.272 602.297 199.243C604.277 202.213 636.952 208.154 636.952 208.154L631.011 300.238C631.011 300.238 655.765 373.509 646.854 377.47C637.942 381.43 622.1 380.44 622.1 380.44L591.405 285.386V285.386Z" fill="#FF7300"/>
<path d="M543.383 273.999L553.886 213.634L530.511 229.442L536.451 273.009L531.501 302.713C531.501 302.713 512.688 384.896 518.629 387.866C524.57 390.837 531.501 387.866 531.501 387.866L543.383 304.694V273.999V273.999Z" fill="#FF7300"/>
<path d="M537.442 227.462L530.511 229.442L527.54 269.048L522.59 303.703L498.826 346.28C498.826 346.28 510.708 338.359 515.659 361.132L541.829 315.568L537.442 227.462Z" fill="#FF7300"/>
<path d="M591.3 360.839C592.223 354.976 597.724 350.972 603.586 351.896C604.211 351.994 604.826 352.148 605.425 352.354L629.04 322.345L635.303 341.175L611.917 366.785C609.599 372.284 603.263 374.862 597.764 372.544C593.164 370.605 590.491 365.766 591.3 360.839V360.839Z" fill="#FFB7B7"/>
<path d="M631.506 350.24L622.595 361.132L610.713 340.339L615.663 331.428L631.506 350.24Z" fill="#E5E5E5"/>
<path d="M629.526 211.619L637.447 207.659C637.447 207.659 643.388 215.58 644.378 222.511C645.368 229.442 650.319 238.353 650.319 243.304C650.319 248.255 664.181 294.792 664.181 294.792L632.496 359.152C632.496 359.152 625.565 335.388 610.713 333.408L635.467 298.752L621.604 273.999L629.526 211.619V211.619Z" fill="#FF7300"/>
<path d="M800.921 596.996H419.921C419.369 596.996 418.921 596.548 418.921 595.996C418.921 595.444 419.369 594.996 419.921 594.996H800.921C801.473 594.996 801.921 595.444 801.921 595.996C801.921 596.548 801.473 596.996 800.921 596.996V596.996Z" fill="#CBCBCB"/>
<path d="M365 212H0V128H365V212Z" fill="white"/>
<path d="M52.6775 155.774C50.7133 155.774 49.1211 157.367 49.1211 159.331C49.1211 161.295 50.7133 162.887 52.6775 162.887H312.337C314.301 162.887 315.893 161.295 315.893 159.331C315.893 157.367 314.301 155.774 312.337 155.774H52.6775Z" fill="#6C63FF"/>
<path d="M52.6782 177.113C50.714 177.109 49.1184 178.698 49.1143 180.662C49.1101 182.626 50.699 184.221 52.6632 184.226H216.822C218.787 184.226 220.379 182.633 220.379 180.669C220.379 178.705 218.787 177.113 216.822 177.113H52.6782V177.113Z" fill="#6C63FF"/>
<path d="M365 212H0V128H365V212ZM6 206H359V134H6V206Z" fill="#E5E5E5"/>
<path d="M365 340H0V256H365V340Z" fill="white"/>
<path d="M52.6775 283.774C50.7133 283.774 49.1211 285.367 49.1211 287.331C49.1211 289.295 50.7133 290.887 52.6775 290.887H312.337C314.301 290.887 315.893 289.295 315.893 287.331C315.893 285.367 314.301 283.774 312.337 283.774H52.6775Z" fill="#E6E6E6"/>
<path d="M52.6782 305.113C50.714 305.109 49.1184 306.698 49.1143 308.662C49.1101 310.626 50.699 312.221 52.6632 312.226H216.823C218.787 312.226 220.379 310.633 220.379 308.669C220.379 306.705 218.787 305.113 216.823 305.113H52.6782V305.113Z" fill="#E6E6E6"/>
<path d="M365 340H0V256H365V340ZM6 334H359V262H6V334Z" fill="#E5E5E5"/>
<path d="M368 84H3V0H368V84Z" fill="white"/>
<path d="M55.6779 27.7744C53.7137 27.778 52.1244 29.3732 52.1279 31.3373C52.1315 33.2964 53.7188 34.8837 55.6779 34.8872H315.337C317.301 34.8836 318.891 33.2885 318.887 31.3243C318.884 29.3653 317.296 27.778 315.337 27.7744H55.6779V27.7744Z" fill="#6C63FF"/>
<path d="M55.6782 49.1128C53.714 49.1087 52.1184 50.6976 52.1143 52.6617C52.1101 54.6259 53.699 56.2215 55.6632 56.2256H219.822C221.787 56.2292 223.382 54.6398 223.385 52.6757C223.389 50.7115 221.8 49.1164 219.835 49.1128C219.831 49.1128 219.827 49.1128 219.822 49.1128H55.6782V49.1128Z" fill="#6C63FF"/>
<path d="M368 84H3V0H368V84ZM9 78H362V6H9V78Z" fill="#E5E5E5"/>
<path d="M739.248 597.457V525.117C739.248 525.117 767.44 576.403 739.248 597.457Z" fill="#F1F1F1"/>
<path d="M740.99 597.445L687.7 548.523C687.7 548.523 744.545 562.439 740.99 597.445Z" fill="#F1F1F1"/>
<path d="M484.314 366.78C494.771 366.78 503.248 358.303 503.248 347.846C503.248 337.389 494.771 328.912 484.314 328.912C473.857 328.912 465.38 337.389 465.38 347.846C465.38 358.303 473.857 366.78 484.314 366.78Z" fill="#6C63FF"/>
<path d="M482.437 355.068C482.011 355.069 481.597 354.931 481.256 354.676L481.235 354.66L476.785 351.256C475.918 350.591 475.755 349.35 476.419 348.483C477.083 347.617 478.325 347.453 479.191 348.117L482.074 350.327L488.884 341.442C489.549 340.576 490.789 340.412 491.656 341.076L491.656 341.076L491.614 341.135L491.657 341.076C492.523 341.742 492.686 342.982 492.023 343.848L484.012 354.295C483.636 354.783 483.055 355.068 482.439 355.066L482.437 355.068V355.068Z" fill="white"/>
<path d="M561.586 193.953C576.555 193.953 588.689 181.819 588.689 166.85C588.689 151.881 576.555 139.747 561.586 139.747C546.618 139.747 534.483 151.881 534.483 166.85C534.483 181.819 546.618 193.953 561.586 193.953Z" fill="#FFB6B6"/>
<path d="M585.262 187.674C585.262 187.674 593.289 171.417 593.146 165.21C593.003 159.003 588.617 143.032 586.767 141.979C584.916 140.925 564.957 130.792 559.548 133.838C554.139 136.885 544.62 147.307 534.353 150.126C531.449 150.924 533.984 165.842 533.984 165.842L545.999 164.104C545.999 164.104 558.525 152.857 559.066 160.516C559.608 168.174 571.224 164.984 571.224 164.984L571.367 171.191L576.121 171.447L577.43 164.841C577.43 164.841 579.567 178.308 576.806 185.312C574.045 192.316 585.262 187.674 585.262 187.674V187.674Z" fill="#2F2E41"/>
</g>
<defs>
<clipPath id="clip0_125_104">
<rect width="801.921" height="597.457" fill="white"/>
</clipPath>
</defs>
</svg>
