<svg width="918" height="120" viewBox="0 0 918 120" fill="none" xmlns="http://www.w3.org/2000/svg">
<g clip-path="url(#clip0_131_236)">
<path d="M0 0.041748H918V130.042H0V0.041748Z" fill="#00007B" fill-opacity="0.4"/>
<path d="M0 0.041748H918V120.042H0V0.041748Z" fill="#00007B" fill-opacity="0.4"/>
<path d="M0 0.041748H918V120.042H0V0.041748Z" fill="#00007B" fill-opacity="0.4"/>
<path d="M0 0.041748H918V120.042H0V0.041748Z" fill="#00007B" fill-opacity="0.4"/>
<path d="M19.0467 67.6061V83.5436H7.21338V39.752H21.5675C33.453 39.752 39.4009 44.0645 39.4009 52.6895C39.4009 57.7624 36.9269 61.6842 31.9842 64.4603L44.7342 83.5436H31.3175L22.0467 67.6061H19.0467ZM19.0467 58.7103H21.255C25.3905 58.7103 27.4634 56.8874 27.4634 53.2311C27.4634 50.2207 25.4321 48.7103 21.38 48.7103H19.0467V58.7103Z" fill="#FE5300"/>
<path d="M64.4051 84.1477C58.7645 84.1477 54.3843 82.6477 51.2593 79.6477C48.1343 76.6373 46.5718 72.3508 46.5718 66.7935C46.5718 61.0748 48.0145 56.6842 50.9051 53.6269C53.8062 50.5592 57.9364 49.0227 63.3009 49.0227C68.4103 49.0227 72.353 50.356 75.1343 53.0227C77.9259 55.679 79.3218 59.5123 79.3218 64.5227V69.731H58.3843C58.4676 71.6373 59.1603 73.1269 60.4676 74.2102C61.7853 75.2831 63.5718 75.8144 65.8218 75.8144C67.8739 75.8144 69.7645 75.6217 71.4884 75.231C73.2228 74.8456 75.0978 74.179 77.1134 73.231V81.6477C75.2801 82.5956 73.3843 83.2467 71.4259 83.606C69.4676 83.9654 67.1239 84.1477 64.4051 84.1477ZM63.7176 56.981C62.3426 56.981 61.1864 57.4185 60.2593 58.2935C59.327 59.1581 58.7853 60.5175 58.6343 62.3769H68.6968C68.6551 60.7415 68.1864 59.4342 67.3009 58.4602C66.4103 57.4758 65.2176 56.981 63.7176 56.981Z" fill="#FE5300"/>
<path d="M112.149 73.1269C112.149 76.7519 110.905 79.4967 108.42 81.356C105.946 83.2206 102.399 84.1477 97.7744 84.1477C95.2588 84.1477 93.0713 84.0071 91.2119 83.731C89.3473 83.4706 87.4515 82.9758 85.5244 82.2519V72.8769C87.3421 73.6842 89.3369 74.3456 91.5036 74.856C93.6702 75.3717 95.5973 75.6269 97.2952 75.6269C99.8213 75.6269 101.087 75.054 101.087 73.8977C101.087 73.304 100.733 72.7675 100.024 72.2935C99.3161 71.8248 97.2588 70.9133 93.8577 69.5644C90.7327 68.2883 88.5505 66.8352 87.3161 65.2102C86.0765 63.5748 85.4619 61.5123 85.4619 59.0227C85.4619 55.8717 86.6755 53.4185 89.1077 51.6685C91.5505 49.9081 94.9932 49.0227 99.4411 49.0227C101.675 49.0227 103.78 49.2675 105.754 49.7519C107.722 50.2415 109.764 50.955 111.879 51.8977L108.712 59.4394C107.139 58.731 105.488 58.1373 103.754 57.6477C102.014 57.1633 100.597 56.9185 99.5036 56.9185C97.5869 56.9185 96.6286 57.3925 96.6286 58.3352C96.6286 58.9081 96.9619 59.3977 97.6286 59.8144C98.3057 60.2206 100.243 61.054 103.441 62.3144C105.816 63.2883 107.587 64.2467 108.754 65.1894C109.92 66.1217 110.774 67.2258 111.316 68.5019C111.868 69.7675 112.149 71.3092 112.149 73.1269Z" fill="#FE5300"/>
<path d="M135.016 84.1477C129.376 84.1477 124.996 82.6477 121.871 79.6477C118.746 76.6373 117.183 72.3508 117.183 66.7935C117.183 61.0748 118.626 56.6842 121.516 53.6269C124.417 50.5592 128.548 49.0227 133.912 49.0227C139.022 49.0227 142.964 50.356 145.746 53.0227C148.537 55.679 149.933 59.5123 149.933 64.5227V69.731H128.996C129.079 71.6373 129.772 73.1269 131.079 74.2102C132.397 75.2831 134.183 75.8144 136.433 75.8144C138.485 75.8144 140.376 75.6217 142.1 75.231C143.834 74.8456 145.709 74.179 147.725 73.231V81.6477C145.891 82.5956 143.996 83.2467 142.037 83.606C140.079 83.9654 137.735 84.1477 135.016 84.1477ZM134.329 56.981C132.954 56.981 131.798 57.4185 130.871 58.2935C129.938 59.1581 129.397 60.5175 129.246 62.3769H139.308C139.266 60.7415 138.798 59.4342 137.912 58.4602C137.022 57.4758 135.829 56.981 134.329 56.981Z" fill="#FE5300"/>
<path d="M178.678 83.5435L176.448 79.0435H176.198C174.625 81.0019 173.021 82.3456 171.386 83.0644C169.745 83.7831 167.625 84.1477 165.032 84.1477C161.834 84.1477 159.313 83.1894 157.469 81.2727C155.636 79.356 154.719 76.6633 154.719 73.1894C154.719 69.5644 155.974 66.8717 158.49 65.106C161.016 63.3456 164.662 62.3508 169.428 62.1269L175.094 61.9602V61.481C175.094 58.679 173.719 57.2727 170.969 57.2727C168.48 57.2727 165.334 58.1165 161.532 59.7935L158.136 52.0644C162.094 50.0383 167.084 49.0227 173.115 49.0227C177.459 49.0227 180.829 50.1008 183.219 52.2519C185.605 54.4081 186.803 57.4185 186.803 61.2935V83.5435H178.678ZM170.011 75.8769C171.428 75.8769 172.636 75.4342 173.636 74.5435C174.646 73.6425 175.157 72.4706 175.157 71.0227V68.3977L172.448 68.5019C168.599 68.6425 166.678 70.0592 166.678 72.7519C166.678 74.8352 167.787 75.8769 170.011 75.8769Z" fill="#FE5300"/>
<path d="M215.242 49.0227C216.268 49.0227 217.242 49.1008 218.159 49.2519L218.804 49.3769L217.763 60.4185C216.804 60.1842 215.476 60.0644 213.784 60.0644C211.226 60.0644 209.367 60.6477 208.2 61.8144C207.044 62.981 206.471 64.6633 206.471 66.856V83.5435H194.763V49.606H203.471L205.304 55.0227H205.867C206.851 53.231 208.211 51.7883 209.95 50.6894C211.7 49.58 213.461 49.0227 215.242 49.0227Z" fill="#FE5300"/>
<path d="M238.999 84.1477C233.441 84.1477 229.233 82.6477 226.374 79.6477C223.509 76.6477 222.082 72.3508 222.082 66.7519C222.082 61.1165 223.624 56.7519 226.707 53.6685C229.801 50.5748 234.207 49.0227 239.915 49.0227C243.858 49.0227 247.566 49.8769 251.04 51.5852L247.582 60.2519C246.165 59.6269 244.858 59.1373 243.665 58.7727C242.467 58.3977 241.217 58.2102 239.915 58.2102C238.025 58.2102 236.561 58.955 235.52 60.4394C234.478 61.9133 233.957 63.9967 233.957 66.6894C233.957 72.1217 235.962 74.8352 239.978 74.8352C243.421 74.8352 246.717 73.8352 249.874 71.8352V81.1477C246.858 83.1477 243.233 84.1477 238.999 84.1477Z" fill="#FE5300"/>
<path d="M277.954 83.5436V65.0436C277.954 60.4915 276.605 58.2103 273.912 58.2103C271.995 58.2103 270.579 59.0176 269.662 60.627C268.756 62.2259 268.308 64.8926 268.308 68.627V83.5436H256.6V36.9395H268.308V43.5645C268.308 46.5645 268.146 49.9811 267.829 53.8145H268.37C269.495 52.054 270.818 50.8145 272.35 50.1061C273.891 49.3874 275.683 49.0228 277.725 49.0228C281.516 49.0228 284.459 50.1165 286.558 52.2936C288.667 54.4759 289.725 57.5384 289.725 61.4811V83.5436H277.954Z" fill="#FE5300"/>
<path d="M346.074 53.6895C346.074 58.5801 344.626 62.3561 341.741 65.0228C338.866 67.6895 334.772 69.0228 329.47 69.0228H326.137V83.5436H314.303V39.752H329.47C334.996 39.752 339.142 40.9603 341.907 43.377C344.683 45.7936 346.074 49.2311 346.074 53.6895ZM326.137 59.377H328.282C330.058 59.377 331.47 58.877 332.512 57.877C333.564 56.877 334.095 55.502 334.095 53.752C334.095 50.7936 332.459 49.3145 329.199 49.3145H326.137V59.377Z" fill="#FE5300"/>
<path d="M372.844 49.0227C373.87 49.0227 374.844 49.1008 375.761 49.2519L376.407 49.3769L375.365 60.4185C374.407 60.1842 373.079 60.0644 371.386 60.0644C368.829 60.0644 366.969 60.6477 365.803 61.8144C364.646 62.981 364.074 64.6633 364.074 66.856V83.5435H352.365V49.606H361.074L362.907 55.0227H363.469C364.454 53.231 365.813 51.7883 367.553 50.6894C369.303 49.58 371.063 49.0227 372.844 49.0227Z" fill="#FE5300"/>
<path d="M413.539 66.5019C413.539 72.0592 412.044 76.3925 409.06 79.5019C406.086 82.6008 401.914 84.1477 396.539 84.1477C391.382 84.1477 387.289 82.5644 384.247 79.3977C381.205 76.2206 379.685 71.9185 379.685 66.5019C379.685 60.9758 381.169 56.6842 384.143 53.6269C387.127 50.5592 391.32 49.0227 396.726 49.0227C400.06 49.0227 403.002 49.731 405.56 51.1477C408.112 52.5644 410.08 54.6008 411.455 57.2519C412.841 59.8925 413.539 62.9758 413.539 66.5019ZM391.56 66.5019C391.56 69.4185 391.945 71.6425 392.726 73.1685C393.502 74.6998 394.815 75.4602 396.664 75.4602C398.481 75.4602 399.757 74.6998 400.497 73.1685C401.247 71.6425 401.622 69.4185 401.622 66.5019C401.622 63.6165 401.237 61.4342 400.476 59.9602C399.726 58.4758 398.435 57.731 396.601 57.731C394.794 57.731 393.502 58.4706 392.726 59.9394C391.945 61.3977 391.56 63.5852 391.56 66.5019Z" fill="#FE5300"/>
<path d="M419.346 98.2727C418.388 98.2727 417.289 98.1946 416.055 98.0435C414.805 97.9029 413.805 97.731 413.055 97.5227V88.3977C414.336 88.7571 415.534 88.9394 416.659 88.9394C419.034 88.9394 420.221 87.2362 420.221 83.8352V49.606H431.93V86.2935C431.93 90.0279 430.831 92.9602 428.638 95.0852C426.456 97.2102 423.357 98.2727 419.346 98.2727ZM419.93 41.1685C419.93 39.4081 420.414 38.1008 421.388 37.2519C422.372 36.3925 423.951 35.9602 426.117 35.9602C428.294 35.9602 429.888 36.3977 430.888 37.2727C431.888 38.1477 432.388 39.4498 432.388 41.1685C432.388 44.6008 430.294 46.3144 426.117 46.3144C421.992 46.3144 419.93 44.6008 419.93 41.1685Z" fill="#FE5300"/>
<path d="M456.48 84.1477C450.84 84.1477 446.459 82.6477 443.334 79.6477C440.209 76.6373 438.647 72.3508 438.647 66.7935C438.647 61.0748 440.09 56.6842 442.98 53.6269C445.881 50.5592 450.012 49.0227 455.376 49.0227C460.486 49.0227 464.428 50.356 467.209 53.0227C470.001 55.679 471.397 59.5123 471.397 64.5227V69.731H450.459C450.543 71.6373 451.236 73.1269 452.543 74.2102C453.861 75.2831 455.647 75.8144 457.897 75.8144C459.949 75.8144 461.84 75.6217 463.564 75.231C465.298 74.8456 467.173 74.179 469.189 73.231V81.6477C467.355 82.5956 465.459 83.2467 463.501 83.606C461.543 83.9654 459.199 84.1477 456.48 84.1477ZM455.793 56.981C454.418 56.981 453.262 57.4185 452.334 58.2935C451.402 59.1581 450.861 60.5175 450.709 62.3769H460.772C460.73 60.7415 460.262 59.4342 459.376 58.4602C458.486 57.4758 457.293 56.981 455.793 56.981Z" fill="#FE5300"/>
<path d="M493.474 84.1477C487.917 84.1477 483.709 82.6477 480.849 79.6477C477.985 76.6477 476.558 72.3508 476.558 66.7519C476.558 61.1165 478.099 56.7519 481.183 53.6685C484.276 50.5748 488.683 49.0227 494.391 49.0227C498.334 49.0227 502.042 49.8769 505.516 51.5852L502.058 60.2519C500.641 59.6269 499.334 59.1373 498.141 58.7727C496.943 58.3977 495.693 58.2102 494.391 58.2102C492.5 58.2102 491.037 58.955 489.995 60.4394C488.953 61.9133 488.433 63.9967 488.433 66.6894C488.433 72.1217 490.438 74.8352 494.453 74.8352C497.896 74.8352 501.193 73.8352 504.349 71.8352V81.1477C501.334 83.1477 497.709 84.1477 493.474 84.1477Z" fill="#FE5300"/>
<path d="M527.701 74.8978C529.268 74.8978 531.159 74.502 533.367 73.7103V82.252C531.784 82.9342 530.273 83.4186 528.846 83.7103C527.414 84.002 525.742 84.1478 523.826 84.1478C519.893 84.1478 517.06 83.1842 515.326 81.252C513.586 79.3249 512.721 76.3665 512.721 72.377V58.377H508.617V53.627L513.826 49.9395L516.867 42.8145H524.534V49.6061H532.846V58.377H524.534V71.5853C524.534 73.7936 525.586 74.8978 527.701 74.8978Z" fill="#FE5300"/>
<path d="M584.528 70.252C584.528 72.9603 583.84 75.3717 582.465 77.4811C581.09 79.5957 579.1 81.2311 576.507 82.3978C573.908 83.5645 570.866 84.1478 567.382 84.1478C564.465 84.1478 562.012 83.9447 560.028 83.5436C558.054 83.127 555.996 82.4082 553.861 81.377V70.8353C556.121 72.002 558.47 72.9134 560.903 73.5645C563.345 74.2051 565.58 74.5228 567.611 74.5228C569.371 74.5228 570.663 74.2259 571.486 73.627C572.304 73.0176 572.715 72.2311 572.715 71.2728C572.715 70.6634 572.548 70.1374 572.215 69.6895C571.882 69.2467 571.345 68.7936 570.611 68.3353C569.887 67.877 567.949 66.9395 564.798 65.5228C561.949 64.2207 559.809 62.9603 558.382 61.752C556.949 60.5332 555.887 59.1374 555.194 57.5645C554.512 55.9811 554.173 54.1061 554.173 51.9395C554.173 47.9134 555.637 44.7728 558.569 42.5228C561.496 40.2624 565.533 39.127 570.673 39.127C575.199 39.127 579.819 40.179 584.528 42.2728L580.903 51.4186C576.819 49.5332 573.288 48.5853 570.319 48.5853C568.778 48.5853 567.653 48.8561 566.944 49.3978C566.246 49.9395 565.903 50.6165 565.903 51.4186C565.903 52.2676 566.345 53.0332 567.236 53.7103C568.121 54.3926 570.533 55.627 574.465 57.4186C578.241 59.127 580.861 60.9551 582.319 62.8978C583.788 64.8457 584.528 67.2936 584.528 70.252Z" fill="#FE5300"/>
<path d="M614.777 83.5435L613.319 79.3143H612.631C611.642 80.8716 610.277 82.0643 608.527 82.8976C606.787 83.731 604.741 84.1476 602.381 84.1476C598.642 84.1476 595.735 83.0643 593.652 80.8976C591.579 78.731 590.548 75.6685 590.548 71.7101V49.606H602.256V68.1476C602.256 70.3716 602.569 72.0539 603.194 73.1893C603.829 74.3299 604.866 74.8976 606.298 74.8976C608.324 74.8976 609.761 74.106 610.61 72.5226C611.47 70.9289 611.902 68.2414 611.902 64.4601V49.606H623.61V83.5435H614.777Z" fill="#FE5300"/>
<path d="M652.424 49.0228C656.117 49.0228 659.049 50.5749 661.216 53.6686C663.383 56.752 664.466 61.0332 664.466 66.502C664.466 72.0176 663.367 76.3353 661.174 79.4603C658.992 82.5853 655.956 84.1478 652.07 84.1478C650.805 84.1478 649.68 84.0072 648.695 83.7311C647.721 83.4707 646.846 83.1009 646.07 82.627C645.305 82.1426 644.414 81.3353 643.404 80.2103H642.695L640.841 83.5436H631.695V36.9395H643.404V47.4811C643.404 48.7467 643.263 50.9134 642.987 53.9811H643.404C644.539 52.2311 645.852 50.9707 647.341 50.1895C648.826 49.4134 650.518 49.0228 652.424 49.0228ZM648.133 58.2103C646.492 58.2103 645.289 58.7832 644.529 59.9186C643.779 61.0592 643.404 62.8457 643.404 65.2728V66.9186C643.404 69.6999 643.779 71.6895 644.529 72.8978C645.289 74.1061 646.534 74.7103 648.258 74.7103C649.633 74.7103 650.685 74.0124 651.424 72.6061C652.174 71.1895 652.549 69.1165 652.549 66.377C652.549 60.9342 651.076 58.2103 648.133 58.2103Z" fill="#FE5300"/>
<path d="M712.8 83.5435V65.0852C712.8 62.7935 712.478 61.08 711.842 59.9394C711.217 58.7883 710.222 58.2102 708.863 58.2102C707.071 58.2102 705.748 58.981 704.905 60.5227C704.071 62.054 703.655 64.455 703.655 67.731V83.5435H691.925V65.0852C691.925 62.7935 691.618 61.08 691.009 59.9394C690.41 58.7883 689.446 58.2102 688.113 58.2102C686.28 58.2102 684.936 59.0331 684.092 60.6685C683.259 62.3092 682.842 64.981 682.842 68.6894V83.5435H671.134V49.606H679.967L681.446 53.8144H682.134C683.019 52.2467 684.321 51.0592 686.03 50.2519C687.738 49.4342 689.681 49.0227 691.863 49.0227C696.748 49.0227 700.181 50.5123 702.155 53.481H703.092C704.05 52.08 705.384 50.9915 707.092 50.2102C708.8 49.4185 710.681 49.0227 712.738 49.0227C716.748 49.0227 719.717 50.054 721.634 52.106C723.55 54.1633 724.509 57.2883 724.509 61.481V83.5435H712.8Z" fill="#FE5300"/>
<path d="M744.232 83.5435H732.524V49.606H744.232V83.5435ZM732.232 41.1685C732.232 39.4081 732.717 38.1008 733.691 37.2519C734.66 36.3925 736.238 35.9602 738.42 35.9602C740.597 35.9602 742.191 36.3977 743.191 37.2727C744.191 38.1477 744.691 39.4498 744.691 41.1685C744.691 44.6008 742.597 46.3144 738.42 46.3144C734.295 46.3144 732.232 44.6008 732.232 41.1685Z" fill="#FE5300"/>
<path d="M778.614 73.1269C778.614 76.7519 777.369 79.4967 774.885 81.356C772.411 83.2206 768.864 84.1477 764.239 84.1477C761.723 84.1477 759.536 84.0071 757.676 83.731C755.812 83.4706 753.916 82.9758 751.989 82.2519V72.8769C753.806 73.6842 755.801 74.3456 757.968 74.856C760.135 75.3717 762.062 75.6269 763.76 75.6269C766.286 75.6269 767.551 75.054 767.551 73.8977C767.551 73.304 767.197 72.7675 766.489 72.2935C765.78 71.8248 763.723 70.9133 760.322 69.5644C757.197 68.2883 755.015 66.8352 753.78 65.2102C752.541 63.5748 751.926 61.5123 751.926 59.0227C751.926 55.8717 753.14 53.4185 755.572 51.6685C758.015 49.9081 761.458 49.0227 765.905 49.0227C768.14 49.0227 770.244 49.2675 772.218 49.7519C774.187 50.2415 776.228 50.955 778.343 51.8977L775.176 59.4394C773.603 58.731 771.952 58.1373 770.218 57.6477C768.478 57.1633 767.062 56.9185 765.968 56.9185C764.051 56.9185 763.093 57.3925 763.093 58.3352C763.093 58.9081 763.426 59.3977 764.093 59.8144C764.77 60.2206 766.708 61.054 769.905 62.3144C772.28 63.2883 774.051 64.2467 775.218 65.1894C776.385 66.1217 777.239 67.2258 777.78 68.5019C778.333 69.7675 778.614 71.3092 778.614 73.1269Z" fill="#FE5300"/>
<path d="M811.314 73.1269C811.314 76.7519 810.069 79.4967 807.585 81.356C805.111 83.2206 801.564 84.1477 796.939 84.1477C794.423 84.1477 792.236 84.0071 790.376 83.731C788.512 83.4706 786.616 82.9758 784.689 82.2519V72.8769C786.507 73.6842 788.501 74.3456 790.668 74.856C792.835 75.3717 794.762 75.6269 796.46 75.6269C798.986 75.6269 800.251 75.054 800.251 73.8977C800.251 73.304 799.897 72.7675 799.189 72.2935C798.481 71.8248 796.423 70.9133 793.022 69.5644C789.897 68.2883 787.715 66.8352 786.481 65.2102C785.241 63.5748 784.626 61.5123 784.626 59.0227C784.626 55.8717 785.84 53.4185 788.272 51.6685C790.715 49.9081 794.158 49.0227 798.606 49.0227C800.84 49.0227 802.944 49.2675 804.918 49.7519C806.887 50.2415 808.929 50.955 811.043 51.8977L807.876 59.4394C806.304 58.731 804.653 58.1373 802.918 57.6477C801.179 57.1633 799.762 56.9185 798.668 56.9185C796.751 56.9185 795.793 57.3925 795.793 58.3352C795.793 58.9081 796.126 59.3977 796.793 59.8144C797.47 60.2206 799.408 61.054 802.606 62.3144C804.981 63.2883 806.751 64.2467 807.918 65.1894C809.085 66.1217 809.939 67.2258 810.481 68.5019C811.033 69.7675 811.314 71.3092 811.314 73.1269Z" fill="#FE5300"/>
<path d="M829.577 83.5435H817.868V49.606H829.577V83.5435ZM817.577 41.1685C817.577 39.4081 818.061 38.1008 819.035 37.2519C820.004 36.3925 821.582 35.9602 823.764 35.9602C825.941 35.9602 827.535 36.3977 828.535 37.2727C829.535 38.1477 830.035 39.4498 830.035 41.1685C830.035 44.6008 827.941 46.3144 823.764 46.3144C819.639 46.3144 817.577 44.6008 817.577 41.1685Z" fill="#FE5300"/>
<path d="M870.145 66.5019C870.145 72.0592 868.65 76.3925 865.666 79.5019C862.692 82.6008 858.52 84.1477 853.145 84.1477C847.989 84.1477 843.895 82.5644 840.854 79.3977C837.812 76.2206 836.291 71.9185 836.291 66.5019C836.291 60.9758 837.775 56.6842 840.749 53.6269C843.734 50.5592 847.926 49.0227 853.333 49.0227C856.666 49.0227 859.609 49.731 862.166 51.1477C864.718 52.5644 866.687 54.6008 868.062 57.2519C869.447 59.8925 870.145 62.9758 870.145 66.5019ZM848.166 66.5019C848.166 69.4185 848.551 71.6425 849.333 73.1685C850.109 74.6998 851.421 75.4602 853.27 75.4602C855.088 75.4602 856.364 74.6998 857.104 73.1685C857.854 71.6425 858.229 69.4185 858.229 66.5019C858.229 63.6165 857.843 61.4342 857.083 59.9602C856.333 58.4758 855.041 57.731 853.208 57.731C851.4 57.731 850.109 58.4706 849.333 59.9394C848.551 61.3977 848.166 63.5852 848.166 66.5019Z" fill="#FE5300"/>
<path d="M898.245 83.5435V65.0435C898.245 62.7831 897.917 61.08 897.266 59.9394C896.609 58.7883 895.568 58.2102 894.141 58.2102C892.167 58.2102 890.734 59.0019 889.849 60.5852C888.974 62.1581 888.536 64.856 888.536 68.6894V83.5435H876.828V49.606H885.661L887.141 53.8144H887.828C888.828 52.2206 890.208 51.0227 891.974 50.231C893.734 49.429 895.766 49.0227 898.057 49.0227C901.818 49.0227 904.745 50.1165 906.828 52.2935C908.911 54.4602 909.953 57.5227 909.953 61.481V83.5435H898.245Z" fill="#FE5300"/>
</g>
<defs>
<clipPath id="clip0_131_236">
<rect width="918" height="120" fill="white"/>
</clipPath>
</defs>
</svg>
