<svg width="771" height="733" viewBox="0 0 771 733" fill="none" xmlns="http://www.w3.org/2000/svg">
<g clip-path="url(#clip0_127_157)">
<path d="M733.063 173.909C733.438 173.357 742.767 182.748 751.251 180.816C761.821 178.408 769.553 158.776 763.822 150.379C760.028 144.822 750.594 144.561 750.79 143.518C751 142.403 761.153 146.142 766.676 141.676C773.386 136.252 771.984 119.755 763.775 111.102C762.133 109.37 759.405 106.495 755.487 106.267C747.791 105.819 741.75 115.95 739.094 120.403C730.652 134.56 729.96 149.413 728.919 149.274C727.956 149.146 730.512 136.716 725.879 134.171C724.864 133.614 723.659 133.622 722.46 133.899C722.763 133.114 722.982 132.307 723.092 131.477C723.787 126.242 719.628 120.677 714.714 116.012C719.832 119.044 725.617 121.147 730.735 119.643C742.169 116.283 749.777 95.0831 743.766 82.0688C739.568 72.9793 728.862 68.1768 729.215 67.6565C729.59 67.1048 738.919 76.4958 747.404 74.5632C757.974 72.1559 765.706 52.5236 759.974 44.1265C756.181 38.5693 746.747 38.3081 746.943 37.2658C747.153 36.1506 757.306 39.889 762.829 35.4238C769.538 29.9994 768.136 13.5021 759.928 4.84912C758.285 3.11776 755.557 0.242059 751.639 0.0143488C743.944 -0.433041 737.902 9.69782 735.247 14.1507C726.804 28.3079 726.112 43.1609 725.071 43.0218C724.108 42.8932 726.665 30.4636 722.032 27.9187C719.131 26.3251 714.669 29.2978 713.283 30.2211C698.044 40.3738 702.267 62.4504 688.188 85.9373C683.655 93.4997 679.139 98.0154 675.328 101.431C673.587 80.4022 679.999 64.2594 670.286 52.0319C669.251 50.728 665.916 46.5297 662.666 47.1565C657.476 48.1574 656.095 60.7719 655.14 60.5989C654.106 60.4117 658.004 46.0627 654.312 29.9982C653.15 24.9453 650.508 13.4495 643.047 11.5145C639.248 10.5293 635.769 12.4294 633.675 13.5734C623.207 19.2908 616.812 34.5623 621.534 41.7836C625.42 47.7279 636.231 47.2845 636.088 48.4104C635.955 49.4627 626.896 46.817 621.581 50.9425C613.549 57.1763 614.886 78.2339 624.207 83.7679C631.69 88.2103 643.45 82.1342 643.637 82.7742C643.814 83.3778 632.151 84.6643 625.367 92.0275C622.551 95.0841 620.619 99.1489 619.527 103.541C610.288 104.235 602.38 110.855 602.084 110.345C601.749 109.768 614.257 105.435 616.195 96.9517C618.61 86.3834 604.274 70.9021 594.222 72.4251C587.569 73.4331 583.242 81.8205 582.388 81.1917C581.474 80.5188 589.246 72.9917 587.618 66.0785C585.64 57.6803 570.167 51.789 558.81 55.4331C556.537 56.1622 552.763 57.3732 550.859 60.8047C547.118 67.5446 553.627 77.382 556.488 81.7059C565.583 95.453 578.666 102.518 578.089 103.396C577.556 104.208 567.465 96.5138 563.162 99.5846C560.468 101.507 561.212 106.817 561.443 108.466C563.982 126.601 585.706 132.37 600.764 155.241C613.025 173.866 607.793 183.974 618.182 189.022C622.641 191.189 628.32 191.608 634.124 190.565L634.124 190.565C629.632 220.643 628.362 272.082 628.362 272.082C627.095 323.535 620.48 365.909 617.584 365.827C615.977 365.779 616.569 352.818 611.698 331.976C608.28 317.363 606.666 318.037 597.791 291.964C583.706 250.605 576.664 229.932 576.65 229.819C576.575 228.92 576.452 227.105 575.937 225.269C586.362 222.352 596.485 214.879 600.002 204.392C602.815 196.002 602.076 183.54 595.233 179.05C590.817 176.153 584 177.487 577.665 179.892C582.616 176.596 587.02 172.294 587.884 167.03C589.816 155.271 574.013 139.222 559.679 138.994C549.668 138.835 540.698 146.399 540.382 145.855C540.047 145.278 552.555 140.945 554.493 132.461C556.908 121.893 542.572 106.412 532.52 107.935C525.867 108.943 521.54 117.33 520.686 116.701C519.772 116.028 527.544 108.501 525.916 101.588C523.938 93.1898 508.465 87.2985 497.108 90.9426C494.835 91.6717 491.061 92.8827 489.157 96.3142C485.416 103.054 491.925 112.891 494.786 117.215C503.881 130.962 516.964 138.027 516.387 138.905C515.854 139.717 505.763 132.023 501.46 135.094C498.766 137.017 499.51 142.327 499.741 143.976C502.28 162.111 524.004 167.879 539.062 190.751C551.323 209.375 546.091 219.483 556.48 224.531C558.277 225.405 560.277 225.987 562.398 226.312L562.399 226.322C563.313 240.542 588.93 278.758 603.189 333.093C610.291 360.163 614.177 374.931 611.38 395.495C608.617 415.882 600.944 429.642 601.084 438.727C601.094 439.577 601.168 440.361 601.326 441.119L643.433 435.592C643.715 434.776 643.937 433.939 644.113 433.079C647.32 417.611 635.621 394.102 641.566 356.188C645.981 328.053 658.077 304.912 663.716 294.131C670.646 280.872 678.834 268.401 687.674 249.034C693.351 252.16 699.786 253.82 706.173 253.017C714.952 251.913 725.862 245.843 726.94 237.729C727.635 232.495 723.476 226.93 718.562 222.265C723.68 225.297 729.465 227.399 734.583 225.895C746.017 222.536 753.625 201.336 747.614 188.321C743.415 179.232 732.71 174.429 733.063 173.909L733.063 173.909ZM561.753 187.772C561.723 187.711 562.162 187.52 562.928 187.209C562.206 187.614 561.784 187.833 561.753 187.772ZM701.73 105.907C701.052 105.432 700.672 105.147 700.713 105.092C700.755 105.038 701.118 105.351 701.73 105.907ZM658.063 127.612C658.816 127.271 659.257 127.085 659.28 127.149C659.303 127.213 658.854 127.369 658.063 127.612ZM623.455 152.263C623.425 152.202 623.864 152.011 624.63 151.7C623.909 152.105 623.486 152.324 623.455 152.263ZM635.569 261.037C634.558 260.809 646.855 211.071 648.872 184.664C654.708 180.838 659.501 175.451 661.704 168.883C661.742 168.769 661.777 168.651 661.814 168.535C662.981 168.373 664.142 168.154 665.292 167.883C661.177 178.288 658.881 185.844 658.881 185.844C648.195 221.048 636.491 261.248 635.569 261.037V261.037ZM681.464 244.799C678.089 249.974 674.134 256.336 668.689 266.067C654.721 290.998 647.744 303.455 645.909 312.337C645.427 314.709 642.883 327.536 637.054 343.796C634.074 352.093 632.585 356.241 631.452 356.072C628.243 355.585 628.189 322.858 637.071 288.972C638.594 283.204 639.807 279.481 642.115 272.441C645.859 260.956 666.723 197.12 683.136 158.395L683.138 158.389C686.169 155.484 688.436 152.161 689.549 148.662C689.905 147.545 690.105 146.512 690.184 145.529C694.11 146.777 698.227 147.279 702.325 146.764C704.617 146.476 707.053 145.847 709.422 144.934C702.868 156.548 702.974 173.942 692.036 192.19C680.572 211.315 669.195 210.985 669.151 222.535C669.122 230.205 674.116 238.69 681.469 244.791L681.464 244.799L681.464 244.799ZM704.561 211.345C704.602 211.291 704.965 211.604 705.578 212.159C704.899 211.685 704.519 211.399 704.561 211.345Z" fill="#F2F2F2"/>
<path d="M264.226 161.609C270.655 160.538 277.651 168.39 280.573 171.669C288.375 180.425 290.004 190.611 290.633 194.933C300.574 263.159 305.544 297.271 284.975 313.138C265.426 328.217 229.693 324.173 222.728 310.623C220.015 305.345 222.284 299.823 225.872 289.246C232.504 269.697 236.413 249.324 242.22 229.514C255.478 184.283 254.365 163.253 264.226 161.609V161.609Z" fill="#2F2E41"/>
<path d="M88.8048 416.253L57.5192 475.302C49.5328 490.376 11.7422 722.574 28.5479 725.5L101.344 727.915L131.548 729.5L162.594 729.947L239.548 732.5L196.321 430.085L88.8048 416.253V416.253Z" fill="#00007B"/>
<path d="M165.827 243.032L228.073 245.547L233.103 266.296L248.093 278.525C253.604 283.021 256.308 290.11 255.19 297.134L248.193 341.117C248.193 341.117 261.397 372.555 228.073 392.675L194.749 446.747L79.0591 434.801C79.0591 434.801 68.3704 433.544 75.9154 425.999C83.4604 418.454 92.8916 381.357 92.8916 381.357C92.8916 381.357 91.6341 365.01 96.0354 360.609C100.437 356.207 97.3721 344.89 97.3721 344.89L115.274 278.715C118.763 265.82 130.462 256.865 143.821 256.865H163.673L165.827 243.032L165.827 243.032Z" fill="#FF7300"/>
<path d="M644.668 666.158L101.05 520.871C89.4356 517.767 81.3424 508.423 79.9283 496.484C78.5142 484.546 84.2008 473.569 94.7681 467.838L315.691 348.022C321.274 344.994 327.803 343.894 334.069 344.929L699.226 405.126C707.022 406.411 713.777 410.707 718.248 417.221C722.719 423.734 724.298 431.582 722.695 439.318L680.233 644.223C678.612 652.044 673.976 658.66 667.177 662.854C662.568 665.696 657.411 667.15 652.162 667.15C649.668 667.15 647.153 666.822 644.668 666.158V666.158Z" fill="white"/>
<path d="M644.668 666.158L101.05 520.871C89.4356 517.767 81.3424 508.423 79.9283 496.484C78.5142 484.546 84.2008 473.569 94.7681 467.838L315.691 348.022C321.274 344.994 327.803 343.894 334.069 344.929L699.226 405.126C707.022 406.411 713.777 410.707 718.248 417.221C722.719 423.734 724.298 431.582 722.695 439.318L680.233 644.223C678.612 652.044 673.976 658.66 667.177 662.854C662.568 665.696 657.411 667.15 652.162 667.15C649.668 667.15 647.153 666.822 644.668 666.158V666.158ZM698.738 408.087L333.581 347.889C327.968 346.962 322.123 347.947 317.122 350.659L96.1988 470.475C86.734 475.607 81.6407 485.438 82.9073 496.131C84.1739 506.823 91.4224 515.192 101.824 517.973L645.442 663.26C652.353 665.105 659.514 664.056 665.603 660.3C671.691 656.545 675.844 650.618 677.296 643.613L719.758 438.709C721.193 431.781 719.779 424.752 715.774 418.918C711.77 413.084 705.72 409.237 698.738 408.087L698.982 406.606L698.738 408.087V408.087Z" fill="#CCCCCC"/>
<path d="M619.761 464.494L571.281 586.826C566.581 598.686 553.386 604.755 541.323 600.604L184.988 478C165.312 471.23 163.114 444.282 181.432 434.413L296.108 372.632C301.097 369.944 306.88 369.119 312.422 370.304L602.561 432.357C617 435.445 625.2 450.768 619.761 464.494V464.494Z" fill="#F2F2F2"/>
<path d="M526.414 484.786C537.526 484.786 546.534 480.282 546.534 474.727C546.534 469.171 537.526 464.667 526.414 464.667C515.302 464.667 506.294 469.171 506.294 474.727C506.294 480.282 515.302 484.786 526.414 484.786Z" fill="#FF6884"/>
<path d="M507.552 515.595C518.664 515.595 527.672 511.091 527.672 505.535C527.672 499.979 518.664 495.475 507.552 495.475C496.44 495.475 487.432 499.979 487.432 505.535C487.432 511.091 496.44 515.595 507.552 515.595Z" fill="#3F3D56"/>
<path d="M399.406 491.388C429.617 491.388 454.108 479.143 454.108 464.038C454.108 448.933 429.617 436.687 399.406 436.687C369.196 436.687 344.705 448.933 344.705 464.038C344.705 479.143 369.196 491.388 399.406 491.388Z" fill="#6C63FF"/>
<path d="M304.466 462.781C305.242 462.781 305.969 462.298 306.244 461.524C306.591 460.542 306.077 459.464 305.096 459.116L265.18 444.969C264.201 444.622 263.12 445.135 262.772 446.117C262.424 447.099 262.938 448.177 263.92 448.525L303.836 462.672C304.044 462.746 304.256 462.781 304.466 462.781V462.781Z" fill="#3F3D56"/>
<path d="M313.268 455.865C314.045 455.865 314.772 455.381 315.047 454.608C315.394 453.626 314.88 452.548 313.898 452.2L273.983 438.053C273.003 437.706 271.923 438.219 271.574 439.201C271.227 440.183 271.741 441.261 272.723 441.609L312.638 455.756C312.847 455.83 313.059 455.865 313.268 455.865V455.865Z" fill="#3F3D56"/>
<path d="M322.07 448.948C322.846 448.948 323.574 448.465 323.848 447.692C324.196 446.71 323.682 445.632 322.7 445.283L282.784 431.137C281.804 430.79 280.724 431.302 280.376 432.285C280.029 433.267 280.543 434.345 281.524 434.693L321.44 448.84C321.648 448.913 321.861 448.948 322.07 448.948V448.948Z" fill="#3F3D56"/>
<path d="M330.873 442.032C331.649 442.032 332.377 441.549 332.651 440.775C332.999 439.794 332.485 438.715 331.503 438.367L291.587 424.22C290.608 423.873 289.527 424.386 289.179 425.368C288.831 426.35 289.345 427.428 290.327 427.777L330.243 441.924C330.451 441.997 330.663 442.032 330.873 442.032V442.032Z" fill="#3F3D56"/>
<path d="M339.676 435.116C340.452 435.116 341.179 434.633 341.454 433.859C341.801 432.877 341.287 431.799 340.306 431.451L300.39 417.304C299.41 416.957 298.33 417.47 297.982 418.452C297.634 419.434 298.148 420.512 299.13 420.86L339.046 435.007C339.254 435.081 339.466 435.116 339.676 435.116V435.116Z" fill="#3F3D56"/>
<path d="M348.478 428.2C349.254 428.2 349.982 427.716 350.257 426.943C350.604 425.961 350.09 424.883 349.108 424.535L309.193 410.388C308.213 410.041 307.133 410.554 306.784 411.536C306.437 412.518 306.951 413.596 307.933 413.944L347.848 428.091C348.057 428.165 348.269 428.2 348.478 428.2V428.2Z" fill="#3F3D56"/>
<path d="M357.28 421.284C358.056 421.284 358.784 420.8 359.058 420.027C359.406 419.045 358.892 417.967 357.91 417.619L317.994 403.472C317.014 403.125 315.935 403.638 315.586 404.62C315.239 405.602 315.753 406.68 316.734 407.028L356.65 421.175C356.858 421.249 357.071 421.284 357.28 421.284V421.284Z" fill="#3F3D56"/>
<path d="M222.728 263.467C251.203 263.467 274.286 240.384 274.286 211.909C274.286 183.435 251.203 160.352 222.728 160.352C194.254 160.352 171.171 183.435 171.171 211.909C171.171 240.384 194.254 263.467 222.728 263.467Z" fill="#A0616A"/>
<path d="M233.417 135.202C218.901 132.836 211.106 131.565 203.237 133.316C187.474 136.823 178.33 150.915 171.8 160.981C156.183 185.051 163.243 195.167 147.907 228.886C136.906 253.074 131.359 252.074 130.302 264.724C128.084 291.278 150.672 317.84 174.944 328.228C176.565 328.922 201.789 339.477 208.896 330.743C214.106 324.34 204.902 313.32 193.806 283.587C174.295 231.306 183.514 213.833 186.261 209.394C187.996 206.59 192.946 199.62 195.692 200.592C198.177 201.471 196.026 207.85 198.207 213.167C204.051 227.41 239.571 230.573 267.37 219.454C275.568 216.176 280.598 214.164 284.346 208.766C297.062 190.45 281.881 152.068 257.939 140.861C252.492 138.311 246.133 137.275 233.417 135.202L233.417 135.202Z" fill="#2F2E41"/>
<path d="M196.554 442.382C209.093 448.742 215.975 460.367 211.926 468.347C207.877 476.326 194.432 477.637 181.889 471.273C176.844 468.8 172.464 465.154 169.117 460.641L116.327 433.021L129.816 408.525L180.425 438.354C186.046 438.389 191.576 439.77 196.554 442.382V442.382Z" fill="#A0616A"/>
<path d="M443.448 406.845C456.657 411.663 464.878 422.383 461.811 430.789C458.743 439.195 445.55 442.102 432.337 437.28C427.033 435.427 422.249 432.33 418.387 428.249L362.678 407.129L373.146 381.198L426.954 404.771C432.539 404.135 438.194 404.846 443.448 406.845H443.448Z" fill="#A0616A"/>
<path d="M136.589 269.754C136.589 269.754 125.901 247.748 101.379 264.724C76.8582 281.701 18.3845 352.12 18.3845 352.12C18.3845 352.12 -11.7955 378.528 5.18073 387.959C22.157 397.39 144.134 452.092 144.134 452.092L174.943 430.714L65.5407 374.755L128.383 327.599L136.589 269.754H136.589Z" fill="#FF7300"/>
<path d="M243.477 282.958C243.477 282.958 250.958 272.269 264.194 282.958C277.43 293.647 315.523 355.193 315.523 355.193L409.467 393.618L395.635 421.912L283.088 381.672L234.046 315.024L243.477 282.958V282.958Z" fill="#FF7300"/>
<path d="M237.503 263.781C223.245 271.062 229.806 282.241 229.33 284.53C224.696 306.82 241.636 329.907 248.192 328.542C252.039 327.742 254.061 318.161 253.222 310.937C252.135 301.573 261.141 286.749 260.138 280.129C257.678 263.886 272.525 263.582 269.57 257.494C267.838 253.926 246.001 259.442 237.503 263.781H237.503Z" fill="#2F2E41"/>
<path d="M402.786 492.835C402.845 492.835 402.905 492.832 402.965 492.824C403.787 492.727 404.375 491.981 404.278 491.158L400.896 462.604C400.849 462.209 400.647 461.849 400.334 461.602C400.021 461.356 399.625 461.246 399.227 461.292L345.518 467.751C344.696 467.85 344.109 468.597 344.208 469.419C344.307 470.242 345.055 470.833 345.877 470.729L398.093 464.45L401.299 491.512C401.389 492.274 402.037 492.835 402.786 492.835V492.835Z" fill="white"/>
<path d="M126.217 520.413C141.681 520.413 154.217 507.877 154.217 492.413C154.217 476.949 141.681 464.413 126.217 464.413C110.753 464.413 98.2168 476.949 98.2168 492.413C98.2168 507.877 110.753 520.413 126.217 520.413Z" fill="#6C63FF"/>
<path d="M113.496 488.046L122.495 503.873C123.031 504.815 124.568 504.883 125.086 503.873C128.6 497.009 133.565 490.933 139.684 486.224C140.331 485.726 140.659 484.939 140.222 484.172C139.86 483.536 138.81 483.14 138.17 483.633C131.634 488.663 126.259 495.01 122.495 502.359H125.086L116.086 486.532C115.132 484.854 112.539 486.364 113.496 488.046L113.496 488.046Z" fill="white"/>
</g>
<defs>
<clipPath id="clip0_127_157">
<rect width="770.936" height="732.5" fill="white"/>
</clipPath>
</defs>
</svg>
