<svg width="621" height="436" viewBox="0 0 621 436" fill="none" xmlns="http://www.w3.org/2000/svg">
<g clip-path="url(#clip0_7_357)">
<path d="M440.791 319.781H106.374C103.394 319.777 100.537 318.652 98.4304 316.651C96.3234 314.65 95.1382 311.936 95.1348 309.106V50.4854C95.1382 47.6554 96.3234 44.9423 98.4304 42.9412C100.537 40.94 103.394 39.8144 106.374 39.8111H440.791C443.77 39.8144 446.627 40.94 448.734 42.9412C450.841 44.9423 452.026 47.6554 452.03 50.4854V309.106C452.026 311.936 450.841 314.65 448.734 316.651C446.627 318.652 443.77 319.777 440.791 319.781Z" fill="#E6E6E6"/>
<path d="M113.956 47.4089C111.086 47.412 108.334 48.4964 106.305 50.4241C104.275 52.3517 103.134 54.9653 103.13 57.6913V301.907C103.134 304.633 104.275 307.246 106.305 309.174C108.335 311.101 111.086 312.185 113.956 312.188H342.852C369.678 312.16 395.397 302.026 414.366 284.009C433.335 265.993 444.006 241.567 444.036 216.088V57.6913C444.033 54.9653 442.891 52.3517 440.862 50.4241C438.832 48.4964 436.08 47.4121 433.21 47.4089L113.956 47.4089Z" fill="#00007B"/>
<path d="M379.809 157.243H319.172C317.907 157.242 316.695 156.764 315.8 155.915C314.906 155.066 314.403 153.914 314.402 152.713V124.049C314.403 122.848 314.906 121.696 315.8 120.847C316.695 119.997 317.907 119.52 319.172 119.518H379.809C381.074 119.52 382.287 119.997 383.181 120.847C384.075 121.696 384.578 122.848 384.58 124.049C388.332 134.192 388.865 143.831 384.58 152.713C384.578 153.914 384.075 155.066 383.181 155.915C382.287 156.764 381.074 157.242 379.809 157.243V157.243Z" fill="#E6E6E6"/>
<path d="M372.626 154.473H321.108C320.033 154.472 319.003 154.066 318.243 153.345C317.484 152.623 317.056 151.645 317.055 150.624V126.271C317.056 125.25 317.484 124.272 318.243 123.55C319.003 122.829 320.033 122.423 321.108 122.422H372.626C373.7 122.423 374.73 122.829 375.49 123.55C376.25 124.272 376.677 125.25 376.679 126.271C380.155 134.944 380.715 143.151 376.679 150.624C376.677 151.645 376.25 152.623 375.49 153.345C374.73 154.066 373.7 154.472 372.626 154.473V154.473Z" fill="white"/>
<path d="M369.847 172.259H328.999C327.798 172.26 326.644 171.809 325.793 171.003C324.942 170.197 324.463 169.104 324.461 167.962C324.458 166.821 324.934 165.726 325.781 164.917C326.629 164.108 327.781 163.653 328.982 163.65H369.847C371.048 163.652 372.198 164.107 373.046 164.914C373.894 165.721 374.371 166.814 374.371 167.954C374.371 169.094 373.894 170.188 373.046 170.995C372.198 171.802 371.048 172.256 369.847 172.259V172.259Z" fill="#E6E6E6"/>
<path d="M342.383 128.998C341.913 128.999 341.463 129.177 341.131 129.493C340.799 129.809 340.612 130.237 340.611 130.683V148.928C340.611 149.222 340.692 149.512 340.847 149.767C341.002 150.023 341.224 150.235 341.492 150.383C341.761 150.531 342.065 150.609 342.375 150.611C342.686 150.612 342.991 150.536 343.26 150.39L360.216 141.207C360.488 141.06 360.715 140.847 360.872 140.589C361.029 140.331 361.111 140.039 361.111 139.741C361.11 139.443 361.026 139.151 360.867 138.894C360.708 138.637 360.48 138.425 360.207 138.279L343.252 129.216C342.987 129.073 342.688 128.998 342.383 128.998V128.998Z" fill="#E6E6E6"/>
<path d="M589.753 401.093C588.818 399.964 587.548 399.126 586.107 398.689C584.666 398.251 583.12 398.234 581.668 398.639L581.351 398.728L578.504 409.285C578.077 407.711 577.165 404.16 576.589 400.683L576.54 400.396L576.257 400.514C573.281 401.763 570.483 403.365 567.93 405.281C563.406 408.727 559.727 413.067 557.148 418C554.569 422.933 553.152 428.341 552.996 433.846L552.991 434.049L552.986 434.176L553.363 434.049L561.452 431.302C565.034 431.602 568.64 431.139 572.009 429.945C575.378 428.752 578.424 426.86 580.924 424.406C584.193 421.132 586.435 416.921 588.602 412.846C589.237 411.659 589.887 410.434 590.551 409.257C591.293 407.976 591.613 406.514 591.471 405.058C591.328 403.603 590.73 402.222 589.753 401.093V401.093Z" fill="#F2F2F2"/>
<path d="M383.171 131.887C383.333 132.686 383.678 133.442 384.181 134.1C384.684 134.759 385.333 135.305 386.082 135.7C386.832 136.095 387.663 136.329 388.518 136.386C389.373 136.442 390.23 136.32 391.03 136.028L415.207 162.74L418.268 152.879L394.299 128.441C393.693 127.197 392.628 126.208 391.305 125.66C389.983 125.112 388.495 125.044 387.123 125.469C385.751 125.894 384.591 126.782 383.863 127.965C383.134 129.148 382.888 130.543 383.171 131.887L383.171 131.887Z" fill="#FFB8B8"/>
<path d="M480.609 427.663H472.608L468.802 398.352H480.611L480.609 427.663Z" fill="#FFB6B6"/>
<path d="M480.395 425.181L471.853 421.881L471.608 421.785L466.892 425.181C464.228 425.181 461.675 426.186 459.791 427.975C457.908 429.763 456.85 432.189 456.85 434.718V435.028H482.647V425.181H480.395Z" fill="#2F2E41"/>
<path d="M537.685 427.663H529.684L525.878 398.352H537.687L537.685 427.663Z" fill="#FFB6B6"/>
<path d="M537.472 425.181L528.929 421.881L528.685 421.785L523.968 425.181C521.305 425.181 518.751 426.186 516.868 427.975C514.985 429.763 513.927 432.189 513.926 434.718V435.028H539.724V425.181H537.472Z" fill="#2F2E41"/>
<path d="M518.802 252.634C518.802 252.634 528.837 262.549 528.837 270.697C528.837 278.844 526.328 290.031 528.837 292.48C531.346 294.928 534.482 297.907 530.719 301.481C526.956 305.055 525.074 306.842 527.583 309.225C530.092 311.608 528.837 353.307 528.837 353.307L542.009 409.302H525.415L504.376 353.307L498.731 306.842L480.475 351.52L482.491 409.783L465.143 409.302L457.962 347.35C457.962 347.35 468.625 288.418 466.743 286.907C464.862 285.397 466.743 282.348 466.743 282.348L471.761 259.782L518.802 252.634Z" fill="#2F2E41"/>
<path d="M499.153 182.329C499.153 182.329 502.566 169.559 486.845 165.897C471.125 162.236 426.187 157.532 426.187 157.532L403.477 134.644L395.781 145.258L421.24 175.305L481.563 187.073L499.153 182.329Z" fill="#FF7300"/>
<path d="M399.522 144.476C400.227 143.608 400.779 142.637 401.156 141.601L404.413 134L403.567 133.967C402.397 133.758 401.194 133.786 400.036 134.049C398.879 134.313 397.793 134.805 396.85 135.495C395.907 136.185 395.128 137.056 394.564 138.052C394 139.048 393.664 140.146 393.578 141.273C393.472 142.249 393.656 143.233 394.11 144.114C394.342 144.55 394.679 144.928 395.094 145.217C395.509 145.506 395.99 145.698 396.498 145.777C397.075 145.806 397.651 145.703 398.177 145.477C398.703 145.25 399.164 144.907 399.522 144.476V144.476Z" fill="#E6E6E6"/>
<path d="M468.558 262.825L466.677 275.78C466.677 275.78 470.44 279.618 472.321 279.139C474.203 278.659 481.102 275.866 481.102 275.866C481.102 275.866 489.256 280.098 493.647 280.578C498.037 281.058 521.244 278.179 521.871 276.74C522.498 275.3 529.788 269.666 529.788 269.666L526.889 253.229L468.558 262.825Z" fill="#E6E6E6"/>
<path d="M529.668 217.505C529.668 217.505 528.074 229.997 529.329 231.147C530.583 232.29 528.074 239.528 525.566 244.294C523.057 249.059 527.447 249.655 527.447 253.229C527.447 256.803 529.329 269.909 529.329 269.909C529.329 269.909 509.885 271.1 506.749 268.122C503.613 265.143 498.595 267.526 491.696 274.079C484.797 280.631 469.813 275.27 466.677 272.292C463.541 269.313 469.116 258.59 470.998 256.512C472.88 254.433 469.185 256.839 467.304 250.251C465.422 243.662 469.116 244.294 472.253 241.315C475.389 238.337 472.253 232.975 469.744 227.614C467.235 222.253 469.116 182.341 469.116 172.81C469.116 163.279 482.915 162.087 482.915 162.087L488.378 155.564L492.392 150.769L500.258 150.471L500.464 150.465L508.073 150.173L511.767 154.26L519.921 163.279L529.329 165.066C536.855 167.449 534.974 182.341 534.974 182.341L529.668 217.505Z" fill="#FF7300"/>
<path d="M499.869 147.887C508.774 147.887 515.992 141.031 515.992 132.574C515.992 124.117 508.774 117.262 499.869 117.262C490.965 117.262 483.747 124.117 483.747 132.574C483.747 141.031 490.965 147.887 499.869 147.887Z" fill="#FFB6B6"/>
<path d="M518.563 127.423C514.129 124.84 514.697 118.087 510.424 115.728C508.301 114.566 505.913 113.908 503.464 113.81C501.014 113.712 498.577 114.178 496.358 115.167C493.349 113.945 489.743 114.92 487.336 117.129C484.928 119.337 483.625 122.594 483.24 125.87C482.963 129.162 483.212 132.474 483.979 135.695C484.218 134.401 484.457 133.107 484.696 131.813L497.406 129.174C496.281 130.135 495.156 131.095 494.031 132.055C499.787 133.3 505.827 132.402 510.908 129.548C516.441 131.904 515.438 137.195 510.581 144.216C512.463 147.195 523.616 130.366 518.563 127.423Z" fill="#2F2E41"/>
<path d="M511.767 154.26C511.731 154.288 511.693 154.313 511.654 154.337C510.325 155.09 508.804 155.481 507.257 155.469C505.233 155.63 503.222 155.031 501.656 153.801C500.835 153.062 497.567 154.623 495.422 155.487C493.172 156.373 490.649 156.4 488.378 155.564L492.392 150.769L499.008 149.376H500.66L508.073 150.173L511.767 154.26Z" fill="#E6E6E6"/>
<path d="M351.304 122.12H349.652V9.92291H414.611V11.4916H351.304V122.12Z" fill="#3F3D56"/>
<path d="M465.13 0H421.36C418.513 0 415.782 1.07429 413.769 2.98654C411.755 4.89878 410.624 7.49234 410.624 10.1967C410.624 12.901 411.755 15.4946 413.769 17.4068C415.782 19.319 418.513 20.3933 421.36 20.3933H465.13C467.978 20.3933 470.708 19.319 472.722 17.4068C474.735 15.4946 475.866 12.901 475.866 10.1967C475.866 7.49234 474.735 4.89878 472.722 2.98654C470.708 1.07429 467.978 0 465.13 0V0Z" fill="#00007B"/>
<path d="M349.519 132.384C354.968 132.384 359.385 128.189 359.385 123.014C359.385 117.84 354.968 113.645 349.519 113.645C344.071 113.645 339.654 117.84 339.654 123.014C339.654 128.189 344.071 132.384 349.519 132.384Z" fill="#FF7300"/>
<path d="M230.637 158.223L273.917 148.711L286.34 145.98C287.894 145.639 287.248 143.366 285.694 143.708L242.414 153.22L229.991 155.951C228.437 156.292 229.083 158.564 230.637 158.223H230.637Z" fill="#F2F2F2"/>
<path d="M275.329 133.451L298.498 143.573C299.289 143.833 300.03 144.214 300.691 144.7C301.33 145.295 300.865 145.868 300.343 146.386C298.784 147.769 297.137 149.06 295.411 150.252L285.54 157.874C284.301 158.83 286.05 160.5 287.277 159.552L295.875 152.914L300.173 149.595C301.391 148.654 302.873 147.695 303.363 146.196C304.391 143.049 300.333 141.798 298.078 140.813L287.988 136.404L276.591 131.425C275.154 130.797 273.882 132.818 275.329 133.451V133.451Z" fill="#F2F2F2"/>
<path d="M208.396 155.791H156.478C154.068 155.789 151.757 154.878 150.053 153.259C148.349 151.641 147.39 149.446 147.387 147.157V114.659C147.39 112.37 148.349 110.176 150.053 108.557C151.757 106.938 154.068 106.028 156.478 106.025H208.396C210.807 106.028 213.117 106.938 214.822 108.557C216.526 110.176 217.484 112.37 217.487 114.659V147.157C217.484 149.446 216.526 151.641 214.822 153.259C213.117 154.878 210.807 155.789 208.396 155.791V155.791Z" fill="#E6E6E6"/>
<path d="M202.691 154.04H157.506C155.408 154.038 153.397 153.246 151.914 151.837C150.431 150.428 149.596 148.518 149.594 146.526V118.243C149.596 116.25 150.431 114.34 151.914 112.932C153.397 111.523 155.408 110.731 157.506 110.728H202.691C204.789 110.731 206.8 111.523 208.283 112.932C209.766 114.34 210.601 116.25 210.603 118.243V146.526C210.601 148.518 209.766 150.428 208.283 151.837C206.8 153.246 204.789 154.038 202.691 154.04V154.04Z" fill="white"/>
<path d="M215.709 185.07H149.091C148.679 185.069 148.285 184.913 147.994 184.636C147.704 184.36 147.54 183.985 147.54 183.594C147.54 183.203 147.704 182.828 147.994 182.551C148.285 182.274 148.679 182.118 149.091 182.117H215.709C216.121 182.118 216.515 182.274 216.806 182.551C217.097 182.828 217.26 183.203 217.26 183.594C217.26 183.985 217.097 184.36 216.806 184.636C216.515 184.913 216.121 185.069 215.709 185.07V185.07Z" fill="#E6E6E6"/>
<path d="M215.709 176.634H149.091C148.679 176.633 148.285 176.477 147.994 176.2C147.704 175.924 147.54 175.549 147.54 175.158C147.54 174.767 147.704 174.392 147.994 174.115C148.285 173.838 148.679 173.682 149.091 173.681H215.709C216.121 173.682 216.515 173.838 216.806 174.115C217.097 174.392 217.26 174.767 217.26 175.158C217.26 175.549 217.097 175.924 216.806 176.2C216.515 176.477 216.121 176.633 215.709 176.634V176.634Z" fill="#E6E6E6"/>
<path d="M215.709 193.506H149.091C148.679 193.506 148.284 193.351 147.992 193.074C147.701 192.797 147.537 192.421 147.537 192.03C147.537 191.638 147.701 191.263 147.992 190.986C148.284 190.709 148.679 190.553 149.091 190.553H215.709C216.121 190.553 216.517 190.709 216.808 190.986C217.1 191.263 217.264 191.638 217.264 192.03C217.264 192.421 217.1 192.797 216.808 193.074C216.517 193.351 216.121 193.506 215.709 193.506Z" fill="#E6E6E6"/>
<path d="M215.709 201.942H149.091C148.679 201.942 148.284 201.787 147.992 201.51C147.701 201.233 147.537 200.857 147.537 200.466C147.537 200.074 147.701 199.699 147.992 199.422C148.284 199.145 148.679 198.99 149.091 198.99H215.709C216.121 198.99 216.517 199.145 216.808 199.422C217.1 199.699 217.264 200.074 217.264 200.466C217.264 200.857 217.1 201.233 216.808 201.51C216.517 201.787 216.121 201.942 215.709 201.942V201.942Z" fill="#E6E6E6"/>
<path d="M215.709 210.378H149.091C148.679 210.378 148.284 210.223 147.992 209.946C147.701 209.669 147.537 209.294 147.537 208.902C147.537 208.51 147.701 208.135 147.992 207.858C148.284 207.581 148.679 207.426 149.091 207.426H215.709C216.121 207.426 216.517 207.581 216.808 207.858C217.1 208.135 217.264 208.51 217.264 208.902C217.264 209.294 217.1 209.669 216.808 209.946C216.517 210.223 216.121 210.378 215.709 210.378Z" fill="#E6E6E6"/>
<path d="M215.709 218.814H149.091C148.679 218.814 148.285 218.658 147.994 218.381C147.704 218.104 147.54 217.729 147.54 217.338C147.54 216.947 147.704 216.572 147.994 216.295C148.285 216.019 148.679 215.863 149.091 215.862H215.709C216.121 215.863 216.515 216.019 216.806 216.295C217.097 216.572 217.26 216.947 217.26 217.338C217.26 217.729 217.097 218.104 216.806 218.381C216.515 218.658 216.121 218.814 215.709 218.814V218.814Z" fill="#E6E6E6"/>
<path d="M179.069 199.467H180.721V259.896H61.2559V258.328H179.069V199.467Z" fill="#3F3D56"/>
<path d="M10.7361 269.819H54.5063C57.3536 269.819 60.0844 268.745 62.0978 266.833C64.1112 264.921 65.2423 262.327 65.2423 259.623C65.2423 256.918 64.1112 254.325 62.0978 252.413C60.0844 250.5 57.3536 249.426 54.5063 249.426H10.7361C7.88869 249.426 5.15793 250.5 3.14453 252.413C1.13112 254.325 0 256.918 0 259.623C0 262.327 1.13112 264.921 3.14453 266.833C5.15793 268.745 7.88869 269.819 10.7361 269.819Z" fill="#00007B"/>
<path d="M181.045 204.021C186.494 204.021 190.911 199.826 190.911 194.651C190.911 189.476 186.494 185.281 181.045 185.281C175.597 185.281 171.18 189.476 171.18 194.651C171.18 199.826 175.597 204.021 181.045 204.021Z" fill="#FF7300"/>
<path d="M232.038 197.255C246.522 200.178 242.838 200.749 257.322 203.673L269.795 206.19C271.355 206.505 271.782 204.187 270.221 203.872C255.737 200.948 259.421 200.378 244.937 197.454L232.464 194.936C230.904 194.621 230.477 196.939 232.038 197.255H232.038Z" fill="#F2F2F2"/>
<path d="M265.399 190.413L281.884 208.895C282.484 209.448 282.986 210.09 283.368 210.797C283.683 211.593 283.006 211.924 282.302 212.184C280.273 212.811 278.206 213.319 276.112 213.706L263.772 216.646C262.223 217.015 263.064 219.23 264.598 218.864L275.346 216.304L280.719 215.024C282.241 214.661 284.012 214.387 285.123 213.226C287.456 210.788 284.337 208.023 282.733 206.224L275.554 198.176L267.445 189.084C266.422 187.938 264.369 189.258 265.399 190.413V190.413Z" fill="#F2F2F2"/>
<path d="M317.666 270.976C330.337 270.976 340.608 261.221 340.608 249.187C340.608 237.153 330.337 227.397 317.666 227.397C304.995 227.397 294.724 237.153 294.724 249.187C294.724 261.221 304.995 270.976 317.666 270.976Z" fill="#E6E6E6"/>
<path d="M315.43 268.198C325.063 268.198 332.871 260.782 332.871 251.633C332.871 242.484 325.063 235.068 315.43 235.068C305.797 235.068 297.989 242.484 297.989 251.633C297.989 260.782 305.797 268.198 315.43 268.198Z" fill="white"/>
<path d="M312.301 262.974C311.904 262.974 311.514 262.886 311.159 262.718C310.805 262.55 310.497 262.305 310.259 262.004L304 254.078C303.799 253.823 303.652 253.534 303.569 253.225C303.486 252.917 303.467 252.596 303.514 252.281C303.562 251.966 303.674 251.663 303.844 251.389C304.015 251.115 304.241 250.876 304.509 250.684C304.777 250.493 305.082 250.354 305.406 250.275C305.731 250.196 306.069 250.178 306.401 250.223C306.732 250.268 307.052 250.375 307.34 250.537C307.629 250.699 307.881 250.913 308.082 251.168L308.083 251.17L312.178 256.355L322.695 241.372C322.881 241.107 323.12 240.879 323.398 240.701C323.677 240.524 323.99 240.4 324.318 240.337C324.647 240.275 324.986 240.274 325.315 240.336C325.644 240.398 325.957 240.52 326.236 240.697C326.515 240.874 326.755 241.101 326.941 241.366C327.128 241.63 327.258 241.928 327.323 242.24C327.389 242.552 327.389 242.874 327.324 243.186C327.258 243.499 327.128 243.796 326.942 244.061L314.424 261.894C314.198 262.217 313.893 262.483 313.536 262.671C313.179 262.859 312.78 262.962 312.372 262.973C312.348 262.973 312.324 262.974 312.301 262.974Z" fill="#E6E6E6"/>
<path d="M531.891 271.633C532.629 271.221 533.264 270.66 533.749 269.989C534.235 269.318 534.56 268.555 534.701 267.752C534.842 266.949 534.797 266.127 534.567 265.343C534.337 264.559 533.929 263.832 533.372 263.214L551.793 232.641L540.985 233.199L524.75 262.825C523.719 263.783 523.093 265.068 522.992 266.434C522.891 267.801 523.321 269.156 524.201 270.242C525.082 271.327 526.35 272.069 527.768 272.325C529.185 272.582 530.652 272.336 531.891 271.633H531.891Z" fill="#FFB8B8"/>
<path d="M511.142 164.47C511.142 164.47 530.652 158.513 535.67 172.81C540.687 187.107 557.556 225.827 557.556 225.827L539.433 260.973L531.279 252.634L539.994 228.21L514.905 192.468L511.142 164.47Z" fill="#FF7300"/>
<path d="M540.055 257.384C539.467 256.44 538.722 255.594 537.849 254.877L531.624 249.187L531.278 249.92C530.639 250.874 530.221 251.946 530.049 253.065C529.878 254.184 529.957 255.324 530.282 256.412C530.607 257.5 531.171 258.51 531.935 259.376C532.7 260.243 533.649 260.946 534.72 261.44C535.634 261.895 536.665 262.098 537.694 262.023C538.207 261.981 538.702 261.824 539.138 261.565C539.575 261.306 539.941 260.952 540.206 260.533C540.448 260.035 540.561 259.489 540.535 258.941C540.508 258.393 540.344 257.859 540.055 257.384V257.384Z" fill="#E6E6E6"/>
<path d="M317.467 278.501H315.816V338.93H371.69V337.361H317.467V278.501Z" fill="#3F3D56"/>
<path d="M432.946 338.656C432.943 335.953 431.811 333.361 429.799 331.449C427.786 329.537 425.057 328.462 422.21 328.46H378.44C375.593 328.46 372.862 329.534 370.848 331.446C368.835 333.358 367.704 335.952 367.704 338.656C367.704 341.361 368.835 343.954 370.848 345.866C372.862 347.779 375.593 348.853 378.44 348.853H422.21C425.057 348.85 427.786 347.775 429.799 345.864C431.811 343.952 432.943 341.36 432.946 338.656Z" fill="#00007B"/>
<path d="M315.491 283.054C320.94 283.054 325.357 278.859 325.357 273.684C325.357 268.51 320.94 264.315 315.491 264.315C310.043 264.315 305.626 268.51 305.626 273.684C305.626 278.859 310.043 283.054 315.491 283.054Z" fill="#FF7300"/>
</g>
<defs>
<clipPath id="clip0_7_357">
<rect width="621" height="436" fill="white"/>
</clipPath>
</defs>
</svg>
