<svg width="2187" height="1398" viewBox="0 0 2187 1398" fill="none" xmlns="http://www.w3.org/2000/svg">
<g clip-path="url(#clip0_7_357)">
<path d="M1552.35 1025.35H374.62C364.127 1025.34 354.066 1021.73 346.646 1015.32C339.226 1008.9 335.052 1000.2 335.04 991.126V161.878C335.052 152.803 339.226 144.104 346.646 137.687C354.066 131.271 364.127 127.662 374.62 127.651H1552.35C1562.84 127.662 1572.9 131.271 1580.32 137.687C1587.74 144.104 1591.92 152.803 1591.93 161.878V991.126C1591.92 1000.2 1587.74 1008.9 1580.32 1015.32C1572.9 1021.73 1562.84 1025.34 1552.35 1025.35Z" fill="#E6E6E6"/>
<path d="M401.325 152.013C391.216 152.023 381.525 155.5 374.378 161.681C367.23 167.862 363.21 176.242 363.198 184.983V968.04C363.21 976.781 367.231 985.161 374.378 991.341C381.526 997.521 391.217 1001 401.325 1001.01H1207.43C1301.91 1000.92 1392.49 968.421 1459.29 910.654C1526.09 852.887 1563.67 774.564 1563.78 692.869V184.983C1563.77 176.242 1559.75 167.862 1552.6 161.681C1545.45 155.5 1535.76 152.023 1525.65 152.013L401.325 152.013Z" fill="#00007B"/>
<path d="M1337.59 504.189H1124.04C1119.59 504.184 1115.32 502.653 1112.17 499.929C1109.02 497.206 1107.25 493.514 1107.24 489.662V397.753C1107.25 393.901 1109.02 390.209 1112.17 387.486C1115.32 384.762 1119.59 383.23 1124.04 383.226H1337.59C1342.04 383.23 1346.31 384.762 1349.46 387.486C1352.61 390.209 1354.38 393.901 1354.39 397.753C1367.6 430.277 1369.48 461.182 1354.39 489.662C1354.38 493.514 1352.61 497.206 1349.46 499.929C1346.31 502.653 1342.04 504.184 1337.59 504.189V504.189Z" fill="#E6E6E6"/>
<path d="M1312.29 495.306H1130.86C1127.07 495.303 1123.45 494.001 1120.77 491.687C1118.09 489.373 1116.59 486.236 1116.59 482.964V404.878C1116.59 401.606 1118.09 398.468 1120.77 396.155C1123.45 393.841 1127.07 392.54 1130.86 392.536H1312.29C1316.07 392.54 1319.7 393.841 1322.38 396.155C1325.05 398.468 1326.56 401.606 1326.56 404.878C1338.81 432.687 1340.78 459.003 1326.56 482.964C1326.56 486.236 1325.05 489.373 1322.38 491.687C1319.7 494.001 1316.07 495.303 1312.29 495.306V495.306Z" fill="white"/>
<path d="M1302.51 552.334H1158.65C1154.42 552.339 1150.36 550.891 1147.36 548.307C1144.36 545.724 1142.67 542.217 1142.67 538.558C1142.66 534.899 1144.33 531.386 1147.32 528.794C1150.3 526.201 1154.36 524.739 1158.59 524.731H1302.51C1306.73 524.738 1310.79 526.195 1313.77 528.783C1316.76 531.37 1318.44 534.877 1318.44 538.532C1318.44 542.188 1316.76 545.695 1313.77 548.282C1310.79 550.87 1306.73 552.327 1302.51 552.334V552.334Z" fill="#E6E6E6"/>
<path d="M1205.78 413.621C1204.13 413.626 1202.54 414.197 1201.37 415.21C1200.2 416.222 1199.55 417.594 1199.54 419.025V477.525C1199.54 478.47 1199.83 479.398 1200.37 480.217C1200.92 481.036 1201.7 481.716 1202.65 482.191C1203.59 482.666 1204.66 482.917 1205.76 482.921C1206.85 482.925 1207.92 482.681 1208.87 482.213L1268.58 452.771C1269.54 452.298 1270.34 451.614 1270.9 450.788C1271.45 449.962 1271.74 449.023 1271.74 448.069C1271.73 447.114 1271.44 446.177 1270.88 445.353C1270.32 444.53 1269.52 443.849 1268.56 443.382L1208.85 414.321C1207.91 413.863 1206.86 413.622 1205.78 413.621V413.621Z" fill="#E6E6E6"/>
<path d="M2076.96 1286.07C2073.66 1282.45 2069.19 1279.77 2064.11 1278.36C2059.04 1276.96 2053.6 1276.91 2048.48 1278.2L2047.37 1278.49L2037.34 1312.34C2035.84 1307.29 2032.62 1295.91 2030.6 1284.76L2030.42 1283.84L2029.43 1284.22C2018.95 1288.22 2009.09 1293.36 2000.1 1299.5C1984.17 1310.55 1971.21 1324.47 1962.13 1340.29C1953.05 1356.1 1948.06 1373.44 1947.51 1391.09L1947.49 1391.74L1947.47 1392.15L1948.8 1391.74L1977.29 1382.94C1989.9 1383.9 2002.6 1382.41 2014.47 1378.59C2026.33 1374.76 2037.06 1368.69 2045.86 1360.82C2057.37 1350.33 2065.27 1336.82 2072.9 1323.76C2075.14 1319.95 2077.43 1316.03 2079.77 1312.25C2082.38 1308.14 2083.51 1303.45 2083.01 1298.79C2082.5 1294.12 2080.4 1289.69 2076.96 1286.07V1286.07Z" fill="#F2F2F2"/>
<path d="M1349.43 422.885C1350 425.447 1351.21 427.87 1352.99 429.983C1354.76 432.095 1357.04 433.846 1359.68 435.112C1362.32 436.378 1365.25 437.129 1368.26 437.31C1371.27 437.492 1374.29 437.101 1377.11 436.164L1462.25 521.814L1473.03 490.196L1388.62 411.835C1386.48 407.848 1382.73 404.675 1378.08 402.919C1373.42 401.163 1368.18 400.945 1363.35 402.307C1358.52 403.669 1354.43 406.516 1351.86 410.309C1349.3 414.102 1348.43 418.576 1349.43 422.885L1349.43 422.885Z" fill="#FFB8B8"/>
<path d="M1692.58 1371.27H1664.4L1651 1277.29H1692.58L1692.58 1371.27Z" fill="#FFB6B6"/>
<path d="M1691.83 1363.31L1661.74 1352.73L1660.88 1352.42L1644.27 1363.31C1634.89 1363.31 1625.9 1366.53 1619.27 1372.27C1612.63 1378 1608.91 1385.78 1608.91 1393.89V1394.88H1699.76V1363.31H1691.83Z" fill="#2F2E41"/>
<path d="M1893.59 1371.27H1865.41L1852 1277.29H1893.59L1893.59 1371.27Z" fill="#FFB6B6"/>
<path d="M1892.84 1363.31L1862.75 1352.73L1861.89 1352.42L1845.28 1363.31C1835.9 1363.31 1826.91 1366.53 1820.27 1372.27C1813.64 1378 1809.92 1385.78 1809.91 1393.89V1394.88H1900.77V1363.31H1892.84Z" fill="#2F2E41"/>
<path d="M1827.08 810.05C1827.08 810.05 1862.43 841.844 1862.43 867.968C1862.43 894.092 1853.59 929.963 1862.43 937.813C1871.26 945.664 1882.31 955.215 1869.05 966.675C1855.8 978.135 1849.17 983.865 1858.01 991.506C1866.84 999.146 1862.43 1132.85 1862.43 1132.85L1908.81 1312.4H1850.37L1776.28 1132.85L1756.4 983.865L1692.11 1127.12L1699.21 1313.94L1638.11 1312.4L1612.82 1113.75C1612.82 1113.75 1650.37 924.789 1643.75 919.946C1637.12 915.103 1643.75 905.327 1643.75 905.327L1661.42 832.97L1827.08 810.05Z" fill="#2F2E41"/>
<path d="M1757.89 584.624C1757.89 584.624 1769.91 543.676 1714.54 531.936C1659.18 520.196 1500.92 505.113 1500.92 505.113L1420.94 431.726L1393.84 465.759L1483.5 562.103L1695.94 599.836L1757.89 584.624Z" fill="#FF7300"/>
<path d="M1407.01 463.25C1409.49 460.468 1411.44 457.354 1412.77 454.032L1424.24 429.661L1421.26 429.553C1417.14 428.883 1412.9 428.973 1408.82 429.818C1404.75 430.663 1400.92 432.243 1397.6 434.455C1394.28 436.667 1391.54 439.461 1389.55 442.654C1387.56 445.847 1386.38 449.366 1386.08 452.982C1385.7 456.11 1386.35 459.265 1387.95 462.089C1388.77 463.489 1389.96 464.701 1391.42 465.628C1392.88 466.555 1394.57 467.169 1396.36 467.421C1398.39 467.515 1400.42 467.185 1402.27 466.459C1404.13 465.733 1405.75 464.633 1407.01 463.25V463.25Z" fill="#E6E6E6"/>
<path d="M1650.14 842.729L1643.51 884.267C1643.51 884.267 1656.77 896.575 1663.39 895.036C1670.02 893.498 1694.32 884.542 1694.32 884.542C1694.32 884.542 1723.03 898.113 1738.49 899.652C1753.96 901.19 1835.69 891.959 1837.89 887.344C1840.1 882.729 1865.78 864.662 1865.78 864.662L1855.57 811.96L1650.14 842.729Z" fill="#E6E6E6"/>
<path d="M1865.35 697.413C1865.35 697.413 1859.74 737.467 1864.16 741.154C1868.58 744.821 1859.74 768.028 1850.9 783.309C1842.07 798.589 1857.53 800.499 1857.53 811.96C1857.53 823.42 1864.16 865.442 1864.16 865.442C1864.16 865.442 1795.68 869.262 1784.64 859.711C1773.59 850.161 1755.92 857.801 1731.63 878.812C1707.33 899.823 1654.56 882.632 1643.51 873.082C1632.47 863.531 1652.11 829.15 1658.73 822.484C1665.36 815.818 1652.35 823.535 1645.72 802.409C1639.09 781.284 1652.11 783.309 1663.15 773.758C1674.19 764.208 1663.15 747.018 1654.31 729.827C1645.48 712.637 1652.11 584.662 1652.11 554.101C1652.11 523.54 1700.7 519.72 1700.7 519.72L1719.94 498.805L1734.08 483.429L1761.78 482.474L1762.5 482.455L1789.3 481.519L1802.31 494.622L1831.02 523.54L1864.16 529.271C1890.66 536.911 1884.04 584.662 1884.04 584.662L1865.35 697.413Z" fill="#FF7300"/>
<path d="M1760.41 474.188C1791.77 474.188 1817.19 452.206 1817.19 425.09C1817.19 397.973 1791.77 375.991 1760.41 375.991C1729.05 375.991 1703.63 397.973 1703.63 425.09C1703.63 452.206 1729.05 474.188 1760.41 474.188Z" fill="#FFB6B6"/>
<path d="M1826.24 408.573C1810.63 400.291 1812.63 378.636 1797.58 371.074C1790.1 367.346 1781.69 365.236 1773.07 364.922C1764.44 364.609 1755.86 366.102 1748.04 369.275C1737.45 365.354 1724.75 368.483 1716.27 375.563C1707.79 382.644 1703.2 393.089 1701.85 403.593C1700.87 414.147 1701.75 424.768 1704.45 435.095C1705.29 430.946 1706.13 426.797 1706.97 422.647L1751.73 414.188C1747.77 417.266 1743.81 420.345 1739.85 423.424C1760.12 427.415 1781.39 424.538 1799.29 415.386C1818.77 422.94 1815.24 439.904 1798.13 462.419C1804.76 471.969 1844.04 418.01 1826.24 408.573Z" fill="#2F2E41"/>
<path d="M1802.31 494.622C1802.18 494.711 1802.05 494.794 1801.91 494.87C1797.23 497.284 1791.88 498.539 1786.43 498.499C1779.3 499.014 1772.22 497.094 1766.7 493.151C1763.81 490.783 1752.3 495.787 1744.75 498.557C1736.82 501.396 1727.94 501.485 1719.94 498.805L1734.08 483.429L1757.38 478.962H1763.19L1789.3 481.519L1802.31 494.622Z" fill="#E6E6E6"/>
<path d="M2183.56 1397.23L1393.19 1398C1392.73 1398 1392.28 1397.93 1391.86 1397.78C1391.44 1397.63 1391.06 1397.41 1390.73 1397.13C1390.41 1396.86 1390.15 1396.53 1389.98 1396.17C1389.8 1395.8 1389.71 1395.41 1389.71 1395.02C1389.7 1394.63 1389.79 1394.24 1389.96 1393.87C1390.14 1393.51 1390.39 1393.18 1390.71 1392.9C1391.03 1392.62 1391.41 1392.4 1391.83 1392.24C1392.25 1392.09 1392.7 1392.01 1393.15 1392.01H1393.19L2183.56 1391.24C2184.47 1391.24 2185.35 1391.56 2185.99 1392.12C2186.64 1392.68 2187 1393.44 2187 1394.23C2187 1395.02 2186.64 1395.78 2185.99 1396.34C2185.35 1396.91 2184.47 1397.22 2183.56 1397.23V1397.23Z" fill="#CACACA"/>
<path d="M1237.2 391.568H1231.38V31.8171H1460.15V36.847H1237.2V391.568Z" fill="#3F3D56"/>
<path d="M1638.07 0H1483.92C1473.89 0 1464.28 3.44463 1457.19 9.5761C1450.09 15.7076 1446.11 24.0236 1446.11 32.6948C1446.11 41.366 1450.09 49.6821 1457.19 55.8135C1464.28 61.945 1473.89 65.3896 1483.92 65.3896H1638.07C1648.1 65.3896 1657.71 61.945 1664.8 55.8135C1671.89 49.6821 1675.88 41.366 1675.88 32.6948C1675.88 24.0236 1671.89 15.7076 1664.8 9.5761C1657.71 3.44463 1648.1 0 1638.07 0V0Z" fill="#00007B"/>
<path d="M1230.92 424.48C1250.1 424.48 1265.66 411.029 1265.66 394.436C1265.66 377.843 1250.1 364.392 1230.92 364.392C1211.73 364.392 1196.17 377.843 1196.17 394.436C1196.17 411.029 1211.73 424.48 1230.92 424.48Z" fill="#FF7300"/>
<path d="M812.244 507.328L964.664 476.829L1008.41 468.074C1013.89 466.979 1011.61 459.693 1006.14 460.789L853.718 491.289L809.968 500.043C804.496 501.138 806.769 508.424 812.244 507.328H812.244Z" fill="#F2F2F2"/>
<path d="M969.638 427.899L1051.23 460.356C1054.02 461.189 1056.63 462.41 1058.96 463.971C1061.21 465.878 1059.57 467.713 1057.73 469.375C1052.24 473.809 1046.44 477.949 1040.36 481.77L1005.6 506.209C1001.24 509.277 1007.39 514.63 1011.72 511.591L1041.99 490.306L1057.13 479.663C1061.42 476.648 1066.64 473.571 1068.37 468.768C1071.99 458.676 1057.7 454.664 1049.75 451.505L1014.22 437.37L974.081 421.403C969.021 419.391 964.54 425.871 969.638 427.899V427.899Z" fill="#F2F2F2"/>
<path d="M733.918 499.533H551.075C542.587 499.524 534.45 496.604 528.448 491.414C522.446 486.224 519.07 479.188 519.06 471.848V367.646C519.07 360.306 522.446 353.269 528.448 348.079C534.45 342.889 542.587 339.97 551.075 339.961H733.918C742.406 339.97 750.543 342.889 756.545 348.079C762.547 353.269 765.923 360.306 765.933 367.646V471.848C765.923 479.188 762.547 486.224 756.545 491.414C750.543 496.604 742.406 499.524 733.918 499.533V499.533Z" fill="#E6E6E6"/>
<path d="M713.825 493.919H554.695C547.307 493.911 540.225 491.37 535.002 486.853C529.778 482.336 526.84 476.212 526.831 469.824V379.135C526.84 372.748 529.778 366.624 535.002 362.107C540.225 357.59 547.307 355.049 554.695 355.041H713.825C721.212 355.049 728.295 357.59 733.518 362.107C738.742 366.624 741.68 372.748 741.689 379.135V469.825C741.68 476.212 738.742 482.336 733.518 486.853C728.295 491.37 721.212 493.911 713.825 493.919V493.919Z" fill="white"/>
<path d="M759.671 593.412H525.06C523.611 593.41 522.221 592.91 521.198 592.022C520.174 591.135 519.599 589.932 519.599 588.679C519.599 587.425 520.174 586.223 521.198 585.335C522.221 584.448 523.611 583.948 525.06 583.945H759.671C761.121 583.948 762.51 584.448 763.534 585.335C764.558 586.223 765.133 587.425 765.133 588.679C765.133 589.932 764.558 591.135 763.534 592.022C762.51 592.91 761.121 593.41 759.671 593.412V593.412Z" fill="#E6E6E6"/>
<path d="M759.671 566.363H525.06C523.611 566.36 522.221 565.86 521.198 564.972C520.174 564.085 519.599 562.883 519.599 561.629C519.599 560.375 520.174 559.173 521.198 558.286C522.221 557.398 523.611 556.898 525.06 556.895H759.671C761.121 556.898 762.51 557.398 763.534 558.286C764.558 559.173 765.133 560.375 765.133 561.629C765.133 562.883 764.558 564.085 763.534 564.972C762.51 565.86 761.121 566.36 759.671 566.363V566.363Z" fill="#E6E6E6"/>
<path d="M759.671 620.462H525.06C523.608 620.462 522.216 619.964 521.189 619.076C520.163 618.188 519.586 616.984 519.586 615.729C519.586 614.473 520.163 613.269 521.189 612.381C522.216 611.494 523.608 610.995 525.06 610.995H759.671C761.123 610.995 762.515 611.494 763.542 612.381C764.569 613.269 765.145 614.473 765.145 615.729C765.145 616.984 764.569 618.188 763.542 619.076C762.515 619.964 761.123 620.462 759.671 620.462Z" fill="#E6E6E6"/>
<path d="M759.671 647.512H525.06C523.608 647.512 522.216 647.013 521.189 646.125C520.163 645.238 519.586 644.034 519.586 642.778C519.586 641.523 520.163 640.319 521.189 639.431C522.216 638.543 523.608 638.044 525.06 638.044H759.671C761.123 638.044 762.515 638.543 763.542 639.431C764.569 640.319 765.145 641.523 765.145 642.778C765.145 644.034 764.569 645.238 763.542 646.125C762.515 647.013 761.123 647.512 759.671 647.512V647.512Z" fill="#E6E6E6"/>
<path d="M759.671 674.562H525.06C523.608 674.562 522.216 674.063 521.189 673.175C520.163 672.287 519.586 671.083 519.586 669.828C519.586 668.572 520.163 667.368 521.189 666.481C522.216 665.593 523.608 665.094 525.06 665.094H759.671C761.123 665.094 762.515 665.593 763.542 666.481C764.569 667.368 765.145 668.572 765.145 669.828C765.145 671.083 764.569 672.287 763.542 673.175C762.515 674.063 761.123 674.562 759.671 674.562Z" fill="#E6E6E6"/>
<path d="M759.671 701.611H525.06C523.611 701.609 522.221 701.109 521.198 700.221C520.174 699.334 519.599 698.131 519.599 696.878C519.599 695.624 520.174 694.422 521.198 693.534C522.221 692.647 523.611 692.147 525.06 692.144H759.671C761.121 692.147 762.51 692.647 763.534 693.534C764.558 694.422 765.133 695.624 765.133 696.878C765.133 698.131 764.558 699.334 763.534 700.221C762.51 701.109 761.121 701.609 759.671 701.611V701.611Z" fill="#E6E6E6"/>
<path d="M630.636 639.576H636.453V833.338H215.727V828.308H630.636V639.576Z" fill="#3F3D56"/>
<path d="M37.8097 865.155H191.957C201.985 865.155 211.602 861.71 218.692 855.579C225.783 849.447 229.766 841.131 229.766 832.46C229.766 823.789 225.783 815.473 218.692 809.341C211.602 803.21 201.985 799.765 191.957 799.765H37.8097C27.7819 799.765 18.1649 803.21 11.0742 809.341C3.98352 815.473 0 823.789 0 832.46C0 841.131 3.98352 849.447 11.0742 855.579C18.1649 861.71 27.7819 865.155 37.8097 865.155Z" fill="#00007B"/>
<path d="M637.595 654.176C656.784 654.176 672.339 640.725 672.339 624.133C672.339 607.54 656.784 594.089 637.595 594.089C618.406 594.089 602.851 607.54 602.851 624.133C602.851 640.725 618.406 654.176 637.595 654.176Z" fill="#FF7300"/>
<path d="M817.177 632.481C868.187 641.856 855.211 643.686 906.221 653.06L950.146 661.133C955.64 662.143 957.145 654.71 951.648 653.699C900.638 644.325 913.614 642.495 862.604 633.12L818.679 625.048C813.184 624.038 811.679 631.471 817.177 632.481H817.177Z" fill="#F2F2F2"/>
<path d="M934.666 610.545L992.721 669.804C994.836 671.577 996.602 673.638 997.949 675.904C999.056 678.456 996.673 679.519 994.194 680.352C987.049 682.362 979.768 683.991 972.393 685.23L928.937 694.657C923.482 695.841 926.443 702.944 931.847 701.772L969.695 693.561L988.619 689.456C993.981 688.293 1000.22 687.415 1004.13 683.693C1012.35 675.874 1001.36 667.01 995.711 661.243L970.429 635.436L941.87 606.284C938.27 602.61 931.039 606.842 934.666 610.545V610.545Z" fill="#F2F2F2"/>
<path d="M1118.74 868.864C1163.36 868.864 1199.53 837.583 1199.53 798.997C1199.53 760.411 1163.36 729.131 1118.74 729.131C1074.11 729.131 1037.94 760.411 1037.94 798.997C1037.94 837.583 1074.11 868.864 1118.74 868.864Z" fill="#E6E6E6"/>
<path d="M1110.86 859.956C1144.79 859.956 1172.29 836.176 1172.29 806.842C1172.29 777.507 1144.79 753.727 1110.86 753.727C1076.94 753.727 1049.44 777.507 1049.44 806.842C1049.44 836.176 1076.94 859.956 1110.86 859.956Z" fill="white"/>
<path d="M1099.84 843.205C1098.45 843.205 1097.07 842.924 1095.82 842.384C1094.57 841.845 1093.49 841.061 1092.65 840.095L1070.61 814.681C1069.9 813.865 1069.38 812.936 1069.09 811.948C1068.8 810.959 1068.73 809.93 1068.9 808.92C1069.07 807.909 1069.46 806.937 1070.06 806.059C1070.66 805.18 1071.46 804.413 1072.4 803.8C1073.34 803.187 1074.42 802.742 1075.56 802.488C1076.7 802.234 1077.89 802.177 1079.06 802.321C1080.23 802.465 1081.36 802.807 1082.37 803.326C1083.39 803.846 1084.28 804.533 1084.98 805.349L1084.99 805.356L1099.41 821.981L1136.45 773.94C1137.1 773.089 1137.94 772.359 1138.92 771.789C1139.91 771.22 1141.01 770.824 1142.16 770.623C1143.32 770.422 1144.52 770.42 1145.67 770.618C1146.83 770.816 1147.94 771.21 1148.92 771.776C1149.9 772.343 1150.75 773.071 1151.4 773.92C1152.06 774.769 1152.52 775.722 1152.75 776.723C1152.98 777.725 1152.98 778.757 1152.75 779.758C1152.52 780.76 1152.06 781.713 1151.4 782.562L1107.32 839.744C1106.52 840.778 1105.45 841.632 1104.19 842.234C1102.93 842.835 1101.53 843.168 1100.09 843.202C1100.01 843.203 1099.92 843.205 1099.84 843.205Z" fill="#E6E6E6"/>
<path d="M1873.18 870.971C1875.78 869.648 1878.02 867.849 1879.73 865.698C1881.44 863.548 1882.58 861.1 1883.08 858.526C1883.57 855.952 1883.41 853.315 1882.6 850.801C1881.8 848.287 1880.36 845.956 1878.4 843.974L1943.27 745.945L1905.21 747.734L1848.03 842.729C1844.4 845.801 1842.2 849.918 1841.84 854.301C1841.48 858.684 1843 863.027 1846.1 866.509C1849.2 869.99 1853.67 872.367 1858.66 873.189C1863.65 874.012 1868.82 873.223 1873.18 870.971H1873.18Z" fill="#FFB8B8"/>
<path d="M1800.11 527.361C1800.11 527.361 1868.82 508.26 1886.49 554.101C1904.16 599.943 1963.57 724.097 1963.57 724.097L1899.74 836.791L1871.03 810.05L1901.72 731.737L1813.36 617.133L1800.11 527.361Z" fill="#FF7300"/>
<path d="M1901.93 825.282C1899.86 822.256 1897.24 819.541 1894.16 817.243L1872.24 798.997L1871.02 801.349C1868.77 804.409 1867.3 807.846 1866.7 811.433C1866.09 815.02 1866.37 818.678 1867.52 822.165C1868.66 825.653 1870.64 828.891 1873.34 831.67C1876.03 834.448 1879.37 836.702 1883.14 838.286C1886.36 839.747 1889.99 840.396 1893.62 840.157C1895.42 840.021 1897.17 839.517 1898.7 838.687C1900.24 837.857 1901.53 836.724 1902.46 835.38C1903.32 833.783 1903.71 832.032 1903.62 830.275C1903.53 828.518 1902.95 826.805 1901.93 825.282V825.282Z" fill="#E6E6E6"/>
<path d="M1118.04 892.991H1112.22V1086.75H1309V1081.72H1118.04V892.991Z" fill="#3F3D56"/>
<path d="M1524.72 1085.88C1524.71 1077.21 1520.73 1068.9 1513.64 1062.77C1506.55 1056.64 1496.94 1053.19 1486.91 1053.18H1332.77C1322.74 1053.18 1313.12 1056.63 1306.03 1062.76C1298.94 1068.89 1294.96 1077.2 1294.96 1085.88C1294.96 1094.55 1298.94 1102.86 1306.03 1108.99C1313.12 1115.13 1322.74 1118.57 1332.77 1118.57H1486.91C1496.94 1118.56 1506.55 1115.11 1513.64 1108.98C1520.73 1102.86 1524.71 1094.54 1524.72 1085.88Z" fill="#00007B"/>
<path d="M1111.08 907.591C1130.27 907.591 1145.82 894.14 1145.82 877.548C1145.82 860.955 1130.27 847.504 1111.08 847.504C1091.89 847.504 1076.33 860.955 1076.33 877.548C1076.33 894.14 1091.89 907.591 1111.08 907.591Z" fill="#FF7300"/>
</g>
<defs>
<clipPath id="clip0_7_357">
<rect width="2187" height="1398" fill="white"/>
</clipPath>
</defs>
</svg>
