<svg width="1659" height="989" viewBox="0 0 1659 989" fill="none" xmlns="http://www.w3.org/2000/svg">
<path d="M368.398 99.069H262.664C252.499 99.077 242.753 102.499 235.565 108.583C228.377 114.668 224.335 122.918 224.326 131.523V228.559C222.974 228.491 221.622 228.389 220.29 228.252C195.241 226.021 171.426 217.911 151.53 204.836C131.635 191.761 116.45 174.241 107.687 154.252C98.925 134.262 96.934 112.598 101.939 91.702C106.943 70.806 118.744 51.509 136.012 35.986C153.279 20.464 175.325 9.33299 199.666 3.84999C224.006 -1.63401 249.672 -1.253 273.77 4.951C297.868 11.154 319.439 22.933 336.052 38.959C352.665 54.985 363.658 74.621 367.793 95.653C368.015 96.78 368.217 97.925 368.398 99.069Z" fill="#F2F2F2"/>
<path d="M1616.63 95.653H262.664C251.43 95.663 240.659 99.446 232.715 106.171C224.771 112.895 220.302 122.013 220.29 131.523V736.19C220.302 745.7 224.771 754.81 232.715 761.54C240.659 768.26 251.43 772.05 262.664 772.06H1616.63C1627.86 772.05 1638.63 768.26 1646.58 761.54C1654.52 754.81 1658.99 745.7 1659 736.19V131.523C1658.99 122.013 1654.52 112.895 1646.58 106.171C1638.63 99.446 1627.86 95.663 1616.63 95.653ZM1654.96 736.19C1654.96 744.79 1650.91 753.04 1643.73 759.13C1636.54 765.21 1626.79 768.63 1616.63 768.64H262.664C252.499 768.63 242.753 765.21 235.565 759.13C228.377 753.04 224.335 744.79 224.326 736.19V131.523C224.335 122.918 228.377 114.668 235.565 108.583C242.753 102.499 252.499 99.077 262.664 99.069H1616.63C1626.79 99.077 1636.54 102.499 1643.73 108.583C1650.91 114.668 1654.96 122.918 1654.96 131.523V736.19Z" fill="#3F3D56"/>
<path d="M1550.04 193.645H329.252C328.717 193.645 328.204 193.465 327.825 193.145C327.447 192.825 327.234 192.39 327.234 191.937C327.234 191.484 327.447 191.05 327.825 190.73C328.204 190.409 328.717 190.229 329.252 190.229H1550.04C1550.57 190.229 1551.09 190.409 1551.46 190.73C1551.84 191.05 1552.05 191.484 1552.05 191.937C1552.05 192.39 1551.84 192.825 1551.46 193.145C1551.09 193.465 1550.57 193.645 1550.04 193.645Z" fill="#3F3D56"/>
<path d="M674.301 698.61C673.766 698.61 673.253 698.43 672.874 698.11C672.496 697.79 672.283 697.35 672.283 696.9V134.939C672.283 134.486 672.496 134.052 672.874 133.731C673.253 133.411 673.766 133.231 674.301 133.231C674.836 133.231 675.349 133.411 675.728 133.731C676.106 134.052 676.319 134.486 676.319 134.939V696.9C676.319 697.35 676.106 697.79 675.728 698.11C675.349 698.43 674.836 698.61 674.301 698.61Z" fill="#3F3D56"/>
<path d="M978.99 698.61C978.46 698.61 977.94 698.43 977.57 698.11C977.19 697.79 976.97 697.35 976.97 696.9V134.939C976.97 134.486 977.19 134.052 977.57 133.731C977.94 133.411 978.46 133.231 978.99 133.231C979.53 133.231 980.04 133.411 980.42 133.731C980.8 134.052 981.01 134.486 981.01 134.939V696.9C981.01 697.35 980.8 697.79 980.42 698.11C980.04 698.43 979.53 698.61 978.99 698.61Z" fill="#3F3D56"/>
<path d="M1283.68 698.61C1283.15 698.61 1282.64 698.43 1282.26 698.11C1281.88 697.79 1281.67 697.35 1281.67 696.9V134.939C1281.67 134.486 1281.88 134.052 1282.26 133.731C1282.64 133.411 1283.15 133.231 1283.68 133.231C1284.22 133.231 1284.73 133.411 1285.11 133.731C1285.49 134.052 1285.7 134.486 1285.7 134.939V696.9C1285.7 697.35 1285.49 697.79 1285.11 698.11C1284.73 698.43 1284.22 698.61 1283.68 698.61Z" fill="#3F3D56"/>
<path d="M478.401 369.95H404.67C402.263 369.95 399.955 369.14 398.252 367.7C396.55 366.26 395.593 364.3 395.59 362.26V288.612C395.593 286.574 396.55 284.62 398.252 283.179C399.955 281.738 402.263 280.928 404.67 280.926H478.401C480.809 280.928 483.117 281.738 484.819 283.179C486.521 284.62 487.479 286.574 487.482 288.612V362.26C487.479 364.3 486.521 366.26 484.819 367.7C483.117 369.14 480.809 369.95 478.401 369.95Z" fill="#00007B"/>
<path d="M583.328 580.05H509.597C507.189 580.04 504.881 579.23 503.179 577.79C501.477 576.35 500.519 574.4 500.517 572.36V498.71C500.519 496.67 501.477 494.72 503.179 493.27C504.881 491.83 507.189 491.02 509.597 491.02H583.328C585.736 491.02 588.044 491.83 589.746 493.27C591.448 494.72 592.406 496.67 592.408 498.71V572.36C592.406 574.4 591.448 576.35 589.746 577.79C588.044 579.23 585.736 580.04 583.328 580.05Z" fill="#FF7300"/>
<path d="M821.432 414.36H747.701C745.293 414.36 742.985 413.55 741.283 412.11C739.581 410.67 738.623 408.71 738.621 406.67V333.02C738.623 330.98 739.581 329.03 741.283 327.59C742.985 326.15 745.293 325.34 747.701 325.34H821.432C823.84 325.34 826.148 326.15 827.85 327.59C829.552 329.03 830.51 330.98 830.512 333.02V406.67C830.51 408.71 829.552 410.67 827.85 412.11C826.148 413.55 823.84 414.36 821.432 414.36Z" fill="#FF7300"/>
<path d="M1130.16 334.08H1056.43C1054.02 334.08 1051.71 333.27 1050.01 331.83C1048.31 330.39 1047.35 328.43 1047.35 326.39V252.742C1047.35 250.704 1048.31 248.751 1050.01 247.31C1051.71 245.869 1054.02 245.058 1056.43 245.056H1130.16C1132.57 245.058 1134.87 245.869 1136.58 247.31C1138.28 248.751 1139.24 250.704 1139.24 252.742V326.39C1139.24 328.43 1138.28 330.39 1136.58 331.83C1134.87 333.27 1132.57 334.08 1130.16 334.08Z" fill="#00007B"/>
<path d="M1414.67 334.08H1340.94C1338.53 334.08 1336.23 333.27 1334.52 331.83C1332.82 330.39 1331.86 328.43 1331.86 326.39V252.742C1331.86 250.704 1332.82 248.751 1334.52 247.31C1336.23 245.869 1338.53 245.058 1340.94 245.056H1414.67C1417.08 245.058 1419.39 245.869 1421.09 247.31C1422.79 248.751 1423.75 250.704 1423.75 252.742V326.39C1423.75 328.43 1422.79 330.39 1421.09 331.83C1419.39 333.27 1417.08 334.08 1414.67 334.08Z" fill="#00007B"/>
<path d="M1545.83 354.58H1472.1C1469.69 354.58 1467.39 353.76 1465.68 352.32C1463.98 350.88 1463.02 348.93 1463.02 346.89V273.239C1463.02 271.201 1463.98 269.248 1465.68 267.807C1467.39 266.366 1469.69 265.555 1472.1 265.553H1545.83C1548.24 265.555 1550.55 266.366 1552.25 267.807C1553.95 269.248 1554.91 271.201 1554.91 273.239V346.89C1554.91 348.93 1553.95 350.88 1552.25 352.32C1550.55 353.76 1548.24 354.58 1545.83 354.58Z" fill="#E6E6E6"/>
<path d="M1487.31 486.1H1413.58C1411.18 486.1 1408.87 485.29 1407.17 483.85C1405.46 482.41 1404.51 480.45 1404.5 478.41V404.76C1404.51 402.72 1405.46 400.77 1407.17 399.33C1408.87 397.89 1411.18 397.08 1413.58 397.08H1487.31C1489.72 397.08 1492.03 397.89 1493.73 399.33C1495.43 400.77 1496.39 402.72 1496.39 404.76V478.41C1496.39 480.45 1495.43 482.41 1493.73 483.85C1492.03 485.29 1489.72 486.1 1487.31 486.1Z" fill="#E6E6E6"/>
<path d="M1237.1 458.77H1163.37C1160.97 458.77 1158.66 457.96 1156.96 456.52C1155.25 455.08 1154.3 453.12 1154.29 451.08V377.43C1154.3 375.39 1155.25 373.44 1156.96 372C1158.66 370.56 1160.97 369.75 1163.37 369.75H1237.1C1239.51 369.75 1241.82 370.56 1243.52 372C1245.22 373.44 1246.18 375.39 1246.18 377.43V451.08C1246.18 453.12 1245.22 455.08 1243.52 456.52C1241.82 457.96 1239.51 458.77 1237.1 458.77Z" fill="#FF7300"/>
<path d="M1093.84 486.1H1020.11C1017.7 486.1 1015.39 485.29 1013.69 483.85C1011.99 482.41 1011.03 480.45 1011.03 478.41V404.76C1011.03 402.72 1011.99 400.77 1013.69 399.33C1015.39 397.89 1017.7 397.08 1020.11 397.08H1093.84C1096.25 397.08 1098.55 397.89 1100.26 399.33C1101.96 400.77 1102.92 402.72 1102.92 404.76V478.41C1102.92 480.45 1101.96 482.41 1100.26 483.85C1098.55 485.29 1096.25 486.1 1093.84 486.1Z" fill="#E6E6E6"/>
<path d="M785.111 602.25H711.38C708.973 602.25 706.665 601.44 704.962 600C703.26 598.56 702.303 596.6 702.3 594.56V520.91C702.303 518.87 703.26 516.92 704.962 515.48C706.665 514.04 708.973 513.23 711.38 513.23H785.111C787.519 513.23 789.827 514.04 791.529 515.48C793.231 516.92 794.189 518.87 794.192 520.91V594.56C794.189 596.6 793.231 598.56 791.529 600C789.827 601.44 787.519 602.25 785.111 602.25Z" fill="#00007B"/>
<path d="M411.813 504.89H338.082C335.674 504.89 333.366 504.08 331.664 502.64C329.962 501.19 329.004 499.24 329.001 497.2V423.55C329.004 421.51 329.962 419.56 331.664 418.12C333.366 416.68 335.674 415.87 338.082 415.86H411.813C414.22 415.87 416.529 416.68 418.231 418.12C419.933 419.56 420.891 421.51 420.893 423.55V497.2C420.891 499.24 419.933 501.19 418.231 502.64C416.529 504.08 414.22 504.89 411.813 504.89Z" fill="#E6E6E6"/>
<path d="M619.649 369.95H545.918C543.511 369.95 541.203 369.14 539.5 367.7C537.798 366.26 536.841 364.3 536.838 362.26V288.612C536.841 286.574 537.798 284.62 539.5 283.179C541.203 281.738 543.511 280.928 545.918 280.926H619.649C622.057 280.928 624.365 281.738 626.067 283.179C627.77 284.62 628.727 286.574 628.73 288.612V362.26C628.727 364.3 627.77 366.26 626.067 367.7C624.365 369.14 622.057 369.95 619.649 369.95Z" fill="#E6E6E6"/>
<path d="M559.285 165.685H444.269C442.128 165.685 440.075 164.965 438.561 163.684C437.048 162.402 436.197 160.664 436.197 158.852C436.197 157.04 437.048 155.302 438.561 154.021C440.075 152.74 442.128 152.02 444.269 152.02H559.285C561.425 152.02 563.478 152.74 564.992 154.021C566.506 155.302 567.356 157.04 567.356 158.852C567.356 160.664 566.506 162.402 564.992 163.684C563.478 164.965 561.425 165.685 559.285 165.685Z" fill="#CCCCCC"/>
<path d="M884.15 165.685H769.139C766.998 165.685 764.945 164.965 763.431 163.684C761.918 162.402 761.067 160.664 761.067 158.852C761.067 157.04 761.918 155.302 763.431 154.021C764.945 152.74 766.998 152.02 769.139 152.02H884.15C886.3 152.02 888.35 152.74 889.86 154.021C891.38 155.302 892.23 157.04 892.23 158.852C892.23 160.664 891.38 162.402 889.86 163.684C888.35 164.965 886.3 165.685 884.15 165.685Z" fill="#CCCCCC"/>
<path d="M1188.85 165.685H1073.83C1071.69 165.685 1069.64 164.965 1068.12 163.684C1066.61 162.402 1065.76 160.664 1065.76 158.852C1065.76 157.04 1066.61 155.302 1068.12 154.021C1069.64 152.74 1071.69 152.02 1073.83 152.02H1188.85C1190.99 152.02 1193.04 152.74 1194.55 154.021C1196.07 155.302 1196.92 157.04 1196.92 158.852C1196.92 160.664 1196.07 162.402 1194.55 163.684C1193.04 164.965 1190.99 165.685 1188.85 165.685Z" fill="#CCCCCC"/>
<path d="M1473.36 165.685H1358.34C1356.2 165.685 1354.15 164.965 1352.64 163.684C1351.12 162.402 1350.27 160.664 1350.27 158.852C1350.27 157.04 1351.12 155.302 1352.64 154.021C1354.15 152.74 1356.2 152.02 1358.34 152.02H1473.36C1475.5 152.02 1477.55 152.74 1479.07 154.021C1480.58 155.302 1481.43 157.04 1481.43 158.852C1481.43 160.664 1480.58 162.402 1479.07 163.684C1477.55 164.965 1475.5 165.685 1473.36 165.685Z" fill="#CCCCCC"/>
<path d="M301.675 665.97C298.723 665.72 295.87 664.93 293.317 663.66C290.764 662.38 288.574 660.64 286.9 658.57C285.226 656.49 284.11 654.13 283.63 651.66C283.149 649.18 283.317 646.64 284.12 644.22L232.397 603.47L259.744 597.59L310.605 632.51C315.313 633.93 319.245 636.75 321.658 640.45C324.07 644.15 324.795 648.48 323.694 652.6C322.593 656.72 319.744 660.36 315.685 662.83C311.627 665.29 306.642 666.41 301.675 665.97Z" fill="#FFB8B8"/>
<path d="M373.095 967.21H397.834L409.602 886.44H373.091L373.095 967.21Z" fill="#FFB8B8"/>
<path d="M445.543 986.65L367.795 986.66L367.794 961.23H415.503C423.47 961.23 431.111 963.9 436.744 968.67C442.378 973.44 445.543 979.91 445.543 986.65Z" fill="#2F2E41"/>
<path d="M203.479 952.09L227.386 957.48L263.306 881.99L228.024 874.04L203.479 952.09Z" fill="#FFB8B8"/>
<path d="M267.581 986.66L192.449 969.73L200.176 945.16L246.279 955.55C253.978 957.28 260.548 961.53 264.542 967.37C268.537 973.2 269.63 980.14 267.581 986.66Z" fill="#2F2E41"/>
<path d="M404.487 951.92H366.739C364.354 951.92 362.053 951.18 360.288 949.82C358.523 948.46 357.422 946.59 357.202 944.58L334.287 743.15C334.119 741.67 333.35 740.29 332.111 739.24C330.871 738.19 329.24 737.53 327.494 737.39C325.749 737.24 323.999 737.62 322.543 738.45C321.088 739.27 320.017 740.5 319.514 741.93L252.98 930.16C252.276 932.16 250.687 933.85 248.544 934.88C246.401 935.92 243.87 936.21 241.478 935.7L206.362 928.27C205.136 928.01 203.983 927.55 202.969 926.91C201.955 926.27 201.101 925.47 200.454 924.55C199.808 923.63 199.382 922.61 199.202 921.56C199.022 920.5 199.091 919.42 199.406 918.38C199.979 916.49 256.734 728.74 257.229 726.81C270.088 646.58 285.473 625.08 293.738 613.54C294.422 612.58 295.051 611.7 295.617 610.87C296.325 609.83 300.686 599.52 303.453 592.83C303.812 591.74 304.434 590.72 305.28 589.85C306.126 588.97 307.177 588.25 308.366 587.74C343.095 572.71 383.727 583.11 395.353 586.66C397.281 587.23 398.936 588.32 400.071 589.76C434.949 634.29 417.833 892.93 414.047 944.33C413.889 946.38 412.814 948.31 411.038 949.72C409.263 951.13 406.921 951.92 404.487 951.92Z" fill="#2F2E41"/>
<path d="M307.072 441.69C334.443 441.69 356.632 422.9 356.632 399.73C356.632 376.56 334.443 357.78 307.072 357.78C279.701 357.78 257.512 376.56 257.512 399.73C257.512 422.9 279.701 441.69 307.072 441.69Z" fill="#FFB8B8"/>
<path d="M301.821 600.97L301.465 600.68C300.797 600.13 234.764 545.37 243.31 494.74C246.965 473.08 267.666 459.24 303.174 454.71C316.219 453.07 329.525 455.47 340.647 461.47C351.768 467.48 359.957 476.67 363.709 487.37L398.819 588.98L301.821 600.97Z" fill="#00007B"/>
<path d="M268.024 639.92L220.972 600.34C217.755 597.62 215.419 594.24 214.189 590.54C212.96 586.83 212.877 582.92 213.951 579.18L236.729 500.74C237.411 498.39 238.656 496.18 240.387 494.26C242.117 492.33 244.296 490.73 246.789 489.54C249.282 488.36 252.036 487.62 254.88 487.37C257.724 487.12 260.598 487.37 263.324 488.1C268.519 489.52 272.859 492.59 275.423 496.67C277.988 500.75 278.576 505.51 277.063 509.95L253.082 578.96L291.862 614.2L268.024 639.92Z" fill="#00007B"/>
<path d="M520.397 504.85C519.153 507.13 517.334 509.15 515.067 510.77C512.801 512.39 510.142 513.57 507.279 514.22C504.415 514.88 501.417 515 498.495 514.56C495.572 514.13 492.797 513.17 490.365 511.73L427.551 539.29L430.327 515.88L486.013 486.7C489.136 483.41 493.58 481.19 498.503 480.48C503.426 479.77 508.486 480.61 512.725 482.85C516.963 485.08 520.085 488.56 521.499 492.61C522.913 496.67 522.521 501.02 520.397 504.85Z" fill="#FFB8B8"/>
<path d="M483.505 522.27L422.271 544.67C418.196 546.15 413.739 546.72 409.33 546.32C404.921 545.92 400.707 544.56 397.095 542.39L319.229 495.16C316.905 493.75 314.948 491.95 313.478 489.88C312.008 487.8 311.057 485.49 310.684 483.09C310.31 480.69 310.523 478.25 311.308 475.93C312.093 473.6 313.433 471.43 315.247 469.56C318.732 466 323.716 463.74 329.143 463.24C334.57 462.74 340.014 464.04 344.321 466.88L411.088 511.37L464.157 493.99L483.505 522.27Z" fill="#00007B"/>
<path d="M315.289 413.18C321.403 406.69 332.825 406.34 341.223 402.07C352.224 396.46 356.772 383.94 353.227 373.5C349.682 363.05 339.227 354.91 327.241 351.02C315.254 347.12 301.918 347.08 289.274 348.96C270.447 351.76 251.911 359.2 240.429 372.14C228.947 385.07 226.025 404.02 236.431 417.59C241.214 423.83 248.597 428.98 250.506 436.24C253.013 445.77 245.116 454.96 236.655 461.6C227.017 469.16 215.958 475.49 207.514 484.01C199.07 492.54 193.438 504.18 197.292 514.81C200.52 523.72 209.915 530.29 220.217 533.58C230.519 536.86 241.739 537.34 252.747 537.52C263.436 537.7 274.789 537.48 283.793 532.6C293.433 527.38 298.58 517.47 298.96 507.78C299.34 498.1 295.518 488.62 290.395 479.95C287.341 474.79 283.791 469.78 281.762 464.27C279.733 458.76 279.382 452.5 282.631 447.43C286.047 442.09 292.956 438.87 299.993 437.7C300.358 437.64 300.745 437.58 301.15 437.54C303.151 437.32 305.08 436.75 306.818 435.89C308.557 435.02 310.069 433.86 311.264 432.48C312.458 431.1 313.31 429.54 313.768 427.87C314.227 426.21 314.281 424.48 313.929 422.8C313.127 419.02 313.197 415.4 315.289 413.18Z" fill="#2F2E41"/>
<path d="M976.07 969H951.33L939.57 888.23H976.08L976.07 969Z" fill="#A0616A"/>
<path d="M933.66 963.02H981.37V988.44H903.62C903.62 985.1 904.4 981.8 905.91 978.71C907.42 975.63 909.63 972.82 912.42 970.46C915.21 968.1 918.52 966.23 922.17 964.95C925.81 963.67 929.72 963.02 933.66 963.02Z" fill="#2F2E41"/>
<path d="M1155.57 945.28L1133.07 953.98L1082.71 884.65L1115.93 871.81L1155.57 945.28Z" fill="#A0616A"/>
<path d="M1114.06 954.75L1157.45 937.97L1169.93 961.1L1099.21 988.44C1097.57 985.41 1096.66 982.13 1096.52 978.79C1096.38 975.45 1097.01 972.12 1098.39 969C1099.77 965.87 1101.86 963 1104.55 960.55C1107.24 958.11 1110.47 956.14 1114.06 954.75Z" fill="#2F2E41"/>
<path d="M1083.53 696.66C1085.9 695.15 1087.85 693.21 1089.24 691C1090.63 688.78 1091.43 686.33 1091.59 683.82C1091.74 681.32 1091.25 678.81 1090.13 676.48C1089.02 674.16 1087.32 672.06 1085.14 670.35L1114.22 614.5L1077.28 619.8L1055.33 672.03C1052.18 675.31 1050.56 679.45 1050.77 683.67C1050.99 687.9 1053.03 691.91 1056.5 694.94C1059.98 697.98 1064.65 699.83 1069.63 700.15C1074.61 700.46 1079.56 699.22 1083.53 696.66Z" fill="#A0616A"/>
<path d="M974.5 947.7H950.86C948.57 947.69 946.37 946.96 944.69 945.64C943.01 944.31 941.98 942.51 941.81 940.57L928.92 649.24C928.82 648.13 929.02 647.01 929.48 645.96C929.95 644.91 930.69 643.97 931.63 643.18C932.58 642.4 933.72 641.81 934.96 641.43C936.21 641.06 937.54 640.93 938.86 641.04L1075.53 653.32C1077.75 653.51 1079.81 654.37 1081.32 655.76C1082.83 657.14 1083.69 658.94 1083.73 660.83L1086.6 789.34C1086.61 790.03 1086.77 790.72 1087.07 791.37L1143.13 914.45C1143.57 915.4 1143.77 916.41 1143.74 917.43C1143.7 918.45 1143.43 919.45 1142.93 920.38C1142.44 921.31 1141.73 922.14 1140.85 922.84C1139.96 923.53 1138.93 924.07 1137.8 924.42L1113.85 931.89C1111.77 932.54 1109.48 932.52 1107.42 931.84C1105.35 931.16 1103.65 929.87 1102.64 928.2L1033.76 814.83C1033.39 814.22 1033.11 813.56 1032.95 812.88L1021.18 764.89C1020.84 763.5 1019.93 762.26 1018.6 761.39C1017.27 760.52 1015.63 760.07 1013.95 760.14C1012.27 760.2 1010.68 760.77 1009.45 761.74C1008.22 762.71 1007.44 764.02 1007.25 765.43L983.52 940.89C983.26 942.76 982.2 944.49 980.54 945.75C978.88 947.01 976.72 947.7 974.5 947.7Z" fill="#2F2E41"/>
<path d="M986.26 421.45C1013.63 421.45 1035.82 402.67 1035.82 379.5C1035.82 356.33 1013.63 337.55 986.26 337.55C958.89 337.55 936.7 356.33 936.7 379.5C936.7 402.67 958.89 421.45 986.26 421.45Z" fill="#A0616A"/>
<path d="M1020.25 675.88C986.64 675.57 953.83 667.16 925.67 651.63L925.19 651.35L925.24 650.85L944.19 463.96C944.85 457.62 948.19 451.69 953.61 447.28C959.02 442.86 966.14 440.26 973.65 439.94C998.22 438.99 1031.22 440.19 1048.89 451.33C1075.59 468.16 1088.45 493.51 1084.19 520.87C1075.35 577.61 1085.37 654.15 1086.54 662.69L1086.62 663.31L1085.96 663.57C1065.37 671.67 1042.95 675.87 1020.25 675.88Z" fill="#FF7300"/>
<path d="M1086.31 663.01C1084.91 663.01 1083.53 662.76 1082.25 662.28C1080.97 661.8 1079.83 661.11 1078.88 660.24L1068.04 650.23C1066.87 649.14 1066.05 647.81 1065.66 646.38C1065.26 644.94 1065.31 643.45 1065.8 642.04L1090.52 571.21L1052.91 504.35C1051.15 501.22 1050.72 497.67 1051.69 494.31C1052.54 491.35 1054.44 488.69 1057.12 486.66C1059.8 484.63 1063.14 483.34 1066.71 482.96C1070.27 482.57 1073.89 483.11 1077.09 484.5C1080.28 485.89 1082.9 488.07 1084.61 490.75L1135.65 560.85C1137.72 563.7 1138.94 566.93 1139.19 570.26C1139.45 573.6 1138.73 576.93 1137.1 579.98L1095.51 657.98C1094.83 659.27 1093.78 660.39 1092.45 661.25C1091.12 662.11 1089.56 662.68 1087.91 662.9C1087.38 662.97 1086.85 663.01 1086.31 663.01Z" fill="#FF7300"/>
<path d="M736.977 527.72C739.358 529.22 742.097 530.26 745.003 530.76C747.908 531.27 750.91 531.23 753.795 530.64C756.681 530.06 759.38 528.95 761.703 527.39C764.027 525.83 765.917 523.85 767.242 521.61L838.75 529.46L822.316 500.95L756.93 497.87C752.324 496.23 747.17 496.09 742.445 497.46C737.719 498.82 733.751 501.61 731.291 505.29C728.832 508.97 728.052 513.29 729.1 517.42C730.148 521.55 732.951 525.22 736.977 527.72Z" fill="#A0616A"/>
<path d="M894.59 543.29C893.35 543.29 892.1 543.21 890.87 543.07L778.375 529.86C776.536 529.65 774.79 529.05 773.292 528.12C771.795 527.19 770.594 525.97 769.797 524.55C769.54 524.09 769.326 523.62 769.156 523.13C768.72 521.87 768.599 520.55 768.798 519.24C768.998 517.94 769.515 516.69 770.316 515.56L779.625 502.5C780.627 501.1 782.035 499.94 783.715 499.14C785.396 498.34 787.292 497.91 789.222 497.91H789.237L887.29 498L960.53 442.46C963.94 439.88 968.29 438.38 972.85 438.19C976.86 438.03 980.83 438.91 984.24 440.7C987.65 442.49 990.34 445.12 991.95 448.23C993.56 451.34 994.02 454.79 993.26 458.12C992.51 461.46 990.58 464.53 987.73 466.91L914.65 535.71C912.13 538.1 909.03 540 905.58 541.31C902.12 542.61 898.38 543.29 894.59 543.29Z" fill="#FF7300"/>
<path d="M991.9 416.82C996.43 407.95 1000.26 396.13 991.57 389.86C986.53 386.22 979.28 386.21 972.67 385.76C954.08 384.48 934.93 377.24 925.84 363.45C916.75 349.65 921.82 329.14 938.98 322.92C950.54 318.72 963.79 321.58 975.89 324.48L1012.22 333.21C1023.02 335.8 1034.35 338.65 1042.12 345.51C1054.52 356.43 1053.59 374.91 1043.75 387.56C1033.9 400.21 1019.08 413.4 1002.11 418.2L991.9 416.82Z" fill="#2F2E41"/>
<path d="M1493.15 989H3.40204C3.08604 989 2.77305 988.95 2.48105 988.85C2.18805 988.75 1.92305 988.6 1.69905 988.41C1.47505 988.22 1.29704 987.99 1.17604 987.75C1.05504 987.5 0.993042 987.23 0.993042 986.97C0.993042 986.7 1.05504 986.43 1.17604 986.19C1.29704 985.94 1.47505 985.71 1.69905 985.53C1.92305 985.34 2.18805 985.19 2.48105 985.09C2.77305 984.98 3.08604 984.93 3.40204 984.93H1493.15C1493.47 984.93 1493.78 984.98 1494.07 985.09C1494.36 985.19 1494.63 985.34 1494.85 985.53C1495.08 985.71 1495.26 985.94 1495.38 986.19C1495.5 986.43 1495.56 986.7 1495.56 986.97C1495.56 987.23 1495.5 987.5 1495.38 987.75C1495.26 987.99 1495.08 988.22 1494.85 988.41C1494.63 988.6 1494.36 988.75 1494.07 988.85C1493.78 988.95 1493.47 989 1493.15 989Z" fill="#3F3D56"/>
</svg>
