<svg width="621" height="436" viewBox="0 0 621 436" fill="none" xmlns="http://www.w3.org/2000/svg">
<path d="M395.732 326.856V431.958H123.879C92.9049 431.958 67.7041 408.383 67.7041 379.407C67.7041 350.431 92.9049 326.856 123.879 326.856H395.732Z" fill="#00007B"/>
<path d="M402.41 431.149C402.409 432.221 401.97 433.249 401.187 434.007C400.404 434.765 399.343 435.191 398.236 435.192H119.037C103.873 435.192 89.3302 429.357 78.6078 418.971C67.8853 408.585 61.8615 394.499 61.8615 379.811C61.8615 365.123 67.8853 351.037 78.6078 340.651C89.3302 330.265 103.873 324.43 119.037 324.43H398.236C399.343 324.43 400.405 324.856 401.187 325.614C401.97 326.372 402.41 327.401 402.41 328.473C402.41 329.545 401.97 330.573 401.187 331.331C400.405 332.089 399.343 332.515 398.236 332.515H119.037C106.087 332.515 93.6669 337.498 84.5098 346.368C75.3526 355.237 70.2082 367.267 70.2082 379.811C70.2082 392.355 75.3526 404.384 84.5098 413.254C93.6669 422.124 106.087 427.107 119.037 427.107H398.236C399.343 427.107 400.404 427.533 401.187 428.291C401.97 429.049 402.409 430.077 402.41 431.149Z" fill="#FF7300"/>
<path d="M395.732 351.11H103.595C103.374 351.11 103.162 351.025 103.005 350.873C102.849 350.722 102.761 350.516 102.761 350.302C102.761 350.087 102.849 349.881 103.005 349.73C103.162 349.578 103.374 349.493 103.595 349.493H395.732C395.954 349.493 396.166 349.578 396.323 349.73C396.479 349.881 396.567 350.087 396.567 350.302C396.567 350.516 396.479 350.722 396.323 350.873C396.166 351.025 395.954 351.11 395.732 351.11Z" fill="#CCCCCC"/>
<path d="M395.732 370.513H103.595C103.374 370.513 103.162 370.428 103.005 370.277C102.849 370.125 102.761 369.919 102.761 369.705C102.761 369.491 102.849 369.285 103.005 369.133C103.162 368.982 103.374 368.896 103.595 368.896H395.732C395.954 368.896 396.166 368.982 396.323 369.133C396.479 369.285 396.567 369.491 396.567 369.705C396.567 369.919 396.479 370.125 396.323 370.277C396.166 370.428 395.954 370.513 395.732 370.513Z" fill="#CCCCCC"/>
<path d="M395.732 389.917H103.595C103.374 389.917 103.162 389.832 103.005 389.68C102.849 389.528 102.761 389.323 102.761 389.108C102.761 388.894 102.849 388.688 103.005 388.537C103.162 388.385 103.374 388.3 103.595 388.3H395.732C395.954 388.3 396.166 388.385 396.323 388.537C396.479 388.688 396.567 388.894 396.567 389.108C396.567 389.323 396.479 389.528 396.323 389.68C396.166 389.832 395.954 389.917 395.732 389.917Z" fill="#CCCCCC"/>
<path d="M395.732 409.32H103.595C103.374 409.32 103.162 409.235 103.005 409.083C102.849 408.932 102.761 408.726 102.761 408.512C102.761 408.297 102.849 408.092 103.005 407.94C103.162 407.789 103.374 407.703 103.595 407.703H395.732C395.954 407.703 396.166 407.789 396.323 407.94C396.479 408.092 396.567 408.297 396.567 408.512C396.567 408.726 396.479 408.932 396.323 409.083C396.166 409.235 395.954 409.32 395.732 409.32Z" fill="#CCCCCC"/>
<path d="M605.835 346.64L537.755 428.481L326.068 263.268C301.949 244.445 297.597 210.772 316.366 188.209C335.135 165.646 370.029 162.604 394.148 181.428L605.835 346.64Z" fill="#00007B"/>
<path d="M543.478 431.909C542.784 432.744 541.775 433.277 540.675 433.391C539.574 433.506 538.472 433.193 537.61 432.521L320.203 262.844C308.395 253.628 300.85 240.247 299.228 225.643C297.607 211.04 302.04 196.41 311.555 184.973C321.069 173.536 334.884 166.228 349.961 164.657C365.037 163.086 380.141 167.381 391.949 176.596L609.356 346.273C609.783 346.606 610.138 347.017 610.401 347.483C610.664 347.949 610.83 348.461 610.889 348.989C610.948 349.517 610.899 350.051 610.744 350.56C610.59 351.07 610.333 351.545 609.989 351.958C609.645 352.372 609.221 352.716 608.739 352.97C608.258 353.225 607.73 353.385 607.185 353.442C606.64 353.498 606.088 353.45 605.562 353.3C605.036 353.151 604.546 352.902 604.119 352.568L386.712 182.892C381.719 178.992 375.982 176.083 369.828 174.331C363.675 172.58 357.225 172.019 350.848 172.683C344.471 173.346 338.291 175.22 332.661 178.197C327.032 181.174 322.063 185.196 318.039 190.034C314.015 194.871 311.014 200.43 309.208 206.391C307.402 212.352 306.826 218.599 307.513 224.776C308.201 230.953 310.138 236.938 313.213 242.39C316.289 247.841 320.444 252.652 325.44 256.548L542.847 426.225C543.708 426.898 544.259 427.875 544.377 428.941C544.496 430.006 544.172 431.074 543.478 431.909V431.909Z" fill="#FF7300"/>
<path d="M590.124 365.526L362.643 187.987C362.558 187.92 362.487 187.838 362.434 187.745C362.382 187.652 362.349 187.549 362.337 187.444C362.325 187.338 362.335 187.232 362.366 187.13C362.397 187.028 362.448 186.933 362.517 186.85C362.586 186.767 362.67 186.699 362.767 186.648C362.863 186.597 362.968 186.565 363.077 186.554C363.186 186.542 363.297 186.552 363.402 186.582C363.507 186.612 363.605 186.661 363.69 186.728L591.172 364.267C591.257 364.334 591.328 364.416 591.381 364.509C591.434 364.602 591.467 364.705 591.479 364.81C591.491 364.916 591.481 365.023 591.45 365.125C591.419 365.227 591.368 365.322 591.299 365.405C591.23 365.487 591.145 365.556 591.049 365.607C590.952 365.658 590.847 365.69 590.738 365.701C590.629 365.713 590.518 365.703 590.413 365.673C590.308 365.643 590.21 365.593 590.124 365.526V365.526Z" fill="#CCCCCC"/>
<path d="M577.556 380.635L350.074 203.096C349.902 202.961 349.792 202.766 349.769 202.553C349.745 202.34 349.81 202.127 349.949 201.96C350.088 201.793 350.289 201.686 350.509 201.663C350.729 201.64 350.949 201.703 351.122 201.837L578.603 379.376C578.689 379.443 578.76 379.525 578.812 379.618C578.865 379.711 578.898 379.814 578.91 379.919C578.922 380.025 578.912 380.132 578.881 380.234C578.85 380.336 578.799 380.431 578.73 380.514C578.661 380.596 578.576 380.665 578.48 380.716C578.384 380.767 578.278 380.799 578.169 380.81C578.06 380.822 577.95 380.812 577.844 380.782C577.739 380.752 577.641 380.702 577.556 380.635V380.635Z" fill="#CCCCCC"/>
<path d="M564.987 395.744L337.506 218.205C337.333 218.071 337.223 217.875 337.199 217.662C337.176 217.449 337.241 217.235 337.379 217.068C337.518 216.901 337.72 216.795 337.94 216.772C338.16 216.749 338.381 216.811 338.553 216.946L566.034 394.485C566.12 394.552 566.191 394.634 566.243 394.727C566.296 394.82 566.329 394.923 566.341 395.028C566.352 395.134 566.343 395.241 566.312 395.342C566.281 395.444 566.229 395.539 566.161 395.622C566.092 395.705 566.007 395.773 565.911 395.824C565.815 395.875 565.709 395.907 565.6 395.919C565.491 395.93 565.381 395.92 565.276 395.891C565.17 395.861 565.072 395.811 564.987 395.744V395.744Z" fill="#CCCCCC"/>
<path d="M552.418 410.853L324.937 233.314C324.852 233.248 324.781 233.165 324.728 233.072C324.676 232.979 324.642 232.877 324.631 232.771C324.619 232.666 324.629 232.559 324.66 232.457C324.691 232.355 324.742 232.26 324.811 232.177C324.88 232.095 324.964 232.026 325.061 231.975C325.157 231.924 325.262 231.892 325.371 231.881C325.48 231.869 325.591 231.879 325.696 231.909C325.801 231.939 325.899 231.988 325.984 232.055L553.466 409.594C553.551 409.661 553.622 409.743 553.675 409.836C553.728 409.93 553.761 410.032 553.773 410.138C553.784 410.243 553.775 410.35 553.744 410.452C553.713 410.554 553.662 410.649 553.593 410.732C553.524 410.815 553.439 410.883 553.343 410.934C553.246 410.985 553.141 411.017 553.032 411.028C552.923 411.04 552.812 411.03 552.707 411C552.602 410.97 552.504 410.92 552.418 410.853V410.853Z" fill="#CCCCCC"/>
<path d="M282.189 315.809L272.647 315.808L268.108 280.157L282.192 280.159L282.189 315.809Z" fill="#FFB8B8"/>
<path d="M265.83 313.167H284.233V324.39H254.243C254.243 322.916 254.543 321.457 255.125 320.095C255.707 318.734 256.561 317.496 257.637 316.454C258.713 315.412 259.99 314.585 261.396 314.021C262.802 313.457 264.308 313.167 265.83 313.167V313.167Z" fill="#2F2E41"/>
<path d="M184.702 315.809L175.16 315.808L170.622 280.157L184.706 280.159L184.702 315.809Z" fill="#FFB8B8"/>
<path d="M168.344 313.167H186.747V324.39H156.757C156.757 322.916 157.057 321.457 157.639 320.095C158.222 318.734 159.075 317.496 160.151 316.454C161.227 315.412 162.504 314.585 163.91 314.021C165.316 313.457 166.823 313.167 168.344 313.167V313.167Z" fill="#2F2E41"/>
<path d="M216.574 51.365V47.3226C216.574 40.4075 219.41 33.7756 224.459 28.8859C229.507 23.9962 236.354 21.2492 243.493 21.2492H243.493C250.632 21.2492 257.479 23.9962 262.527 28.8859C267.575 33.7756 270.411 40.4075 270.411 47.3226V51.365C270.411 56.3503 268.367 61.1314 264.727 64.6565C261.088 68.1817 256.152 70.1621 251.005 70.1621H235.981C233.432 70.1621 230.909 69.6759 228.554 68.7312C226.2 67.7866 224.06 66.402 222.258 64.6565C220.456 62.9111 219.027 60.8389 218.052 58.5583C217.076 56.2778 216.574 53.8335 216.574 51.365V51.365Z" fill="#2F2E41"/>
<path d="M243.493 71.553C254.815 71.553 263.993 62.6627 263.993 51.696C263.993 40.7293 254.815 31.839 243.493 31.839C232.171 31.839 222.992 40.7293 222.992 51.696C222.992 62.6627 232.171 71.553 243.493 71.553Z" fill="#FFB8B8"/>
<path d="M131.983 119.942C132.815 119.181 133.809 118.606 134.895 118.258C135.981 117.909 137.133 117.795 138.27 117.925C139.406 118.054 140.499 118.423 141.473 119.006C142.446 119.589 143.275 120.371 143.902 121.298L161.476 118.078L166.101 127.945L141.218 132.155C139.54 133.072 137.573 133.362 135.69 132.969C133.807 132.575 132.138 131.527 131 130.021C129.862 128.516 129.333 126.658 129.514 124.801C129.695 122.943 130.574 121.214 131.983 119.942V119.942Z" fill="#FFB8B8"/>
<path d="M227.51 84.0583L227.74 84.3956L198.922 102.784L150.295 117.824C149.651 118.025 149.098 118.436 148.731 118.987C148.364 119.538 148.205 120.195 148.282 120.847L149.343 129.697C149.39 130.088 149.521 130.466 149.727 130.806C149.934 131.146 150.212 131.44 150.543 131.67C150.873 131.899 151.25 132.06 151.649 132.14C152.047 132.221 152.459 132.22 152.857 132.137L198.622 122.635C200.837 122.178 202.931 121.285 204.775 120.011L237.15 97.6998C238.324 96.8866 239.26 95.793 239.869 94.5254C240.477 93.2578 240.736 91.8593 240.621 90.466C240.502 89.0707 240.011 87.7294 239.194 86.574C238.378 85.4187 237.266 84.489 235.966 83.8765C234.666 83.264 233.224 82.9898 231.782 83.0808C230.34 83.1718 228.947 83.6249 227.74 84.3956L227.51 84.0583Z" fill="#FF7300"/>
<path d="M272.817 305.692C272.085 305.692 271.368 305.486 270.755 305.098C270.141 304.71 269.658 304.158 269.363 303.508L225.618 198.81C225.516 198.583 225.344 198.391 225.127 198.261C224.909 198.131 224.655 198.069 224.4 198.083C224.145 198.097 223.9 198.187 223.698 198.339C223.497 198.492 223.349 198.701 223.274 198.938L187.584 300.865C187.434 301.34 187.184 301.779 186.852 302.157C186.519 302.534 186.111 302.842 185.651 303.061C185.191 303.28 184.69 303.405 184.178 303.43C183.666 303.454 183.155 303.377 182.675 303.203L170.707 298.855C170.058 298.622 169.488 298.218 169.061 297.689C168.634 297.16 168.367 296.527 168.289 295.86C162.905 250.43 209.856 135.758 210.331 134.605L210.463 134.286L253.262 143.456L253.351 143.55C270.427 161.594 284.463 275.398 287.103 298.029C287.201 298.846 287.009 299.672 286.559 300.369C286.108 301.067 285.425 301.595 284.623 301.866L274.059 305.485C273.66 305.622 273.24 305.692 272.817 305.692Z" fill="#2F2E41"/>
<path d="M235.94 147.147C225.571 147.147 214.01 145.145 210.451 136.879L210.369 136.689L210.48 136.513C213.289 132.049 217.001 124.434 215.006 123.005C211.075 120.19 209.168 115.559 209.337 109.24C209.705 95.5236 219.354 83.3455 233.347 78.9364H233.347C237.253 77.7256 241.228 76.7343 245.252 75.9674C248.186 75.3941 251.214 75.4571 254.12 76.1521C257.025 76.8471 259.736 78.1567 262.057 79.9869C264.407 81.8291 266.306 84.1526 267.619 86.7905C268.932 89.4284 269.625 92.3151 269.649 95.2433C269.795 109.902 267.466 130.318 255.533 144.334C254.973 144.985 254.195 145.423 253.335 145.572C247.594 146.578 241.774 147.105 235.94 147.147Z" fill="#FF7300"/>
<path d="M232.083 146.598C232.647 144.638 233.988 142.972 235.813 141.963C237.638 140.954 239.801 140.684 241.831 141.211C242.245 141.323 242.649 141.468 243.039 141.644L256.383 129.882L265.663 135.937L246.581 152.294C245.719 153.798 244.362 154.981 242.727 155.653C241.091 156.325 239.271 156.448 237.555 156.002C236.556 155.737 235.62 155.283 234.803 154.665C233.986 154.048 233.303 153.28 232.794 152.406C232.285 151.531 231.96 150.568 231.838 149.571C231.716 148.574 231.799 147.564 232.083 146.598V146.598Z" fill="#FFB8B8"/>
<path d="M254.269 146.748C253.403 146.748 252.564 146.458 251.894 145.927L246.632 141.762C246.193 141.415 245.842 140.976 245.603 140.478C245.364 139.981 245.244 139.437 245.253 138.889C245.262 138.34 245.399 137.8 245.653 137.31C245.908 136.82 246.274 136.392 246.723 136.058L268.793 119.662C269.055 119.467 269.227 119.18 269.271 118.863C269.315 118.546 269.229 118.224 269.03 117.969L255.408 100.525C253.825 98.505 253.031 96.0078 253.167 93.4755C253.302 90.9431 254.359 88.5389 256.148 86.6884V86.6884C258.034 84.7164 260.615 83.5029 263.381 83.2886C266.146 83.0744 268.894 83.875 271.079 85.5317L271.165 85.6198L285.39 105.348C286.928 106.517 288.166 108.013 289.009 109.722C289.851 111.43 290.274 113.304 290.245 115.197C290.216 117.09 289.735 118.951 288.841 120.635C287.947 122.318 286.663 123.779 285.089 124.902L256.505 146.034C255.858 146.498 255.074 146.748 254.269 146.748Z" fill="#FF7300"/>
<path d="M225.334 46.1099V36.2577L243.493 28.5771L260.808 36.2577V46.1099C260.808 46.5387 260.632 46.95 260.319 47.2532C260.006 47.5565 259.581 47.7268 259.138 47.7268H227.003C226.56 47.7268 226.136 47.5565 225.823 47.2532C225.51 46.95 225.334 46.5387 225.334 46.1099Z" fill="#2F2E41"/>
<path d="M242.659 22.5562C239.989 14.2786 245.597 4.79208 253.886 1.51559C262.176 -1.76089 272.094 0.529472 279.088 5.94272C286.083 11.356 290.423 19.464 292.722 27.8453C295.022 36.2266 295.458 44.9663 295.883 53.6287C306.068 55.4408 312.996 67.1418 309.468 76.5719C305.94 86.002 292.881 90.6869 283.862 85.7581C274.843 80.8292 272.231 67.5798 278.74 59.7787C281.82 56.0875 283.54 51.5064 283.629 46.7611C283.717 42.0158 282.169 37.3775 279.229 33.5809C276.288 29.7843 272.124 27.0464 267.396 25.8008C262.668 24.5552 257.646 24.8731 253.126 26.7042C248.106 28.7375 241.808 23.4546 242.659 22.5562Z" fill="#2F2E41"/>
<path d="M128.218 81.7231C116.024 81.6455 103.982 79.091 92.8712 74.2245C92.2098 73.939 91.6484 73.4733 91.2554 72.8842C90.8623 72.2951 90.6547 71.6079 90.6577 70.9065V41.4635C90.6589 40.4989 91.0549 39.5742 91.7591 38.8921C92.4633 38.2101 93.418 37.8264 94.4138 37.8253H162.023C163.018 37.8264 163.973 38.2101 164.677 38.8921C165.382 39.5742 165.778 40.4989 165.779 41.4635V70.9066C165.782 71.608 165.574 72.2951 165.181 72.8842C164.788 73.4733 164.227 73.939 163.565 74.2246C152.454 79.091 140.412 81.6455 128.218 81.7231V81.7231Z" fill="#00007B"/>
<path d="M128.209 57.8706C127.708 57.8711 127.212 57.7744 126.749 57.5864L73.1365 35.677C72.4452 35.3945 71.857 34.9179 71.4479 34.3086C71.0388 33.6993 70.8275 32.9852 70.8412 32.2585C70.855 31.5318 71.0931 30.8258 71.525 30.2314C71.9569 29.637 72.5627 29.1816 73.2643 28.9238L126.878 9.22307C127.741 8.9043 128.696 8.90627 129.558 9.2286L182.454 28.9293C183.151 29.1892 183.753 29.6447 184.182 30.2377C184.611 30.8306 184.847 31.534 184.861 32.2578C184.875 32.9817 184.665 33.6931 184.259 34.301C183.853 34.9089 183.269 35.3856 182.582 35.6703L129.686 57.5793C129.219 57.772 128.717 57.8711 128.209 57.8706V57.8706Z" fill="#00007B"/>
<path d="M96.9179 76.2279C99.6837 76.2279 101.926 74.0561 101.926 71.3771C101.926 68.698 99.6837 66.5262 96.9179 66.5262C94.152 66.5262 91.9098 68.698 91.9098 71.3771C91.9098 74.0561 94.152 76.2279 96.9179 76.2279Z" fill="#3F3D56"/>
<path opacity="0.2" d="M182.765 32.5604L129.869 54.4694C129.457 54.6402 129.013 54.7288 128.564 54.7299C128.116 54.7309 127.672 54.6444 127.259 54.4756L73.6456 32.5668C72.9723 32.2982 72.4106 31.82 72.0492 31.2077C71.8128 31.6047 71.6663 32.046 71.6194 32.5021C71.5726 32.9582 71.6264 33.4187 71.7774 33.8531C71.9284 34.2875 72.173 34.6858 72.4951 35.0216C72.8172 35.3574 73.2094 35.623 73.6456 35.8007L127.259 57.7095C127.672 57.8783 128.116 57.9648 128.564 57.9638C129.013 57.9627 129.457 57.8742 129.869 57.7034L182.765 35.7943C183.199 35.615 183.589 35.3486 183.909 35.0127C184.228 34.6767 184.471 34.2789 184.621 33.8454C184.77 33.412 184.823 32.9527 184.776 32.498C184.728 32.0433 184.582 31.6035 184.346 31.2076C183.988 31.8151 183.432 32.2906 182.765 32.5604V32.5604Z" fill="black"/>
<path d="M97.3387 71.3581C97.5601 71.3581 97.7724 71.273 97.9289 71.1214C98.0855 70.9697 98.1734 70.7641 98.1734 70.5497V43.4969L125.702 33.7829C125.923 33.7861 126.137 33.704 126.296 33.5547C126.455 33.4053 126.546 33.2009 126.549 32.9865C126.552 32.7721 126.468 32.5652 126.313 32.4113C126.159 32.2574 125.948 32.1692 125.727 32.166L98.1983 41.8799C97.9767 41.875 97.7565 41.9137 97.5508 41.9936C97.3452 42.0735 97.1584 42.1931 97.0019 42.345C96.8436 42.495 96.7181 42.6743 96.6326 42.8721C96.5471 43.07 96.5034 43.2824 96.504 43.4969V70.5497C96.504 70.7641 96.592 70.9697 96.7485 71.1213C96.905 71.2729 97.1173 71.3581 97.3387 71.3581V71.3581Z" fill="#3F3D56"/>
</svg>
