<svg width="1987" height="1230" viewBox="0 0 1987 1230" fill="none" xmlns="http://www.w3.org/2000/svg">
<g clip-path="url(#clip0_124_17)">
<path d="M133.72 926.873C124.285 926.873 114.83 927.229 105.597 927.947L104.253 928.051C43.0095 933.007 -1.78756 961.757 0.0548189 994.93L0.410993 1000.93C0.645872 1004.72 0.896128 1008.8 1.10211 1013.32C1.21368 1015.55 4.5386 1017.26 8.67582 1017.26H1515.13C1621.34 1016.67 1727.17 1015.93 1829.65 1015.05C1848.87 1015.09 1868.08 1014.18 1887.2 1012.32C1915.68 1009.24 1935.45 1003.12 1947.64 993.625H1947.64C1962.8 981.849 1963.28 967.02 1962.36 950.266C1960.49 916.436 1958.64 880.896 1956.79 845.464C1955.16 814.237 1953.53 783.094 1951.91 753.277C1950.9 735.583 1948.67 719.964 1931.46 708.028C1912.8 695.118 1878.77 688.574 1830.31 688.574C1829.73 688.574 1829.14 688.574 1828.55 688.577C1676.69 689.071 1526.22 736.867 1454.13 807.511C1445.83 815.646 1438.1 824.355 1430.62 832.779C1419.56 845.222 1408.13 858.087 1394.5 869.592C1387.11 875.906 1379.13 881.604 1370.64 886.617C1370.05 886.988 1369.38 887.385 1368.67 887.761C1367.05 888.728 1365.36 889.66 1363.7 890.49C1354.03 895.603 1343.84 899.844 1333.28 903.154L1332.21 903.481C1331.41 903.744 1330.54 904.007 1329.67 904.247C1323.56 906.04 1317.22 907.591 1310.87 908.844C1283.39 914.388 1252.14 915.718 1218 912.791C1186.65 910.032 1155.69 904.258 1125.66 895.566C1094.04 886.42 1064.45 875.016 1035.83 863.989C1023.26 859.143 1010.25 854.135 997.269 849.388C994.828 848.495 992.427 847.622 989.99 846.749C974.13 841.091 959.751 836.418 946.032 832.463C912.044 822.627 876.861 816.662 841.279 814.704C803.511 812.811 770.228 816.381 742.378 825.289C734.7 827.736 727.224 830.685 720.008 834.112C687.022 849.791 666.686 872.932 647.022 895.312C622.561 923.148 597.266 951.935 547.319 966.857C489.685 984.092 405.558 976.932 346.039 964.48C327.326 960.564 308.637 956.06 290.561 951.703C283.261 949.942 275.955 948.194 268.645 946.458C254.279 943.063 242.522 940.462 231.645 938.266L228.204 937.566C226.291 937.185 224.375 936.805 222.425 936.442C209.505 933.959 197.475 932.006 185.627 930.469L182.824 930.094C177.204 929.417 171.951 928.853 166.795 928.379L164.737 928.192C154.639 927.312 144.189 926.873 133.72 926.873Z" fill="#F2F2F2"/>
<path d="M1691.48 963.895C1733.87 928.931 1796.92 911.351 1849.8 930.956C1795.55 958.526 1753.71 1002.77 1731.66 1055.87C1723.24 1076.37 1716.21 1099.98 1695.5 1110.96C1682.62 1117.79 1666.59 1118.12 1652.14 1114.82C1637.69 1111.53 1624.45 1104.92 1611.39 1098.37L1607.67 1098.29C1624.35 1048.35 1649.09 998.859 1691.48 963.895Z" fill="#E6E6E6"/>
<path d="M1849.51 932.018C1802.67 937.559 1758.93 956.468 1724.5 986.06C1716.96 992.31 1710.55 999.608 1705.5 1007.69C1700.85 1015.7 1698.64 1024.71 1699.08 1033.77C1699.31 1042.23 1700.61 1050.86 1698.59 1059.22C1697.49 1063.48 1695.41 1067.49 1692.5 1070.97C1689.58 1074.45 1685.9 1077.32 1681.69 1079.41C1671.34 1084.85 1659.47 1086.57 1647.79 1087.88C1634.83 1089.34 1621.35 1090.66 1610.13 1097.31C1608.77 1098.12 1607.48 1096.14 1608.84 1095.33C1628.36 1083.76 1653.06 1087.97 1674.04 1080.24C1683.84 1076.64 1692.5 1070.31 1695.57 1060.74C1698.25 1052.38 1696.91 1043.48 1696.6 1034.92C1696.03 1026.08 1697.82 1017.25 1701.84 1009.2C1706.42 1000.91 1712.52 993.399 1719.86 986.983C1736.13 972.299 1754.83 960.047 1775.26 950.679C1798.52 939.868 1823.62 932.778 1849.49 929.716C1851.09 929.527 1851.1 931.83 1849.51 932.018H1849.51Z" fill="white"/>
<path d="M1734.97 975.934C1730.33 969.972 1728.16 962.695 1728.84 955.402C1729.52 948.108 1733.01 941.274 1738.69 936.119C1739.84 935.08 1741.66 936.671 1740.5 937.712C1735.21 942.503 1731.96 948.869 1731.34 955.662C1730.72 962.454 1732.77 969.226 1737.13 974.754C1738.07 975.956 1735.91 977.129 1734.97 975.934V975.934Z" fill="white"/>
<path d="M1698.35 1029.5C1714.44 1032.11 1731.02 1029.07 1744.78 1020.99C1746.14 1020.18 1747.43 1022.16 1746.07 1022.96C1731.74 1031.35 1714.47 1034.48 1697.73 1031.73C1696.14 1031.46 1696.76 1029.23 1698.35 1029.5V1029.5Z" fill="white"/>
<path d="M1798.72 942.914C1799.99 945.564 1801.96 947.882 1804.45 949.663C1806.94 951.443 1809.88 952.629 1812.99 953.115C1814.59 953.359 1813.97 955.59 1812.38 955.347C1808.94 954.796 1805.7 953.482 1802.94 951.521C1800.18 949.559 1797.99 947.01 1796.56 944.095C1796.4 943.83 1796.36 943.52 1796.44 943.227C1796.52 942.933 1796.72 942.68 1797 942.516C1797.28 942.361 1797.62 942.316 1797.95 942.391C1798.27 942.465 1798.55 942.654 1798.72 942.914V942.914Z" fill="white"/>
<path d="M1908.04 1099.57C1907.04 1099.44 1906.04 1099.32 1905.02 1099.2C1891.52 1097.56 1877.91 1096.93 1864.3 1097.31C1863.25 1097.32 1862.18 1097.35 1861.13 1097.39C1828.37 1098.63 1796.14 1105.42 1766.08 1117.42C1754.12 1122.21 1742.58 1127.82 1731.55 1134.21C1716.33 1143.04 1700.58 1153.71 1683.56 1157.31C1681.79 1157.71 1679.99 1158 1678.18 1158.19L1607.85 1102.45C1607.76 1102.25 1607.66 1102.06 1607.57 1101.86L1604.65 1099.76C1605.19 1099.39 1605.76 1099.02 1606.31 1098.65C1606.62 1098.44 1606.95 1098.24 1607.27 1098.03C1607.48 1097.89 1607.7 1097.75 1607.88 1097.61C1607.95 1097.57 1608.02 1097.52 1608.08 1097.49C1608.27 1097.35 1608.45 1097.25 1608.63 1097.12C1611.82 1095.06 1615.03 1093 1618.27 1090.97C1618.28 1090.95 1618.28 1090.95 1618.31 1090.95C1642.8 1075.22 1669.25 1062.21 1697.09 1052.19C1697.93 1051.9 1698.78 1051.59 1699.64 1051.33C1712.18 1047.06 1725.08 1043.74 1738.21 1041.4C1745.41 1040.13 1752.67 1039.21 1759.96 1038.62C1778.82 1037.12 1797.81 1038.36 1816.25 1042.27C1853.01 1050.07 1886.63 1068.54 1906.54 1097.35C1907.05 1098.09 1907.55 1098.82 1908.04 1099.57Z" fill="#E6E6E6"/>
<path d="M1907.11 1100.26C1866.07 1078.87 1818.7 1069.86 1771.75 1074.52C1761.62 1075.35 1751.7 1077.65 1742.35 1081.31C1733.37 1085.15 1725.68 1091.12 1720.07 1098.6C1714.69 1105.48 1710.06 1113.09 1702.95 1118.65C1699.26 1121.45 1694.97 1123.5 1690.35 1124.68C1685.74 1125.85 1680.9 1126.12 1676.17 1125.46C1664.32 1124.1 1653.71 1118.93 1643.53 1113.54C1632.23 1107.56 1620.59 1101.19 1607.26 1100.32C1605.64 1100.21 1605.92 1097.92 1607.53 1098.03C1630.73 1099.54 1647.68 1116.52 1669.51 1121.91C1679.71 1124.43 1690.79 1124.15 1699.53 1118.2C1707.17 1113 1711.96 1105.16 1717.34 1098.15C1722.69 1090.78 1729.94 1084.72 1738.44 1080.5C1747.55 1076.41 1757.36 1073.77 1767.44 1072.7C1790.09 1069.94 1813.08 1070.46 1835.55 1074.24C1861.23 1078.43 1885.94 1086.6 1908.61 1098.41C1910.01 1099.14 1908.5 1100.99 1907.11 1100.26V1100.26Z" fill="white"/>
<path d="M1786.77 1072.2C1786.99 1064.89 1790.04 1057.88 1795.38 1052.43C1800.72 1046.98 1808 1043.45 1815.93 1042.46C1817.53 1042.27 1817.94 1044.54 1816.33 1044.73C1808.95 1045.64 1802.17 1048.93 1797.21 1054.02C1792.24 1059.1 1789.43 1065.64 1789.27 1072.45C1789.24 1073.93 1786.74 1073.68 1786.77 1072.2V1072.2Z" fill="white"/>
<path d="M1722.3 1094.79C1733.44 1105.74 1748.67 1112.45 1764.97 1113.58C1766.59 1113.69 1766.32 1115.98 1764.7 1115.87C1747.74 1114.67 1731.9 1107.65 1720.34 1096.23C1719.24 1095.14 1721.21 1093.7 1722.3 1094.79H1722.3Z" fill="white"/>
<path d="M1859.39 1080.97C1858.66 1083.79 1858.71 1086.72 1859.53 1089.52C1860.35 1092.31 1861.91 1094.88 1864.08 1096.98C1865.19 1098.06 1863.23 1099.49 1862.12 1098.43C1859.73 1096.09 1858.01 1093.26 1857.1 1090.17C1856.19 1087.08 1856.12 1083.84 1856.89 1080.72C1856.94 1080.42 1857.11 1080.15 1857.36 1079.96C1857.62 1079.77 1857.95 1079.68 1858.28 1079.7C1858.61 1079.74 1858.91 1079.89 1859.12 1080.13C1859.33 1080.37 1859.43 1080.67 1859.39 1080.97V1080.97Z" fill="white"/>
<path d="M581.832 998.669C616.541 950.479 678.632 915.621 741.155 923.122C691.511 966.424 660.201 1024.4 652.763 1086.8C649.99 1110.88 649.644 1137.92 630.831 1154.93C619.126 1165.52 602.082 1169.96 585.627 1170.11C569.172 1170.26 552.999 1166.56 537.04 1162.89L533.042 1163.75C535.706 1106.09 547.122 1046.86 581.832 998.669Z" fill="#E6E6E6"/>
<path d="M741.161 924.333C692.748 942.187 651.712 973.549 623.881 1013.97C617.721 1022.57 613.08 1032.01 610.131 1041.94C607.6 1051.69 607.968 1061.89 611.198 1071.47C614.013 1080.45 618.03 1089.35 618.41 1098.81C618.526 1103.65 617.521 1108.46 615.463 1112.93C613.405 1117.39 610.339 1121.4 606.467 1124.71C597.052 1133.17 584.878 1138.03 572.792 1142.4C559.373 1147.26 545.351 1152.1 535.375 1162.08C534.166 1163.29 532.188 1161.5 533.395 1160.29C550.752 1142.94 578.447 1141.16 598.545 1127.55C607.923 1121.2 615.268 1112.22 615.64 1101.21C615.966 1091.58 611.832 1082.4 608.895 1073.32C605.595 1064.02 604.833 1054.12 606.677 1044.48C609.065 1034.45 613.3 1024.87 619.201 1016.14C632.144 996.285 648.417 978.421 667.422 963.198C689.008 945.714 713.702 931.738 740.437 921.876C742.091 921.267 742.805 923.727 741.161 924.333L741.161 924.333Z" fill="white"/>
<path d="M632.005 1000.47C625.231 995.275 620.695 988.045 619.206 980.072C617.718 972.098 619.374 963.899 623.88 956.941C624.797 955.535 627.226 956.773 626.307 958.18C622.099 964.654 620.556 972.291 621.959 979.713C623.362 987.136 627.617 993.855 633.956 998.658C635.333 999.703 633.374 1001.51 632.005 1000.47V1000.47Z" fill="white"/>
<path d="M609.114 1067.08C627.123 1065.77 643.932 1058.3 656.19 1046.15C657.403 1044.95 659.381 1046.74 658.169 1047.94C645.388 1060.56 627.878 1068.3 609.135 1069.63C607.348 1069.75 607.337 1067.21 609.114 1067.08H609.114Z" fill="white"/>
<path d="M690.153 948.92C692.316 951.43 695.127 953.409 698.333 954.679C701.538 955.949 705.038 956.47 708.518 956.195C710.302 956.05 710.311 958.595 708.538 958.739C704.692 959.026 700.828 958.446 697.283 957.05C693.738 955.655 690.62 953.485 688.202 950.732C687.95 950.49 687.809 950.17 687.806 949.835C687.804 949.501 687.94 949.179 688.188 948.933C688.447 948.695 688.799 948.559 689.167 948.557C689.535 948.554 689.889 948.685 690.153 948.92H690.153Z" fill="white"/>
<path d="M854.688 1088.63C853.577 1088.75 852.466 1088.87 851.343 1089.01C836.414 1090.69 821.658 1093.48 807.222 1097.35C806.101 1097.63 804.969 1097.94 803.859 1098.25C769.188 1107.91 736.779 1123.38 708.278 1143.88C696.945 1152.04 686.307 1160.98 676.456 1170.62C662.853 1183.94 649.261 1199.37 632.15 1207.55C630.375 1208.42 628.543 1209.19 626.664 1209.86L534.504 1168.15C534.347 1167.96 534.178 1167.79 534.019 1167.6L530.256 1166.09C530.726 1165.56 531.226 1165.02 531.697 1164.49C531.968 1164.18 532.26 1163.88 532.531 1163.57C532.718 1163.37 532.907 1163.17 533.063 1162.97C533.125 1162.91 533.189 1162.84 533.24 1162.79C533.397 1162.6 533.564 1162.43 533.71 1162.26C536.496 1159.23 539.31 1156.22 542.152 1153.22C542.163 1153.2 542.163 1153.2 542.193 1153.19C563.912 1130.37 587.902 1109.02 614.671 1091.67C615.477 1091.15 616.292 1090.61 617.139 1090.1C629.253 1082.35 642.039 1075.51 655.37 1069.66C662.68 1066.48 670.163 1063.64 677.787 1061.15C697.501 1054.75 718.193 1051.23 739.102 1050.72C780.784 1049.7 822.358 1060.9 852.413 1086.64C853.181 1087.3 853.93 1087.95 854.688 1088.63Z" fill="#E6E6E6"/>
<path d="M853.902 1089.61C803.504 1077.18 750.109 1079.61 701.303 1096.54C690.726 1100.01 680.813 1104.99 671.929 1111.29C663.492 1117.69 657.079 1126.03 653.356 1135.46C649.693 1144.19 647.049 1153.5 641.132 1161.27C638.038 1165.2 634.071 1168.48 629.492 1170.91C624.913 1173.34 619.824 1174.86 614.56 1175.36C601.478 1176.93 588.561 1174.1 576.035 1170.93C562.127 1167.41 547.742 1163.56 533.217 1166.02C531.457 1166.32 531.054 1163.8 532.811 1163.51C558.082 1159.22 581.369 1173.05 606.366 1173.27C618.031 1173.36 629.798 1170.25 637.34 1161.66C643.935 1154.15 646.67 1144.54 650.296 1135.68C653.78 1126.43 659.685 1118.1 667.494 1111.43C675.999 1104.73 685.686 1099.41 696.14 1095.69C719.531 1086.98 744.274 1081.68 769.462 1080C798.197 1077.94 827.107 1080.39 854.939 1087.25C856.662 1087.67 855.613 1090.03 853.902 1089.61V1089.61Z" fill="white"/>
<path d="M716.668 1090.24C714.676 1082.36 715.81 1074.09 719.866 1066.9C723.922 1059.71 730.637 1054.08 738.812 1051.01C740.469 1050.39 741.593 1052.72 739.935 1053.34C732.316 1056.18 726.062 1061.43 722.3 1068.13C718.537 1074.83 717.515 1082.54 719.418 1089.87C719.829 1091.46 717.078 1091.83 716.669 1090.24H716.668Z" fill="white"/>
<path d="M654.578 1130.81C669.816 1139.69 688.152 1142.99 705.929 1140.05C707.69 1139.75 708.094 1142.27 706.335 1142.56C687.83 1145.6 668.756 1142.13 652.921 1132.85C651.412 1131.97 653.077 1129.93 654.578 1130.81V1130.81Z" fill="white"/>
<path d="M797.002 1081.13C797.079 1084.32 798.022 1087.45 799.746 1090.23C801.47 1093.01 803.922 1095.36 806.881 1097.06C808.401 1097.92 806.734 1099.96 805.224 1099.1C801.964 1097.21 799.26 1094.62 797.348 1091.55C795.435 1088.48 794.373 1085.03 794.253 1081.5C794.211 1081.17 794.309 1080.83 794.527 1080.56C794.744 1080.3 795.065 1080.11 795.425 1080.05C795.789 1080.01 796.159 1080.09 796.454 1080.29C796.75 1080.49 796.947 1080.79 797.002 1081.13V1081.13Z" fill="white"/>
<path d="M828.859 637.378C831.162 635.281 832.935 632.747 834.052 629.955C835.17 627.162 835.605 624.18 835.326 621.217C835.048 618.254 834.064 615.383 832.442 612.806C830.821 610.229 828.602 608.009 825.941 606.302L862.216 445.604L823.08 456.905L793.895 612.368C791.058 616.649 790.036 621.733 791.021 626.658C792.006 631.583 794.931 636.006 799.241 639.089C803.55 642.172 808.946 643.7 814.405 643.385C819.864 643.07 825.007 640.933 828.859 637.378V637.378Z" fill="#FFB6B6"/>
<path d="M912.706 207.825L888.463 191.074C888.463 191.074 867.077 189.688 863.29 224.991C859.502 260.293 835.787 395.783 835.787 395.783L798.69 553.056L850.042 563.373L889.775 393.648L929.549 276.555L912.706 207.825Z" fill="#E6E6E6"/>
<path d="M894.237 498.836L777.947 416.069C776.136 414.777 774.959 412.88 774.674 410.794C774.388 408.708 775.019 406.604 776.426 404.943L855.549 311.799C856.961 310.141 859.033 309.063 861.312 308.802C863.591 308.541 865.889 309.118 867.704 310.406L983.994 393.173C985.805 394.466 986.982 396.363 987.268 398.448C987.553 400.534 986.922 402.638 985.515 404.299L906.392 497.444C904.98 499.102 902.908 500.179 900.629 500.44C898.351 500.701 896.052 500.124 894.237 498.836V498.836Z" fill="#3F3D56"/>
<path d="M893.598 490.271L787.173 414.525C785.565 413.378 784.519 411.694 784.266 409.842C784.013 407.99 784.573 406.121 785.822 404.647L857.551 320.207C858.804 318.735 860.644 317.778 862.667 317.546C864.691 317.315 866.732 317.827 868.343 318.971L974.768 394.717C976.376 395.864 977.422 397.548 977.675 399.4C977.928 401.252 977.368 403.121 976.118 404.595L904.39 489.035C903.137 490.507 901.297 491.464 899.273 491.696C897.25 491.927 895.209 491.415 893.598 490.271V490.271Z" fill="white"/>
<path d="M801.125 412.378C800.723 412.091 800.462 411.67 800.399 411.207C800.335 410.744 800.475 410.277 800.788 409.908L836.973 367.311C837.286 366.942 837.746 366.703 838.252 366.645C838.502 366.616 838.756 366.633 839 366.694C839.243 366.755 839.471 366.86 839.67 367.002C839.87 367.144 840.037 367.32 840.161 367.521C840.286 367.722 840.367 367.943 840.398 368.172C840.429 368.402 840.411 368.634 840.344 368.857C840.277 369.08 840.163 369.289 840.008 369.471L803.823 412.069C803.51 412.437 803.05 412.676 802.544 412.734C802.038 412.792 801.528 412.664 801.125 412.378V412.378Z" fill="#E4E4E4"/>
<path d="M807.123 416.646C806.721 416.359 806.46 415.938 806.396 415.475C806.333 415.012 806.473 414.545 806.785 414.176L842.97 371.579C843.283 371.211 843.743 370.971 844.249 370.913C844.755 370.855 845.266 370.983 845.668 371.27C846.071 371.556 846.332 371.978 846.396 372.441C846.459 372.904 846.319 373.371 846.006 373.74L809.821 416.337C809.507 416.705 809.048 416.944 808.542 417.002C808.036 417.06 807.526 416.932 807.123 416.646Z" fill="#E4E4E4"/>
<path d="M833.619 396.782C833.217 396.495 832.956 396.074 832.893 395.611C832.83 395.148 832.969 394.681 833.282 394.312L848.967 375.847C849.122 375.664 849.315 375.511 849.534 375.397C849.754 375.282 849.996 375.208 850.247 375.179C850.497 375.15 850.752 375.167 850.996 375.228C851.239 375.289 851.468 375.394 851.667 375.536C851.867 375.678 852.034 375.855 852.158 376.056C852.283 376.257 852.364 376.478 852.395 376.708C852.426 376.938 852.407 377.171 852.34 377.394C852.273 377.617 852.158 377.825 852.003 378.008L836.318 396.473C836.004 396.841 835.544 397.08 835.038 397.138C834.533 397.196 834.022 397.068 833.619 396.782V396.782Z" fill="#E4E4E4"/>
<path d="M841.705 433.017C841.303 432.73 841.042 432.309 840.979 431.846C840.915 431.383 841.055 430.916 841.368 430.548L898.492 363.3C898.647 363.117 898.84 362.965 899.06 362.85C899.279 362.736 899.521 362.662 899.772 362.634C900.022 362.605 900.276 362.622 900.52 362.683C900.763 362.744 900.991 362.849 901.19 362.991C901.39 363.132 901.557 363.309 901.681 363.51C901.806 363.711 901.887 363.932 901.918 364.161C901.949 364.391 901.931 364.623 901.864 364.846C901.797 365.069 901.683 365.278 901.528 365.46L844.403 432.708C844.09 433.076 843.63 433.315 843.124 433.373C842.618 433.431 842.108 433.303 841.705 433.017V433.017Z" fill="#E4E4E4"/>
<path d="M847.703 437.286C847.301 436.999 847.04 436.578 846.976 436.115C846.913 435.652 847.053 435.185 847.365 434.816L904.49 367.568C904.645 367.386 904.838 367.233 905.057 367.119C905.277 367.004 905.519 366.931 905.769 366.902C906.02 366.873 906.274 366.89 906.517 366.951C906.761 367.013 906.989 367.117 907.188 367.259C907.387 367.401 907.554 367.577 907.679 367.778C907.804 367.979 907.884 368.2 907.916 368.43C907.947 368.659 907.929 368.892 907.862 369.115C907.795 369.338 907.681 369.546 907.526 369.729L850.401 436.977C850.088 437.345 849.628 437.584 849.122 437.642C848.616 437.7 848.106 437.572 847.703 437.286V437.286Z" fill="#E4E4E4"/>
<path d="M861.317 446.975C860.915 446.688 860.653 446.267 860.59 445.804C860.527 445.341 860.667 444.874 860.979 444.505L918.104 377.257C918.259 377.075 918.451 376.922 918.671 376.808C918.89 376.694 919.132 376.62 919.383 376.592C919.633 376.563 919.888 376.58 920.131 376.641C920.374 376.702 920.602 376.807 920.802 376.948C921.001 377.09 921.168 377.267 921.293 377.468C921.417 377.668 921.498 377.89 921.529 378.119C921.561 378.348 921.542 378.581 921.475 378.804C921.408 379.027 921.294 379.235 921.139 379.418L864.015 446.666C863.701 447.034 863.241 447.273 862.735 447.331C862.23 447.389 861.72 447.261 861.317 446.975V446.975Z" fill="#E4E4E4"/>
<path d="M867.314 451.243C866.912 450.956 866.65 450.535 866.587 450.072C866.524 449.609 866.664 449.142 866.976 448.774L924.101 381.526C924.256 381.343 924.449 381.19 924.668 381.076C924.887 380.962 925.129 380.888 925.38 380.86C925.63 380.831 925.885 380.848 926.128 380.909C926.372 380.97 926.599 381.075 926.799 381.217C926.998 381.358 927.165 381.535 927.29 381.736C927.415 381.937 927.495 382.158 927.526 382.387C927.558 382.617 927.539 382.849 927.473 383.072C927.406 383.295 927.291 383.504 927.136 383.686L870.012 450.934C869.699 451.302 869.238 451.541 868.733 451.599C868.227 451.657 867.717 451.529 867.314 451.243V451.243Z" fill="#E4E4E4"/>
<path d="M880.927 460.933C880.525 460.646 880.264 460.225 880.2 459.762C880.137 459.299 880.277 458.832 880.59 458.463L937.714 391.215C937.869 391.033 938.062 390.88 938.281 390.766C938.501 390.651 938.743 390.578 938.993 390.549C939.244 390.52 939.498 390.537 939.741 390.598C939.985 390.66 940.213 390.764 940.412 390.906C940.611 391.048 940.778 391.224 940.903 391.425C941.028 391.626 941.108 391.847 941.14 392.077C941.171 392.306 941.153 392.539 941.086 392.762C941.019 392.984 940.905 393.193 940.75 393.375L883.625 460.623C883.312 460.991 882.852 461.231 882.346 461.289C881.84 461.347 881.33 461.218 880.927 460.933Z" fill="#E4E4E4"/>
<path d="M886.925 465.201C886.523 464.914 886.261 464.493 886.198 464.03C886.135 463.567 886.275 463.1 886.587 462.731L943.712 395.483C944.025 395.116 944.485 394.879 944.99 394.821C945.495 394.764 946.004 394.893 946.406 395.179C946.808 395.465 947.069 395.885 947.133 396.347C947.197 396.809 947.058 397.275 946.747 397.644L889.623 464.892C889.309 465.26 888.849 465.499 888.344 465.557C887.838 465.615 887.328 465.487 886.925 465.201V465.201Z" fill="#E4E4E4"/>
<path d="M791.45 543.299C791.886 543.299 792.24 542.976 792.24 542.577C792.24 542.177 791.886 541.854 791.45 541.854C791.015 541.854 790.661 542.177 790.661 542.577C790.661 542.976 791.015 543.299 791.45 543.299Z" fill="white"/>
<path d="M906.475 45.4258C903.699 59.0804 899.146 72.3815 892.914 85.045C857.228 154.147 958.854 131.623 995.172 131.623C1034.88 131.623 1072.87 150.736 1067.07 65.8117C1064.59 29.5357 1034.88 0 995.172 0C961.255 0 913.567 13.7994 906.475 45.4258Z" fill="#2F2E41"/>
<path d="M1032.19 1058.9H998.353L982.254 939.456H1032.19V1058.9Z" fill="#FFB6B6"/>
<path d="M1050.04 1112.56H1025.78L1021.45 1091.59L1010.36 1112.56H946.01C942.925 1112.56 939.922 1111.66 937.437 1109.98C934.952 1108.31 933.117 1105.95 932.199 1103.26C931.281 1100.56 931.329 1097.67 932.335 1095C933.341 1092.33 935.252 1090.03 937.79 1088.42L989.177 1055.94V1034.74L1043.23 1037.69L1050.04 1112.56Z" fill="#2F2E41"/>
<path d="M1233.18 1019.82L1206.03 1038.3L1115.24 951.246L1155.31 923.971L1233.18 1019.82Z" fill="#FFB6B6"/>
<path d="M1282.48 1053.12L1263.02 1066.38L1245.87 1051.92L1250.64 1074.8L1199 1109.95C1196.53 1111.63 1193.53 1112.55 1190.45 1112.56C1187.36 1112.58 1184.35 1111.69 1181.86 1110.03C1179.37 1108.37 1177.52 1106.02 1176.58 1103.33C1175.65 1100.64 1175.68 1097.74 1176.67 1095.07L1196.73 1040.93L1182.91 1023.92L1228.21 996.771L1282.48 1053.12Z" fill="#2F2E41"/>
<path d="M921.382 509.174L1081.98 486.278L1050.04 398.333H921.382V509.174Z" fill="#FFB6B6"/>
<path d="M1071.57 442.626C1071.57 442.626 1135.76 493.389 1106.15 638.101L1069.99 779.894L1168.5 936.444L1118.41 961.453L997.013 807.01L941.463 687.737L912.079 478.698L1071.57 442.626Z" fill="#00007B"/>
<path d="M972.081 721.728L968.22 776.458L979.522 938.529L1035.63 956.212L1046.26 790.155L972.081 721.728Z" fill="#00007B"/>
<path d="M954.83 149.838L1016.91 152.055L1041.65 189.647L1098.1 199.734L1064.4 355.777L1070.6 444.595L1014.39 444.281C973.883 444.055 934.711 457.526 904.386 482.109V482.109L906.068 366.816L881.892 280.752L887.325 190.508L932.734 185.312L954.83 149.838Z" fill="#E6E6E6"/>
<path d="M989.223 131.607C1021.49 131.607 1047.65 107.663 1047.65 78.1276C1047.65 48.5917 1021.49 24.6482 989.223 24.6482C956.955 24.6482 930.797 48.5917 930.797 78.1276C930.797 107.663 956.955 131.607 989.223 131.607Z" fill="#FFB6B6"/>
<path d="M949.546 23.6128C959.784 17.8998 971.511 14.8093 983.5 14.6646C995.49 14.5199 1007.3 17.3263 1017.7 22.7904C1028.1 28.2544 1036.7 36.1753 1042.61 45.725C1048.52 55.2747 1051.52 66.1023 1051.29 77.0757C1021.52 83.9175 990.248 89.1533 958.5 78.7122L951.002 61.9158L946.582 78.7246C936.914 82.342 927.22 85.4026 917.527 78.6897C917.131 67.7472 919.88 56.9013 925.499 47.2361C931.118 37.5709 939.41 29.4251 949.546 23.6128Z" fill="#2F2E41"/>
<path d="M1087.29 552.416L1095.17 617.841C1095.72 619.473 1096.82 620.902 1098.32 621.917C1099.82 622.931 1101.64 623.479 1103.51 623.479H1139.81C1141.68 623.479 1143.49 622.932 1144.99 621.917C1146.5 620.902 1147.6 619.474 1148.15 617.841L1154.67 567.696C1156.56 568.541 1158.63 568.965 1160.73 568.932C1162.82 568.9 1164.88 568.413 1166.73 567.511C1168.59 566.608 1170.18 565.317 1171.38 563.742C1172.57 562.168 1173.35 560.355 1173.63 558.453C1173.92 556.551 1173.71 554.615 1173.01 552.803C1172.32 550.991 1171.17 549.355 1169.65 548.03C1168.13 546.705 1166.29 545.729 1164.28 545.182C1162.27 544.634 1160.15 544.531 1158.09 544.881C1157.28 544.001 1156.26 543.295 1155.12 542.811C1153.97 542.327 1152.73 542.078 1151.47 542.08H1095.63C1094.27 542.08 1092.92 542.374 1091.7 542.937C1090.48 543.5 1089.42 544.317 1088.61 545.322C1087.8 546.327 1087.26 547.493 1087.03 548.725C1086.8 549.957 1086.89 551.221 1087.29 552.416V552.416ZM1155.81 564.305L1159.81 552.416C1160.27 551.044 1160.32 549.582 1159.94 548.188C1160.11 548.18 1160.27 548.142 1160.45 548.142C1162.95 548.142 1165.36 549.054 1167.13 550.678C1168.91 552.302 1169.91 554.505 1169.91 556.801C1169.91 559.098 1168.91 561.301 1167.13 562.925C1165.36 564.548 1162.95 565.461 1160.45 565.461C1158.82 565.451 1157.22 565.053 1155.81 564.305V564.305Z" fill="#6C63FF"/>
<path d="M1142.04 623.524C1139.74 621.416 1137.99 618.874 1136.88 616.076C1135.78 613.278 1135.36 610.294 1135.66 607.332C1135.95 604.371 1136.95 601.504 1138.59 598.935C1140.22 596.366 1142.46 594.156 1145.13 592.462L1109.74 431.597L1148.82 443.08L1177.14 598.677C1179.95 602.97 1180.94 608.06 1179.93 612.98C1178.92 617.9 1175.97 622.309 1171.64 625.372C1167.32 628.434 1161.91 629.938 1156.46 629.597C1151 629.257 1145.87 627.096 1142.04 623.524V623.524Z" fill="#FFB6B6"/>
<path d="M1073.85 216.485L1098.1 199.734C1098.1 199.734 1119.48 198.348 1123.27 233.65C1127.06 268.953 1150.77 404.443 1150.77 404.443L1187.87 561.715L1136.52 572.033L1096.79 402.308L1057.01 285.215L1073.85 216.485Z" fill="#E6E6E6"/>
<path d="M864.621 362.921C872.2 362.921 878.344 357.297 878.344 350.359C878.344 343.422 872.2 337.798 864.621 337.798C857.042 337.798 850.897 343.422 850.897 350.359C850.897 357.297 857.042 362.921 864.621 362.921Z" fill="#6C63FF"/>
<path d="M427.011 1204.62L455.61 1204.62L469.217 1103.65L427.006 1103.65L427.011 1204.62Z" fill="#FFB6B6"/>
<path d="M419.716 1196.08L427.766 1196.08L459.194 1184.38L476.039 1196.08H476.041C485.56 1196.08 494.689 1199.54 501.42 1205.7C508.151 1211.86 511.933 1220.22 511.934 1228.93V1230L419.718 1230L419.716 1196.08Z" fill="#2F2E41"/>
<path d="M537.839 1188.13L565.737 1193.89L603.307 1098.14L562.133 1089.63L537.839 1188.13Z" fill="#FFB6B6"/>
<path d="M532.78 1178.32L540.632 1179.94L574.104 1174.87L587.719 1189.67L587.722 1189.67C597.007 1191.59 605.079 1196.81 610.162 1204.18C615.245 1211.55 616.923 1220.46 614.827 1228.96L614.57 1230L524.618 1211.41L532.78 1178.32Z" fill="#2F2E41"/>
<path d="M374.654 685.233L400.516 950.456C400.516 950.456 390.826 1109.68 422.094 1165.71H467.441L489.894 935.914L492.713 781.671L589.933 911.8L528.01 1161.96L583.822 1166.52L684.306 895.046L573.912 640.192L374.654 685.233Z" fill="#00007B"/>
<path d="M401.74 262.871C438.575 262.871 468.435 235.539 468.435 201.822C468.435 168.105 438.575 140.772 401.74 140.772C364.905 140.772 335.044 168.105 335.044 201.822C335.044 235.539 364.905 262.871 401.74 262.871Z" fill="#FFB8B8"/>
<path d="M518.985 321.049L464.269 299.559L437.633 273.698L371.092 283.521L353.437 311.23L296.285 359.874L363.245 637.004L361.218 697.532C361.218 697.532 404.074 715.192 589.933 674.531C592.161 674.044 587.496 671.908 587.496 671.908L518.985 321.049Z" fill="#FF7300"/>
<path d="M332.387 236.463C331.922 235.882 331.462 235.297 331.006 234.707C330.823 235.061 330.677 235.427 330.467 235.773L332.387 236.463Z" fill="#2F2E41"/>
<path d="M468.084 157.166C463.626 148.277 455.677 141.247 445.817 137.476C436.044 133.868 425.122 133.876 415.356 137.5C406.538 132.401 396.741 128.359 386.424 127.858C376.106 127.357 365.198 130.861 358.84 138.573C357.42 140.609 355.807 142.527 354.02 144.304C348.91 148.637 341.142 148.012 334.349 147.126C337.396 149.516 340.444 151.907 343.492 154.297C339.804 155.179 336.115 156.061 332.426 156.943C336.731 159.332 341.035 161.722 345.339 164.111C332.843 170.977 327.164 185.96 328.664 199.569C330.083 212.453 336.879 224.235 345.003 234.706C348.243 228.447 347.545 220.957 347.491 213.907C347.436 206.458 348.875 197.999 355.396 193.836C359.795 191.027 365.452 190.902 370.756 190.928C397.514 191.063 424.241 192.59 450.808 195.503C454.414 195.646 457.929 196.579 461.058 198.224C466.933 201.893 468.078 209.464 468.668 216.107C471.772 205.139 473.291 193.846 473.186 182.517C473.447 173.833 471.709 165.195 468.084 157.166V157.166Z" fill="#2F2E41"/>
<path d="M488.849 871.156C546.825 871.156 593.823 828.136 593.823 775.068C593.823 722 546.825 678.98 488.849 678.98C430.873 678.98 383.875 722 383.875 775.068C383.875 828.136 430.873 871.156 488.849 871.156Z" fill="white"/>
<path d="M488.849 676.845C483.453 676.845 478.065 677.216 472.729 677.955C470 678.318 467.342 678.788 464.705 679.364C445.339 683.45 427.594 692.381 413.45 705.161C399.306 717.94 389.32 734.065 384.604 751.737C379.889 769.409 380.631 787.933 386.747 805.241C392.863 822.55 404.112 837.963 419.24 849.76C421.036 851.148 422.855 852.493 424.745 853.775C438.364 863.069 454.199 869.27 470.948 871.868C487.696 874.466 504.88 873.387 521.083 868.718C537.287 864.049 552.048 855.925 564.152 845.015C576.255 834.104 585.355 820.718 590.702 805.959C596.05 791.2 597.492 775.49 594.91 760.121C592.328 744.752 585.796 730.164 575.851 717.558C565.906 704.951 552.833 694.687 537.708 687.608C522.582 680.53 505.837 676.841 488.849 676.844V676.845ZM488.849 869.021C467.024 869.042 445.767 862.658 428.197 850.806C426.285 849.525 424.442 848.202 422.646 846.792C407.907 835.412 396.971 820.459 391.092 803.649C385.213 786.84 384.629 768.853 389.407 751.754C394.185 734.654 404.131 719.133 418.106 706.972C432.08 694.81 449.516 686.5 468.415 682.994C471.027 682.503 473.64 682.119 476.299 681.82C480.463 681.348 484.654 681.112 488.849 681.115C516.071 681.115 542.179 691.014 561.428 708.633C580.677 726.253 591.491 750.15 591.491 775.068C591.491 799.986 580.677 823.883 561.428 841.502C542.179 859.122 516.071 869.021 488.849 869.021V869.021Z" fill="#3F3D56"/>
<path d="M437.36 755.85H540.337C544.11 755.85 547.168 753.051 547.168 749.598V749.291C547.168 745.838 544.11 743.038 540.337 743.038H437.36C433.588 743.038 430.53 745.838 430.53 749.291V749.598C430.53 753.051 433.588 755.85 437.36 755.85Z" fill="#6C63FF"/>
<path d="M437.36 781.474H540.337C544.11 781.474 547.168 778.674 547.168 775.221V774.914C547.168 771.461 544.11 768.662 540.337 768.662H437.36C433.588 768.662 430.53 771.461 430.53 774.914V775.221C430.53 778.674 433.588 781.474 437.36 781.474Z" fill="#6C63FF"/>
<path d="M437.36 807.097H540.337C544.11 807.097 547.168 804.298 547.168 800.845V800.538C547.168 797.085 544.11 794.285 540.337 794.285H437.36C433.588 794.285 430.53 797.085 430.53 800.538V800.845C430.53 804.298 433.588 807.097 437.36 807.097Z" fill="#6C63FF"/>
<path d="M1663.28 1201.37L1633.29 1201.36L1619.03 1095.49L1663.29 1095.49L1663.28 1201.37Z" fill="#9E616A"/>
<path d="M1521.41 1201.37L1491.42 1201.36L1477.16 1095.49L1521.42 1095.49L1521.41 1201.37Z" fill="#9E616A"/>
<path d="M1522.47 1230L1430.25 1230V1228.93C1430.25 1220.22 1434.03 1211.86 1440.76 1205.7C1447.49 1199.54 1456.62 1196.08 1466.14 1196.08H1466.15L1482.99 1184.38L1514.42 1196.08L1522.47 1196.08L1522.47 1230Z" fill="#2F2E41"/>
<path d="M1668.18 1230L1575.97 1230V1228.93C1575.97 1220.22 1579.75 1211.86 1586.48 1205.7C1593.21 1199.54 1602.34 1196.08 1611.86 1196.08H1611.86L1628.71 1184.38L1660.14 1196.08L1668.19 1196.08L1668.18 1230Z" fill="#2F2E41"/>
<path d="M1491.99 574.752L1446.42 828.771L1458.82 866.624L1442.55 893.433L1466.45 1128.87L1456.75 1148.43L1483.85 1163.73H1539.01L1541.94 950.582L1555.56 919.287V902.04L1583.3 772.068L1588.41 954.086L1596.48 985.429L1589.7 1007.75L1598.55 1023.38L1622.08 1168.37H1683.93L1679.14 1134.64C1684.53 1132.14 1688.86 1128.08 1691.45 1123.09C1694.04 1118.09 1694.74 1112.45 1693.44 1107.05L1689.9 1092.27L1697.97 1048.55L1712.67 804.661L1708.52 607.873L1636.17 557.229L1491.99 574.752Z" fill="#00007B"/>
<path d="M1596.48 248.56C1628.21 248.56 1653.94 225.01 1653.94 195.96C1653.94 166.91 1628.21 143.36 1596.48 143.36C1564.74 143.36 1539.01 166.91 1539.01 195.96C1539.01 225.01 1564.74 248.56 1596.48 248.56Z" fill="#9E616A"/>
<path d="M1470.92 675.554C1473.42 673.189 1475.33 670.351 1476.5 667.239C1477.67 664.128 1478.09 660.819 1477.71 657.545C1477.33 654.271 1476.18 651.113 1474.33 648.292C1472.47 645.472 1469.97 643.057 1466.98 641.219L1489.33 563.868L1446.28 577.123L1431.66 648.545C1428.62 653.337 1427.6 658.983 1428.8 664.414C1430.01 669.846 1433.34 674.684 1438.18 678.013C1443.02 681.343 1449.03 682.931 1455.06 682.478C1461.1 682.025 1466.74 679.561 1470.92 675.554H1470.92Z" fill="#9E616A"/>
<path d="M1494.44 304.177L1485.2 302.422L1477.32 306.416C1477.32 306.416 1455.3 333.284 1455.3 357.913C1455.3 382.542 1428.4 619.874 1428.4 619.874L1477.32 640.025L1516.45 454.189L1494.44 304.177Z" fill="#E6E6E6"/>
<path d="M1646.8 157.395C1646.8 157.395 1661.83 131.095 1628.76 128.704C1628.76 128.704 1600.57 105.297 1571.84 124.425C1571.84 124.425 1556.17 124.425 1547.6 140.658C1547.6 140.658 1535.27 136.379 1532.57 147.831C1532.57 147.831 1523.55 171.74 1532.57 193.259C1541.58 214.777 1544.58 217.168 1544.58 217.168C1544.58 217.168 1529.76 172.054 1565.83 169.663C1601.91 167.272 1642.28 146.636 1645.29 172.936C1648.29 199.236 1652.82 205.716 1652.82 205.716C1652.82 205.716 1681.37 168.154 1646.8 157.395Z" fill="#2F2E41"/>
<path d="M1856.72 893.433C1852.38 893.439 1848.19 891.977 1844.96 889.328L1671.05 747.627C1667.55 744.765 1665.43 740.748 1665.15 736.456C1664.88 732.164 1666.48 727.949 1669.6 724.735L1781.01 610.176C1784.13 606.968 1788.52 605.026 1793.21 604.776C1797.9 604.527 1802.51 605.99 1806.02 608.845L1979.93 750.548C1983.43 753.407 1985.56 757.425 1985.83 761.718C1986.1 766.01 1984.5 770.227 1981.38 773.438L1869.97 887.997C1868.43 889.593 1866.56 890.892 1864.46 891.82C1862.37 892.749 1860.09 893.287 1857.77 893.405C1857.41 893.425 1857.06 893.433 1856.72 893.433Z" fill="white"/>
<path d="M1856.71 894.475C1852.1 894.482 1847.64 892.926 1844.2 890.108L1670.3 748.407C1666.57 745.36 1664.31 741.084 1664.02 736.516C1663.73 731.949 1665.43 727.462 1668.75 724.041L1780.16 609.482C1783.48 606.069 1788.16 604.003 1793.15 603.737C1798.14 603.472 1803.04 605.028 1806.77 608.066L1980.68 749.768C1984.42 752.812 1986.68 757.088 1986.97 761.657C1987.26 766.226 1985.55 770.714 1982.23 774.133L1870.82 888.691C1869.18 890.389 1867.19 891.772 1864.96 892.759C1862.73 893.747 1860.31 894.321 1857.83 894.447C1857.46 894.465 1857.09 894.475 1856.71 894.475ZM1794.25 607.873C1792.23 607.869 1790.23 608.258 1788.39 609.013C1786.55 609.768 1784.9 610.873 1783.56 612.254L1672.15 726.813C1669.63 729.407 1668.34 732.81 1668.56 736.275C1668.78 739.739 1670.5 742.983 1673.32 745.293L1847.23 886.994C1848.63 888.137 1850.27 889.016 1852.04 889.581C1853.82 890.145 1855.69 890.384 1857.57 890.285C1859.44 890.185 1861.28 889.748 1862.97 888.999C1864.66 888.25 1866.17 887.203 1867.42 885.919L1978.83 771.361C1981.35 768.768 1982.64 765.364 1982.42 761.899C1982.2 758.434 1980.49 755.19 1977.65 752.882L1803.75 611.18C1801.13 609.045 1797.75 607.868 1794.25 607.873H1794.25Z" fill="#3F3D56"/>
<path d="M1919.78 784.94C1917.9 784.942 1916.09 784.311 1914.69 783.167L1778.18 671.936C1777.42 671.324 1776.8 670.582 1776.36 669.752C1775.92 668.922 1775.66 668.02 1775.6 667.098C1775.54 666.177 1775.68 665.253 1776.01 664.381C1776.34 663.509 1776.86 662.704 1777.53 662.015C1778.2 661.325 1779.01 660.763 1779.92 660.362C1780.83 659.96 1781.81 659.727 1782.82 659.675C1783.83 659.623 1784.84 659.753 1785.79 660.059C1786.74 660.364 1787.62 660.838 1788.37 661.454L1924.88 772.685C1926.04 773.631 1926.86 774.878 1927.23 776.26C1927.6 777.642 1927.5 779.094 1926.95 780.423C1926.39 781.753 1925.41 782.897 1924.13 783.703C1922.85 784.51 1921.33 784.941 1919.78 784.94V784.94Z" fill="#6C63FF"/>
<path d="M1893.74 811.714C1891.86 811.716 1890.05 811.085 1888.65 809.941L1752.14 698.71C1751.39 698.097 1750.77 697.355 1750.33 696.526C1749.9 695.696 1749.64 694.796 1749.58 693.876C1749.52 692.957 1749.66 692.035 1749.99 691.165C1750.33 690.295 1750.84 689.493 1751.51 688.805C1752.18 688.117 1752.99 687.556 1753.9 687.155C1754.8 686.753 1755.79 686.519 1756.79 686.466C1757.8 686.413 1758.8 686.541 1759.75 686.844C1760.7 687.147 1761.58 687.618 1762.33 688.23L1898.84 799.461C1900 800.407 1900.82 801.653 1901.19 803.035C1901.56 804.417 1901.46 805.869 1900.91 807.198C1900.36 808.528 1899.37 809.672 1898.09 810.478C1896.81 811.284 1895.29 811.715 1893.74 811.714H1893.74Z" fill="#6C63FF"/>
<path d="M1867.7 838.492C1865.82 838.494 1864.01 837.862 1862.61 836.717L1726.1 725.488C1725.34 724.875 1724.73 724.133 1724.29 723.303C1723.85 722.474 1723.59 721.573 1723.53 720.652C1723.48 719.732 1723.62 718.81 1723.95 717.939C1724.28 717.068 1724.79 716.265 1725.46 715.576C1726.13 714.887 1726.94 714.326 1727.85 713.925C1728.76 713.523 1729.74 713.29 1730.75 713.237C1731.75 713.184 1732.76 713.313 1733.71 713.616C1734.66 713.92 1735.54 714.392 1736.29 715.006L1872.8 826.237C1873.96 827.183 1874.78 828.429 1875.15 829.811C1875.52 831.193 1875.42 832.645 1874.87 833.974C1874.32 835.304 1873.33 836.448 1872.05 837.255C1870.77 838.062 1869.26 838.493 1867.7 838.492H1867.7Z" fill="#6C63FF"/>
<path d="M1711.59 680.119C1709.84 677.245 1708.8 674.054 1708.54 670.771C1708.28 667.488 1708.81 664.193 1710.09 661.118C1711.38 658.043 1713.38 655.263 1715.96 652.974C1718.55 650.685 1721.65 648.942 1725.05 647.868L1725.19 567.858L1763.07 590.806L1757.12 663.266C1758.72 668.613 1758.11 674.308 1755.42 679.273C1752.73 684.239 1748.15 688.128 1742.53 690.206C1736.92 692.283 1730.67 692.404 1724.97 690.545C1719.27 688.686 1714.5 684.976 1711.59 680.119H1711.59Z" fill="#9E616A"/>
<path d="M1715.09 326.102L1732.01 311.173L1744.44 319.385C1744.44 319.385 1756.67 332.819 1766.46 373.121C1776.24 413.423 1766.46 635.082 1766.46 635.082L1712.65 628.365L1719.98 511.938L1697.97 413.423L1715.09 326.102Z" fill="#E6E6E6"/>
<path d="M1740.08 314.815L1683.07 289.887L1644.36 257.025L1573.78 256.542L1551.01 283.635L1490.9 302.325L1500.92 492.046L1494.09 506.634C1494.09 506.634 1498.85 510.569 1501.02 512.77C1503.2 514.971 1498.02 533.395 1498.02 533.395L1495.1 553.44L1503.2 558.737L1492.67 570.12L1490.05 588.064C1490.05 588.064 1673.83 546.253 1708.56 615.517C1710.39 619.176 1705.87 583.411 1705.87 583.411L1701.35 557.228L1705.84 533.728L1712.67 527.476L1701.21 516.989L1708.56 467.233L1740.08 314.815Z" fill="#FF7300"/>
<path d="M447.195 735.41C448.609 732.122 449.219 728.589 448.982 725.062C448.744 721.534 447.664 718.098 445.818 714.993C443.972 711.889 441.405 709.194 438.298 707.096C435.19 704.998 431.618 703.549 427.833 702.852L415.169 617.729L378.449 647.11L396.105 723.44C395.246 729.338 396.781 735.319 400.419 740.251C404.056 745.182 409.544 748.721 415.841 750.196C422.139 751.672 428.809 750.981 434.587 748.256C440.366 745.531 444.852 740.96 447.195 735.41V735.41Z" fill="#FFB8B8"/>
<path d="M303.332 358.317L293.379 360.062L287.363 366.995C287.363 366.995 277.63 401.938 288.717 426.358C299.804 450.778 379.964 696.243 379.964 696.243L437.541 697.771L392.689 498.752L303.332 358.317Z" fill="#FF7300"/>
<path d="M530.315 722.923C527.663 720.355 525.658 717.285 524.442 713.931C523.226 710.577 522.828 707.019 523.276 703.509C523.725 699.999 525.008 696.621 527.037 693.614C529.066 690.607 531.79 688.044 535.018 686.105L512.096 602.799L558.135 617.529L572.845 694.38C576.044 699.559 577.056 705.633 575.69 711.451C574.323 717.268 570.673 722.424 565.43 725.942C560.188 729.461 553.718 731.097 547.246 730.54C540.774 729.984 534.75 727.274 530.315 722.923V722.923Z" fill="#FFB8B8"/>
<path d="M510.2 323.924L520.146 322.146L528.552 326.526C528.552 326.526 551.817 355.627 551.476 382.07C551.136 408.513 576.743 663.636 576.743 663.636L523.941 684.704L484.491 484.729L510.2 323.924Z" fill="#FF7300"/>
</g>
<defs>
<clipPath id="clip0_124_17">
<rect width="1987" height="1230" fill="white"/>
</clipPath>
</defs>
</svg>
